# https://github.com/mikedh/trimesh
v 0.101504987406 -0.080928698605 -0.009004526690
v 0.102123154664 -0.080925234293 -0.007103670194
v 0.097172251351 -0.080952896634 -0.016553712919
v 0.098426734389 -0.080945915860 -0.014901152562
v 0.100155269330 -0.080936267939 -0.012051684719
v 0.062905875518 -0.081144566182 0.021755870074
v 0.098225759626 -0.080946988679 0.015144978622
v 0.072119297393 -0.081093018718 -0.025535113468
v 0.068896310659 -0.081111077838 -0.024687172961
v 0.075424302630 -0.081074542390 -0.025963766129
v 0.078756947857 -0.081055879809 -0.025966086845
v 0.082062541654 -0.081037403482 -0.025542092379
v 0.085286787460 -0.081019403963 -0.024698672240
v 0.088376558381 -0.081002119656 -0.023449668775
v 0.091281215872 -0.080985856018 -0.021815705810
v 0.093642252125 -0.080972676734 -0.020083700969
v 0.068841306334 -0.081111368393 0.024628817940
v 0.085093918441 -0.081020484232 0.024721741574
v 0.092661643392 -0.080978167482 0.018499326083
v 0.088167120269 -0.081003252077 0.023509275419
v 0.091061824383 -0.080987107640 0.021916850665
v 0.093642252125 -0.080972676734 0.020043712385
v 0.057832089726 -0.081172943735 0.015814598354
v 0.041972554038 -0.081261630107 -0.016618979801
v 0.041972554038 -0.081261630107 0.016578981904
v 0.101361900170 -0.080929465969 0.009344253643
v 0.099978440445 -0.080937214106 0.012344446971
v 0.081891732476 -0.081038364549 0.025534632934
v 0.078612296093 -0.081056721674 0.025934919218
v 0.075308616979 -0.081075190552 0.025916020095
v 0.072034015731 -0.081093488076 0.025478315523
v 0.106111910672 -0.075903130068 -0.010885354437
v 0.106168710479 -0.075902832062 -0.010732353869
v 0.105947724662 -0.077449069722 -0.010647779038
v 0.103712558389 -0.075916540306 -0.015882362893
v 0.104559303149 -0.075911831822 -0.014365515073
v 0.104351019807 -0.077458009881 -0.014252272134
v 0.099692236172 -0.080694101396 -0.015785449713
v 0.094122226884 -0.080944969693 -0.020334025407
v 0.095782645267 -0.080665492889 -0.020465147731
v 0.095137642634 -0.080785536867 -0.020549961897
v 0.094952581353 -0.080720631317 -0.021000424820
v 0.092122075027 -0.080736418146 -0.023110957833
v 0.096903688990 -0.080536993011 -0.019818006909
v 0.098517260943 -0.079990510924 -0.019482566576
v 0.095851611140 -0.080005411188 -0.022062102165
v 0.100831130411 -0.079977577495 -0.016583211717
v 0.097422396985 -0.080926485916 -0.017033793842
v 0.103106288992 -0.080820336434 -0.007269540400
v 0.102953404832 -0.080675863473 -0.009538492555
v 0.104113733101 -0.080511662562 -0.007269540400
v 0.104690894832 -0.080226590709 -0.007269540400
v 0.104257326946 -0.079958385954 -0.010020126831
v 0.105289058486 -0.078846535695 -0.010402403351
v 0.106670976032 -0.078169527294 -0.007269540400
v 0.107042655671 -0.077221982247 -0.007269540400
v 0.107170648940 -0.076607495354 -0.007269540400
v 0.107218843844 -0.075896931558 -0.007269540400
v 0.067374934090 -0.077664825547 -0.029198732674
v 0.071187434874 -0.077643488369 -0.030201701116
v 0.075072410542 -0.076076747945 -0.030952966846
v 0.075096906576 -0.077621607331 -0.030708781318
v 0.075817602552 -0.076072583322 -0.030992365007
v 0.079039099258 -0.077599554940 -0.030711521104
v 0.079045953380 -0.076054524202 -0.030955766233
v 0.082949286173 -0.077577681352 -0.030209981938
v 0.081354123496 -0.076041583322 -0.030722130092
v 0.082987252046 -0.076032464360 -0.030450176058
v 0.086831460592 -0.076010955829 -0.029444527432
v 0.086763157781 -0.077556351624 -0.029212262114
v 0.090515461497 -0.075990386015 -0.027955396897
v 0.090418073371 -0.077535901012 -0.027734871125
v 0.091844512907 -0.075982935882 -0.027276358334
v 0.093853962528 -0.077516709471 -0.025802066600
v 0.093978700089 -0.075971015671 -0.026007213437
v 0.096462931727 -0.075957128625 -0.024211012671
v 0.097014360702 -0.077499015408 -0.023445558164
v 0.097164257359 -0.075953194955 -0.023631997719
v 0.100019781228 -0.075937229322 -0.020868713935
v 0.099847377722 -0.077483213678 -0.020704153555
v 0.100461551709 -0.075934718628 -0.020372114207
v 0.102306338512 -0.077469445834 -0.017622838534
v 0.102498432717 -0.075923342276 -0.017762901016
v 0.067607080206 -0.079057277581 -0.028524942730
v 0.071331498077 -0.079036424661 -0.029504784100
v 0.075150666729 -0.079015080033 -0.030000124755
v 0.079001856048 -0.078993564051 -0.030002814253
v 0.082821747363 -0.078972167272 -0.029512833967
v 0.086547580760 -0.078951366503 -0.028538172302
v 0.090118041652 -0.078931400149 -0.027094869392
v 0.093474594353 -0.078912625816 -0.025206711646
v 0.096562048284 -0.078895341510 -0.022904620838
v 0.099329630794 -0.078879852685 -0.020226512551
v 0.101731873728 -0.078866442448 -0.017216353740
v 0.067962660109 -0.080161394603 -0.027475485464
v 0.071549995551 -0.080141301597 -0.028419268194
v 0.075228572760 -0.080120746683 -0.028896370927
v 0.078937956265 -0.080099998065 -0.028898939360
v 0.082617196537 -0.080079435700 -0.028426958593
v 0.086205828301 -0.080059350144 -0.027488245678
v 0.089644876315 -0.080040158604 -0.026098108773
v 0.092877868575 -0.080022039883 -0.024279438409
v 0.089044805427 -0.080753650302 -0.024842014644
v 0.085771336599 -0.080771947826 -0.026165213975
v 0.082355600049 -0.080791072315 -0.027058751152
v 0.078853561169 -0.080810621462 -0.027507964315
v 0.075322794580 -0.080830416463 -0.027505524397
v 0.071821418762 -0.080849965609 -0.027051360621
v 0.068406874233 -0.080869090098 -0.026153055359
v 0.103729254135 -0.078855229999 -0.013923571376
v 0.102755015265 -0.079966797153 -0.013411722159
v 0.101523389232 -0.080683850015 -0.012766721388
v 0.107210447546 -0.074397070970 -0.007269540400
v 0.105890924855 -0.036406109638 -0.010885354437
v 0.108070095934 -0.074392243285 -0.000019998795
v 0.107361938531 -0.036397877242 0.005500938648
v 0.105890924855 -0.036406109638 0.010845357472
v 0.107085754685 -0.074397793633 0.007729481753
v 0.107574423748 -0.074395051984 0.005500938648
v 0.070321498573 -0.076103330017 0.030232149806
v 0.071030095535 -0.076099336746 0.030381811784
v 0.074934501147 -0.076077530209 0.030903740099
v 0.075596721036 -0.036575559167 0.030952376423
v 0.081354123496 -0.076041583322 0.030682143370
v 0.081133241981 -0.036544559167 0.030682143370
v 0.078873467922 -0.076055470368 0.030926207834
v 0.075817602552 -0.076072583322 0.030952376423
v 0.082783595236 -0.076033604231 0.030448987762
v 0.086601586767 -0.076012267052 0.029479755381
v 0.086753979218 -0.076011425188 0.029430098388
v 0.090265792671 -0.075991756839 0.028034122442
v 0.096462931727 -0.075957128625 0.024171024087
v 0.093717118502 -0.075972446097 0.026135476773
v 0.091844512907 -0.075982935882 0.027236369751
v 0.096899807471 -0.075954684982 0.023814436553
v 0.099762394066 -0.075938659748 0.021108479673
v 0.100240662744 -0.036437757799 0.020332116310
v 0.103712558389 -0.075916540306 0.015842376172
v 0.103491669424 -0.036419516151 0.015842376172
v 0.102258747068 -0.075924705650 0.018061323507
v 0.100461551709 -0.075934718628 0.020332116310
v 0.107094150984 -0.075897654221 0.007729481753
v 0.106111910672 -0.075903130068 0.010845357472
v 0.105997916201 -0.075903793130 0.011145039034
v 0.104348516563 -0.075913031293 0.014722233915
v 0.103491669424 -0.036419516151 -0.015882362893
v 0.100240662744 -0.036437757799 -0.020372114207
v 0.091623623941 -0.036485911728 -0.027276358334
v 0.100607343344 -0.079978836567 0.016859164609
v 0.101499586060 -0.078867753671 0.017504346046
v 0.099080133321 -0.078881283111 0.020457637998
v 0.102068656948 -0.077470757057 0.017918631127
v 0.099591994645 -0.077484644103 0.020941660041
v 0.105778331009 -0.077450015889 0.011056884415
v 0.094717574387 -0.080721942540 0.021158077064
v 0.099479281597 -0.080695293417 0.016046204335
v 0.097551969682 -0.080655606564 0.018655776994
v 0.098277016535 -0.079991881748 0.019703744234
v 0.095604736114 -0.080006782012 0.022229761800
v 0.097301399390 -0.080567925960 0.019260019956
v 0.107053458363 -0.076551887568 0.007729481753
v 0.106933161080 -0.077163513610 0.007729481753
v 0.106849868604 -0.077444480441 0.007729481753
v 0.106572984445 -0.078113375648 0.007729481753
v 0.105123673004 -0.078847481862 0.010801140007
v 0.105441354085 -0.079588859404 0.007729481753
v 0.104097931371 -0.079959287420 0.010402704150
v 0.104601806153 -0.080200194891 0.007729481753
v 0.102801712693 -0.080676705338 0.009900689107
v 0.103106095289 -0.080790237900 0.007729481753
v 0.096751996851 -0.077500505434 0.023626266705
v 0.093594452078 -0.077518139897 0.025928959112
v 0.090170371380 -0.077537331437 0.027812644916
v 0.086535071988 -0.077557662847 0.029246888466
v 0.082747178991 -0.077578821222 0.030208491912
v 0.078867992075 -0.077600508557 0.030681903104
v 0.074960070000 -0.077622389595 0.030659614171
v 0.071086530285 -0.077644017328 0.030141794604
v 0.067309909338 -0.077665175703 0.029136985980
v 0.096305704140 -0.078896771935 0.023080211138
v 0.093221118510 -0.078914056242 0.025329785965
v 0.089876061363 -0.078932718823 0.027169974174
v 0.086324732409 -0.078952618125 0.028571070223
v 0.082624348663 -0.078973307142 0.029510442475
v 0.078834734686 -0.078994465517 0.029972944811
v 0.075017041160 -0.079015854846 0.029951136412
v 0.071232910480 -0.079037013221 0.029445296658
v 0.067543545479 -0.079057642637 0.028463676569
v 0.092633623445 -0.080023410707 0.024396491159
v 0.089411769132 -0.080041410226 0.026168914828
v 0.085991204897 -0.080060542165 0.027518403813
v 0.082427069166 -0.080080508519 0.028423259603
v 0.078776914211 -0.080100899531 0.028868721624
v 0.075099767427 -0.080121454445 0.028847682451
v 0.071454991467 -0.080141845457 0.028360503415
v 0.067901449824 -0.080161744759 0.027414990392
v 0.091889630907 -0.080737729370 0.023220452424
v 0.088822910694 -0.080754901924 0.024907510617
v 0.085567091229 -0.080773139847 0.026192032588
v 0.082174591641 -0.080792085533 0.027053271580
v 0.078700274702 -0.080811515478 0.027477275359
v 0.075200254808 -0.080831064624 0.027457307142
v 0.071731063560 -0.080850494569 0.026993555046
v 0.068348636551 -0.080869388104 0.026093638694
v 0.104141931851 -0.077459194452 0.014605830258
v 0.103525068366 -0.078856422020 0.014268130672
v 0.102558123175 -0.079967922123 0.013742092678
v 0.101336197214 -0.080684922834 0.013079212521
v 0.039630344268 -0.081044138401 -0.016618979801
v 0.039630344268 -0.081044138401 0.016578981904
v 0.038864709096 -0.080870103316 -0.016618979801
v 0.038864709096 -0.080870103316 0.016578981904
v 0.037375640025 -0.080373931971 -0.016618979801
v 0.037375640025 -0.080373931971 0.016578981904
v 0.035964044877 -0.079687625805 -0.016618979801
v 0.035964044877 -0.079687625805 0.016578981904
v 0.035294903815 -0.079276669070 -0.016618979801
v 0.035294903815 -0.079276669070 0.016578981904
v 0.033468254359 -0.077794636648 -0.016618979801
v 0.033468254359 -0.077794636648 0.016578981904
v 0.031965886802 -0.075984664313 -0.016618979801
v 0.031965886802 -0.075984664313 0.016578981904
v 0.037468025387 -0.080147321304 -0.018163956526
v 0.035429725130 -0.079072475850 -0.018163956526
v 0.040021152121 -0.079020563330 -0.020663796190
v 0.039811412278 -0.080106613782 -0.019557721645
v 0.034917446599 -0.076329165870 -0.020663796190
v 0.034139652811 -0.077115653962 -0.019557721645
v 0.033640326335 -0.077620594113 -0.018163956526
v 0.036430307667 -0.077556701780 -0.020663796190
v 0.035820942740 -0.078479802944 -0.019557721645
v 0.037736107215 -0.079489683246 -0.019557721645
v 0.038153672217 -0.078465446539 -0.020663796190
v 0.039676769766 -0.080803886542 -0.018163956526
v 0.041971183214 -0.081016900718 -0.018163956526
v 0.041971183214 -0.081016900718 0.018123958629
v 0.031070978801 -0.073821443966 0.018123958629
v 0.032168593720 -0.075847581883 0.018123958629
v 0.037468025387 -0.080147321304 0.018123958629
v 0.039676769766 -0.080803886542 0.018123958629
v 0.035897407170 -0.075338112052 0.021333956057
v 0.033534530734 -0.070976327931 0.021333956057
v 0.040021152121 -0.079020563330 0.020623807606
v 0.032169074254 -0.071255856887 0.020623807606
v 0.039811412278 -0.080106613782 0.019517734924
v 0.031085458132 -0.071477759070 0.019517734924
v 0.037736107215 -0.079489683246 0.019517734924
v 0.038153672217 -0.078465446539 0.020623807606
v 0.035429725130 -0.079072475850 0.018123958629
v 0.035820942740 -0.078479802944 0.019517734924
v 0.036430307667 -0.077556701780 0.020623807606
v 0.037198151803 -0.076393527561 0.021333956057
v 0.034917446599 -0.076329165870 0.020623807606
v 0.034139652811 -0.077115653962 0.019517734924
v 0.033640326335 -0.077620594113 0.018123958629
v 0.034827571931 -0.074049298805 0.021333956057
v 0.033673043589 -0.074830072646 0.020623807606
v 0.032756856148 -0.075449744831 0.019517734924
v 0.031725579067 -0.073546034934 0.019517734924
v 0.032745058864 -0.073117078680 0.020623807606
v 0.034029692587 -0.072576497097 0.021333956057
v 0.107574423748 -0.074395051984 -0.005540931423
v 0.104107035432 -0.080454989408 0.007729481753
v 0.105964718413 -0.079044232399 0.007729481753
v 0.105534845793 -0.079622414799 -0.007269540400
v 0.106054418003 -0.079091488587 -0.007269540400
v 0.106251801802 -0.078841760160 -0.007269540400
v 0.101991160674 -0.080925949506 0.007514321473
v 0.086533097703 -0.036514401033 0.029430098388
v 0.091623623941 -0.036485911728 0.027236369751
v 0.096242057661 -0.036460104470 0.024171024087
v 0.106867167810 -0.035900688953 0.005411894204
v 0.107857603268 -0.036395139318 -0.000019998795
v 0.107354838555 -0.035897947305 -0.000019998795
v 0.107361938531 -0.036397877242 -0.005540931423
v 0.106867167810 -0.035900688953 -0.005451886979
v 0.096242057661 -0.036460104470 -0.024211012671
v 0.086533097703 -0.036514401033 -0.029470096285
v 0.081133241981 -0.036544559167 -0.030722130092
v 0.060763873148 -0.081156545994 0.019890472481
v 0.095137642634 -0.080785536867 0.020509965863
v 0.094122226884 -0.080944969693 0.020294038685
v 0.096904158348 -0.080536993011 0.019777528479
v 0.096386403970 -0.080573051650 0.020175074977
v 0.095781632050 -0.080665671692 0.020425399414
v 0.097422396985 -0.080926485916 0.016993807120
v 0.097637430147 -0.080771590220 0.018010126199
v 0.097172251351 -0.080952896634 0.016513715022
v 0.093183681596 -0.080975247030 0.019607849859
v 0.097637430147 -0.080771590220 -0.018050112920
v 0.097301399390 -0.080567925960 -0.019300008539
v 0.097552267687 -0.080655785367 -0.018694765398
v 0.096386403970 -0.080573051650 -0.020215063560
v 0.093183681596 -0.080975247030 -0.019647836580
v 0.023449968642 0.019997106222 0.026878342479
v 0.024033762854 0.022517573439 0.026878342479
v 0.025069871345 0.023345843734 0.026878342479
v 0.039288353406 0.023218662530 0.027378332017
v 0.042477494189 0.021918519495 0.027378332017
v 0.029193782062 -0.014405752305 0.027378332017
v 0.025288007487 0.022895982409 0.027378332017
v 0.024424568844 0.022205742574 0.027378332017
v 0.023943228849 0.021210702935 0.027378332017
v 0.039285555881 0.023718652068 0.026878342479
v 0.039285555881 0.023718652068 -0.025918409725
v 0.042829010045 0.022274039797 -0.025918409725
v 0.042829010045 0.022274039797 0.026878342479
v 0.041200951310 0.023348764186 0.026878342479
v 0.026364642835 0.023146426049 0.027378332017
v 0.026361843448 0.023646355986 0.026878342479
v 0.023456167152 0.021323525872 0.026878342479
v 0.023938049144 0.020105339878 0.027378332017
v 0.041012202214 0.022885792491 0.027378332017
v 0.041200951310 0.023348764186 -0.025918409725
v 0.041012202214 0.022885792491 -0.026418399263
v 0.042477494189 0.021918519495 -0.026418399263
v 0.029106107045 -0.015067023233 0.027356462154
v 0.028340414134 -0.014998777230 0.027207642041
v 0.027698453017 -0.015625368725 0.026719921008
v 0.028344293790 -0.015634189681 0.027151255717
v -0.023355504693 0.002117148497 -0.033439645852
v -0.023482516407 0.000868630687 -0.033227350614
v -0.023315097039 0.000869566668 -0.033600568705
v -0.023030382792 0.002087645276 -0.033711128665
v -0.023172704527 0.000870362610 -0.033689612683
v -0.003145921636 0.022909809855 -0.033711128665
v -0.004839664460 0.022612698588 -0.033711128665
v -0.005327261170 0.022502796102 -0.033711128665
v -0.007459607704 0.021888601627 -0.033711128665
v -0.008610444504 0.021461977264 -0.033711128665
v -0.009523234685 0.021072841966 -0.033711128665
v -0.011499127980 0.020063021265 -0.033711128665
v -0.012130959712 0.019687475008 -0.033711128665
v -0.013481038188 0.019026383814 -0.033611717827
v -0.013369224743 0.018868493165 -0.033711128665
v -0.015116129848 0.017500237298 -0.033711128665
v -0.016723933536 0.015970808998 -0.033711128665
v -0.018177664769 0.014294299261 -0.033711128665
v -0.018329766665 0.014413912062 -0.033611717827
v -0.019464088386 0.012486237884 -0.033711128665
v -0.019626918472 0.012590661729 -0.033611717827
v -0.020221561938 0.011217984209 -0.033711128665
v -0.020743371051 0.010651538561 -0.033611717827
v -0.020571241337 0.010563153919 -0.033711128665
v -0.021488976543 0.008542797305 -0.033711128665
v -0.021833235970 0.007620054213 -0.033711128665
v -0.022394672335 0.006497706718 -0.033611717827
v -0.022208843691 0.006443768227 -0.033711128665
v -0.022724212165 0.004285435167 -0.033711128665
v -0.023223071145 0.002105109317 -0.033611717827
v -0.023045042789 0.004345989375 -0.033439645852
v -0.022914339535 0.004321315003 -0.033611717827
v -0.021792347783 0.008663370242 -0.033439645852
v -0.021668794793 0.008614258972 -0.033611717827
v -0.020861613959 0.010712274832 -0.033439645852
v -0.016863815354 0.016104440155 -0.033611717827
v -0.015329566819 0.017747281815 -0.033439645852
v -0.015242612602 0.017646617493 -0.033611717827
v -0.013557923551 0.019134857737 -0.033439645852
v -0.011595381824 0.020230921167 -0.033611717827
v -0.023402591390 0.002121439308 -0.033227350614
v -0.023091529751 0.004354750730 -0.033227350614
v -0.022567811542 0.006547950874 -0.033227350614
v -0.022522404850 0.006534778575 -0.033439645852
v -0.021836335225 0.008680892953 -0.033227350614
v -0.020903751906 0.010733843895 -0.033227350614
v -0.019778668350 0.012688046131 -0.033227350614
v -0.019738851119 0.012662477277 -0.033439645852
v -0.018471497978 0.014525365107 -0.033227350614
v -0.018434299468 0.014496107507 -0.033439645852
v -0.016994226190 0.016228943037 -0.033227350614
v -0.016960009596 0.016196225782 -0.033439645852
v -0.015360495111 0.017783038723 -0.033227350614
v -0.013585282298 0.019173475496 -0.033227350614
v 0.004522467638 0.029655334506 -0.030022773157
v 0.005173013635 0.029548771542 -0.031145485709
v 0.002565765417 0.029888261023 -0.030724460121
v 0.003026719756 0.029845102407 -0.031145485709
v 0.000993848200 0.029981715479 -0.031145485709
v -0.023433999284 -0.001741006230 -0.032710602004
v -0.023377432294 -0.002383028578 -0.033227350614
v -0.016811668154 -0.016418001313 -0.033227350614
v -0.018307887490 -0.014731053009 -0.033227350614
v -0.018307887490 -0.014731053009 -0.032710602004
v -0.019635508474 -0.012908452700 -0.033227350614
v -0.019088011306 -0.013705134435 -0.032710602004
v -0.020782348279 -0.010967009747 -0.033227350614
v -0.020782348279 -0.010967009747 -0.032710602004
v -0.021737870555 -0.008924543003 -0.033227350614
v -0.022086540461 -0.008022956890 -0.032710602004
v -0.022493135143 -0.006799943675 -0.033227350614
v -0.022493135143 -0.006799943675 -0.032710602004
v -0.023041341936 -0.004612704103 -0.033227350614
v -0.022975967027 -0.004928232096 -0.032710602004
v -0.023377432294 -0.002383028578 -0.032710602004
v -0.023451998803 0.001478820949 -0.032710602004
v -0.023402591390 0.002121439308 -0.032710602004
v -0.023029604253 0.004670993936 -0.032710602004
v -0.022567811542 0.006547950874 -0.032710602004
v -0.022174865501 0.007775433702 -0.032710602004
v -0.020903751906 0.010733843895 -0.032710602004
v -0.019240111340 0.013490757816 -0.032710602004
v -0.018471497978 0.014525365107 -0.032710602004
v -0.017215163582 0.015994357003 -0.032710602004
v -0.015360495111 0.017783038723 -0.032710602004
v -0.014867004882 0.018197623673 -0.032710602004
v -0.000808929287 0.029063790295 -0.032158875023
v -0.001153577518 0.028554091372 -0.032288686124
v 0.011383854880 0.015206314628 -0.034788354435
v 0.012638638717 0.014180516187 -0.034788354435
v 0.012965669715 0.013882983988 -0.034788175632
v 0.007161721623 0.017593570690 -0.034788354435
v 0.008635357746 0.016919011520 -0.034788354435
v 0.010046175286 0.016121368717 -0.034788354435
v 0.005635934576 0.018139998764 -0.034788354435
v 0.009140000823 0.027785947368 -0.032113045536
v 0.011121730365 0.027053752113 -0.032113045536
v 0.000858234319 0.018975957595 -0.034788354435
v 0.003807612798 0.029001753045 -0.032113045536
v 0.002472668101 0.018833745749 -0.034788354435
v 0.005044096550 0.028812454502 -0.032113045536
v 0.004069082866 0.018554403047 -0.034788354435
v 0.007110583916 0.028373202165 -0.032113045536
v 0.008678688645 0.027933458120 -0.032113045536
v -0.000762460077 0.018980068205 -0.034788354435
v -0.000978018066 0.025532312218 -0.033078169169
v -0.000629344086 0.029243848812 -0.032113045536
v 0.000843111249 0.029238490304 -0.032113045536
v 0.002951265284 0.029101348273 -0.032113045536
v -0.002363240794 0.023151246284 -0.033672801460
v -0.001856751249 0.023485015926 -0.033598005859
v -0.001704828388 0.023625016945 -0.033564569667
v -0.001328865040 0.024106718272 -0.033445427155
v -0.001230224942 0.024287728543 -0.033399590217
v -0.001028475133 0.024869252327 -0.033250468374
v -0.005544328217 0.018168245939 -0.034788354435
v -0.003975389540 0.018574721420 -0.034788354435
v -0.002377544815 0.018845965828 -0.034788354435
v -0.002561235737 0.023062980845 -0.033690212419
v -0.009964699711 0.016171847087 -0.034788354435
v -0.008549889831 0.016962399226 -0.034788354435
v -0.007072857379 0.017629448663 -0.034788354435
v -0.017335615455 0.007765301523 -0.034788354435
v -0.016610570464 0.009214799217 -0.034788354435
v -0.015764591205 0.010597182398 -0.034788354435
v -0.014803888294 0.011902443673 -0.034788354435
v -0.013735412703 0.013121049669 -0.034788354435
v -0.012566933059 0.014244171978 -0.034788354435
v -0.011306969517 0.015263530711 -0.034788354435
v -0.018737082148 0.003121903108 -0.034788354435
v -0.018402712771 0.004707767788 -0.034788354435
v -0.017934430995 0.006259302026 -0.034788354435
v -0.020135198145 0.000387372673 -0.034489995271
v -0.018935009807 0.001513329844 -0.034788354435
v -0.018995085809 -0.000106229607 -0.034788354435
v -0.020493575573 -0.000980596976 -0.034391407674
v -0.018700954595 -0.003331281387 -0.034788354435
v -0.018916891085 -0.001725033146 -0.034788354435
v -0.020129597508 -0.000612552128 -0.034489995271
v -0.020031253902 -0.000371498624 -0.034517232954
v -0.016506445556 -0.009399979700 -0.034788354435
v -0.020451798957 -0.010792550005 -0.033711128665
v -0.017247651745 -0.007958707882 -0.034788354435
v -0.021392061500 -0.008782631956 -0.033711128665
v -0.017863325072 -0.006459501975 -0.034788354435
v -0.021746630048 -0.007863762468 -0.033711128665
v -0.018348954480 -0.004913272231 -0.034788354435
v -0.022135407739 -0.006691768223 -0.033711128665
v -0.022674855040 -0.004539334737 -0.033711128665
v -0.023005585027 -0.002345121840 -0.033711128665
v -0.023097189989 -0.001129082066 -0.033711128665
v -0.008359643258 -0.017056982378 -0.034788354435
v -0.011274011064 -0.020190384998 -0.033711128665
v -0.009783215425 -0.016282289708 -0.034788354435
v -0.011910013007 -0.019821877253 -0.033711128665
v -0.011135559673 -0.015389043086 -0.034788354435
v -0.013157347644 -0.019016845782 -0.033711128665
v -0.012406853002 -0.014383814460 -0.034788354435
v -0.014919451949 -0.017668196800 -0.033711128665
v -0.013587781818 -0.013273861190 -0.034788354435
v -0.016544234488 -0.016156827621 -0.033711128665
v -0.014669837136 -0.012067303921 -0.034788354435
v -0.018016674865 -0.014496696998 -0.033711128665
v -0.015645098537 -0.010772821124 -0.034788354435
v -0.019323197075 -0.012703125198 -0.033711128665
v -0.020094850092 -0.011443460593 -0.033711128665
v -0.005340731474 -0.018229093031 -0.034788354435
v -0.006875220275 -0.017707464584 -0.034788354435
v -0.023348294827 -0.001130511909 -0.033555629508
v -0.023470886751 -0.001131167870 -0.033248088056
v -0.023435848780 -0.001130988950 -0.033412229366
v -0.023330354909 -0.002378200892 -0.033439645852
v -0.023198033114 -0.002364730588 -0.033611717827
v -0.022864572653 -0.004577360211 -0.033611717827
v -0.022320586360 -0.006747792751 -0.033611717827
v -0.021571050923 -0.008856120990 -0.033611717827
v -0.020622919178 -0.010882854918 -0.033611717827
v -0.019484887292 -0.012809398538 -0.033611717827
v -0.018167405937 -0.014617989805 -0.033611717827
v -0.016682685880 -0.016291999092 -0.033611717827
v -0.015044314300 -0.017816007420 -0.033611717827
v -0.013267430795 -0.019175915415 -0.033611717827
v -0.022994976039 -0.004603465939 -0.033439645852
v -0.021694063778 -0.008906603085 -0.033439645852
v -0.019595991111 -0.012882464777 -0.033439645852
v -0.018271000023 -0.014701374477 -0.033439645852
v -0.016777809166 -0.016384922727 -0.033439645852
v -0.022447897941 -0.006786235432 -0.033439645852
v -0.020740512062 -0.010944891236 -0.033439645852
v -0.015130079289 -0.017917621634 -0.033439645852
v 0.016154028234 0.007953164053 -0.034917867531
v 0.016810828152 0.006459741310 -0.034917867531
v -0.000520888614 -0.017978178170 -0.034917867531
v 0.001013515035 -0.017957138997 -0.034917867531
v 0.002540553937 -0.017805398432 -0.034917867531
v 0.017991886413 0.000100618945 -0.034917867531
v 0.017935740355 -0.001497356878 -0.034917867531
v 0.008355053977 -0.015927300227 -0.034917867531
v 0.006966945370 -0.016581541025 -0.034917867531
v 0.005528117196 -0.017115089683 -0.034917867531
v 0.004049057377 -0.017524014394 -0.034917867531
v 0.011966869622 0.013426801226 -0.034917867531
v 0.012272631423 0.013148048016 -0.034917867531
v 0.002341248004 0.017832686404 -0.034917867531
v 0.003852791098 0.017568242103 -0.034917867531
v 0.005336379666 0.017175825022 -0.034917867531
v 0.006781049675 0.016658426388 -0.034917867531
v -0.005249600993 0.017202524433 -0.034917867531
v -0.003764104493 0.017587431781 -0.034917867531
v 0.015496987118 -0.009158238746 -0.034917867531
v 0.014604460365 -0.010512846903 -0.034917867531
v 0.013579742194 -0.011796059512 -0.034917867531
v 0.012418952017 -0.013009957025 -0.034917867531
v 0.012116290402 -0.013292159646 -0.034917867531
v 0.010939171397 -0.014276590297 -0.034917867531
v 0.009682370437 -0.015157137237 -0.034917867531
v 0.008176429610 0.016019745191 -0.034917867531
v 0.009512209421 0.015264480603 -0.034917867531
v 0.010778791473 0.014398062837 -0.034917867531
v 0.016882053277 -0.006271341439 -0.034917867531
v 0.016242001256 -0.007771977306 -0.034917867531
v -0.017373644654 -0.004652099935 -0.034917867531
v -0.017706993363 -0.003154207114 -0.034917867531
v -0.017911421262 -0.001633306655 -0.034917867531
v -0.017985447637 -0.000100582945 -0.034917867531
v 0.017723862324 -0.003176079770 -0.034917867531
v 0.017375373084 -0.004738521933 -0.034917867531
v 0.017321316789 0.004932522906 -0.034917867531
v 0.017687265413 0.003374134780 -0.034917867531
v 0.017917861901 0.001697854832 -0.034917867531
v 0.013446950109 0.011947200342 -0.034917867531
v 0.014485967877 0.010675556856 -0.034917867531
v 0.015393573697 0.009330962608 -0.034917867531
v -0.013005366812 0.012423652119 -0.034917867531
v -0.011898984018 0.013487057895 -0.034917867531
v -0.010706015789 0.014452240198 -0.034917867531
v -0.009435084722 0.015312277856 -0.034917867531
v -0.008095432706 0.016060812181 -0.034917867531
v -0.006696893914 0.016692464179 -0.034917867531
v -0.014813538078 -0.010200235636 -0.034917867531
v -0.015629119866 -0.008900404575 -0.034917867531
v -0.016330926032 -0.007535718253 -0.034917867531
v -0.016913882104 -0.006116200821 -0.034917867531
v -0.006509806198 -0.016766309888 -0.034917867531
v -0.007915317382 -0.016150327381 -0.034917867531
v -0.009263195275 -0.015416821834 -0.034917867531
v -0.010543665305 -0.014571082842 -0.034917867531
v -0.011747362655 -0.013619309845 -0.034917867531
v -0.012865595816 -0.012568302952 -0.034917867531
v -0.013890143565 -0.011425871763 -0.034917867531
v -0.002251191506 0.017844316060 -0.034917867531
v -0.000721934560 0.017971268173 -0.034917867531
v 0.000812618091 0.017967388516 -0.034917867531
v -0.016981227572 0.005926609394 -0.034917867531
v -0.016414181258 0.007352564206 -0.034917867531
v -0.015727703739 0.008724997735 -0.034917867531
v -0.014926721415 0.010033956138 -0.034917867531
v -0.014017025833 0.011269841784 -0.034917867531
v -0.002051467435 -0.017868333423 -0.034917867531
v -0.003567182136 -0.017628439170 -0.034917867531
v -0.005056910777 -0.017260220118 -0.034917867531
v -0.017928590091 0.001432868767 -0.034917867531
v -0.017741141043 0.002955973069 -0.034917867531
v -0.017424601695 0.004457502486 -0.034917867531
v 0.038617606841 0.017557692716 -0.031688563086
v 0.038486123185 0.017285079346 -0.031879532321
v 0.038485054091 0.017444689113 -0.031802047223
v 0.038619454473 0.017276139188 -0.031854082670
v 0.038488093745 0.016955658719 -0.031944378271
v -0.000158273472 0.029651285359 -0.031902359526
v 0.000393514317 0.029906020275 -0.031559169192
v 0.000862257099 0.029902440486 -0.031545051192
v 0.003018316239 0.029762197338 -0.031545051192
v 0.007272043179 0.029017543600 -0.031545051192
v 0.000890497407 0.029984455265 -0.031176772539
v 0.000895768084 0.029983024840 -0.031204840911
v 0.000897640978 0.029982544306 -0.031211991175
v 0.000574810400 0.029949406119 -0.031436398466
v -0.000211054297 0.029615817143 -0.031931318189
v 0.000853832571 0.029610277970 -0.031926546380
v 0.007200999651 0.028734019512 -0.031926546380
v 0.009256222883 0.028139325757 -0.031926546380
v 0.002988813949 0.029471405646 -0.031926546380
v 0.005158649315 0.029466695300 -0.031545051192
v 0.005108227287 0.029178824059 -0.031926546380
v 0.009347531702 0.028416949341 -0.031545051192
v 0.011263161810 0.027397771274 -0.031926546380
v 0.043270363319 0.013450880053 -0.031931616195
v 0.043412806119 0.013257351698 -0.031930666303
v 0.042602883637 0.014039204876 -0.031936808937
v 0.042801243403 0.013903673005 -0.031935136382
v 0.014194825097 0.012617180474 -0.034789784861
v 0.042980702184 0.014144638214 -0.031759246214
v 0.042905247247 0.014042774421 -0.031887220858
v 0.043503340124 0.013640408619 -0.031755737202
v 0.043405177184 0.013560243336 -0.031883700670
v 0.043556988525 0.013354026474 -0.031882691177
v 0.000783631839 0.029968126438 -0.031082658745
v 0.000889937425 0.029984634068 -0.031164133390
v 0.000903231603 0.029980994679 -0.031119017252
v -0.023471307683 -0.001131167870 -0.033200232133
v -0.023482516407 0.000868630687 -0.033200232133
v -0.023419870109 0.000868980669 -0.033469505981
v -0.023108398712 0.000870722603 -0.033711128665
v -0.021003945007 0.000882490843 -0.034259517986
v -0.023471307683 -0.001131167870 -0.033227350614
v -0.020992795885 -0.001117340774 -0.034259517986
v -0.023218122395 -0.001129796929 -0.033662013669
v -0.023290837546 -0.001130155001 -0.033611717827
v -0.020503236531 0.000751322770 -0.034391407674
v -0.020034233955 0.000147700105 -0.034517173353
v -0.019998475183 -0.000111841266 -0.034526590320
v -0.000761980126 0.029342073215 -0.031919517180
v -0.000560545259 0.029505143569 -0.031277617526
v -0.000307539473 0.029666833785 -0.031774157653
v -0.000424760433 0.029597227201 -0.031263607553
v -0.000250368935 0.029697712720 -0.031751028718
v -0.000059567113 0.029787646989 -0.031219500909
v 0.000346038176 0.029918769313 -0.031476446651
v 0.000180314150 0.029874372114 -0.031185591632
v 0.000541712373 0.029955906359 -0.031378220385
v 0.000390030507 0.029928547612 -0.031164314055
v -0.000737047619 0.029336643932 -0.032006951930
v -0.000689551513 0.029301425295 -0.032076267959
v -0.000876731192 0.029115047203 -0.032122995187
v 0.000563636075 0.029954056864 -0.031417437880
v 0.000552556739 0.029956256515 -0.031397948334
v 0.000377185286 0.029915318040 -0.031532832975
v -0.000193623345 0.029683522081 -0.031861171471
v -0.000248651039 0.029650864427 -0.031889601175
v 0.000361220264 0.029919609316 -0.031504991832
v -0.000225377437 0.029699562215 -0.031808953495
v -0.000282033014 0.029668504477 -0.031835245011
v 0.000886599649 0.029982665371 -0.031136774642
v 0.000886344657 0.029981655878 -0.031125215762
v 0.000387896655 0.029915379503 -0.031094998027
v 0.000173389557 0.029845823208 -0.031089397390
v -0.000419596735 0.029571179677 -0.031167653577
v -0.000552714705 0.029480224739 -0.031181602087
v -0.022444558420 -0.001558925118 -0.026418399263
v -0.022563222261 -0.004453807686 -0.026918338513
v -0.022998255960 -0.000128617261 -0.026918338513
v -0.022611618319 0.004201159273 -0.026918338513
v -0.021322095447 -0.008619862402 -0.026918338513
v -0.021417220596 0.008380861234 -0.026918338513
v -0.019457658922 0.012261121900 -0.026918338513
v -0.013547914298 0.018584620783 -0.026918338513
v -0.016802908661 0.015703384645 -0.026918338513
v -0.019319257818 -0.012478009214 -0.026918338513
f 272 307 116
f 299 271 307
f 664 246 661
f 661 246 319
f 319 295 661
f 246 244 319
f 317 300 312
f 295 319 312
f 308 299 307
f 67 279 68
f 116 307 117
f 307 139 117
f 307 271 137
f 137 139 307
f 132 135 271
f 229 224 219
f 237 664 669
f 317 312 318
f 318 312 319
f 318 121 317
f 666 296 668
f 668 296 667
f 301 296 302
f 123 301 302
f 662 395 661
f 662 380 395
f 295 312 311
f 311 662 295
f 663 662 311
f 667 296 297
f 297 296 301
f 219 224 217
f 397 662 663
f 663 311 665
f 665 296 666
f 665 311 296
f 616 611 614
f 279 67 65
f 65 516 279
f 122 121 177
f 123 312 122
f 122 312 300
f 122 300 317
f 317 121 122
f 125 269 299
f 123 126 125
f 257 261 260
f 260 261 244
f 260 244 246
f 120 261 256
f 256 261 257
f 178 121 120
f 120 256 178
f 177 121 178
f 115 116 119
f 119 161 115
f 304 310 309
f 309 298 304
f 309 297 301
f 310 297 309
f 309 301 123
f 123 298 309
f 299 308 313
f 313 298 123
f 313 308 304
f 304 298 313
f 123 125 313
f 313 125 299
f 477 501 479
f 479 501 500
f 224 229 228
f 246 664 259
f 664 237 259
f 259 260 246
f 320 319 244
f 320 318 319
f 320 261 120
f 120 121 320
f 121 318 320
f 405 668 667
f 661 295 660
f 660 662 661
f 295 662 660
f 303 311 312
f 303 312 123
f 123 302 303
f 303 302 296
f 296 311 303
f 78 76 277
f 277 147 78
f 75 76 74
f 277 76 75
f 66 67 68
f 234 223 226
f 24 209 234
f 215 217 224
f 224 223 215
f 215 223 213
f 275 58 113
f 275 262 58
f 115 262 275
f 663 665 399
f 608 612 611
f 611 616 608
f 277 616 615
f 615 616 614
f 614 613 615
f 148 616 277
f 277 75 148
f 279 609 278
f 616 148 278
f 68 279 278
f 278 148 71
f 127 122 177
f 127 126 123
f 123 122 127
f 187 178 179
f 187 186 177
f 177 178 187
f 241 256 257
f 179 178 241
f 241 178 256
f 34 56 55
f 57 56 34
f 58 262 57
f 57 262 115
f 115 56 57
f 171 153 135
f 135 132 171
f 181 180 171
f 150 152 151
f 151 152 153
f 151 171 180
f 153 171 151
f 267 55 164
f 206 152 150
f 145 139 138
f 145 117 139
f 117 145 144
f 144 145 154
f 49 170 268
f 133 132 271
f 271 299 270
f 270 133 271
f 134 133 270
f 299 269 270
f 131 270 269
f 134 270 131
f 129 175 174
f 174 175 183
f 128 175 129
f 129 269 128
f 269 125 128
f 176 127 177
f 126 127 176
f 395 380 381
f 210 25 240
f 17 204 25
f 17 203 204
f 231 223 224
f 224 228 231
f 231 228 230
f 502 501 477
f 502 230 501
f 59 230 475
f 475 60 59
f 473 60 475
f 230 502 475
f 475 502 477
f 501 228 510
f 501 230 227
f 227 228 501
f 230 228 227
f 661 395 394
f 392 664 661
f 392 390 664
f 661 394 392
f 664 390 389
f 669 664 388
f 664 389 388
f 388 389 387
f 238 237 669
f 244 261 242
f 242 320 244
f 261 320 242
f 406 405 667
f 380 622 621
f 662 397 396
f 380 662 396
f 396 622 380
f 322 622 396
f 79 147 81
f 79 78 147
f 74 76 77
f 76 78 77
f 34 55 54
f 54 55 267
f 88 99 87
f 87 66 88
f 88 66 89
f 89 101 100
f 100 88 89
f 99 88 100
f 100 101 104
f 74 77 92
f 73 72 71
f 71 148 73
f 73 148 75
f 73 75 74
f 74 72 73
f 90 101 89
f 89 72 90
f 70 72 89
f 89 66 70
f 71 72 70
f 64 65 67
f 67 66 64
f 64 66 87
f 59 60 85
f 211 234 209
f 213 223 211
f 223 234 211
f 114 275 113
f 307 272 274
f 274 272 116
f 146 35 83
f 81 147 83
f 83 147 146
f 36 35 146
f 146 114 36
f 36 114 32
f 322 396 361
f 361 396 397
f 398 397 663
f 663 399 398
f 511 279 512
f 511 609 279
f 617 278 609
f 616 278 617
f 609 608 617
f 617 608 616
f 512 279 548
f 279 549 548
f 279 516 550
f 550 549 279
f 65 64 63
f 61 488 63
f 188 187 179
f 181 190 189
f 189 190 198
f 140 152 138
f 138 139 140
f 139 137 140
f 149 206 150
f 158 151 180
f 150 151 158
f 158 149 150
f 154 164 163
f 163 56 115
f 163 55 56
f 163 164 55
f 165 164 154
f 152 206 205
f 154 145 205
f 205 165 154
f 206 165 205
f 138 152 205
f 205 145 138
f 142 119 116
f 161 119 142
f 143 154 161
f 143 144 154
f 161 142 143
f 117 144 143
f 143 142 117
f 182 190 181
f 183 190 182
f 172 171 132
f 132 133 172
f 181 171 172
f 172 133 134
f 130 269 129
f 130 131 269
f 129 174 130
f 49 268 2
f 30 17 29
f 29 17 18
f 199 18 198
f 200 18 199
f 199 192 200
f 198 190 199
f 198 18 20
f 175 128 124
f 126 176 124
f 124 176 175
f 124 125 126
f 124 128 125
f 6 17 25
f 18 17 6
f 201 192 193
f 200 192 201
f 201 29 200
f 30 29 201
f 204 203 196
f 196 240 204
f 193 186 194
f 25 204 236
f 236 240 25
f 204 240 236
f 248 188 179
f 30 203 31
f 31 17 30
f 203 17 31
f 249 220 218
f 481 479 500
f 477 479 476
f 226 223 232
f 223 231 232
f 391 392 394
f 390 392 391
f 391 389 390
f 385 386 669
f 669 388 385
f 385 388 387
f 387 505 385
f 229 382 507
f 507 228 229
f 507 510 228
f 500 501 507
f 501 510 507
f 258 259 237
f 237 238 258
f 257 260 258
f 260 259 258
f 220 238 222
f 222 238 669
f 222 386 384
f 669 386 222
f 380 621 626
f 626 381 380
f 490 381 626
f 322 490 626
f 655 310 304
f 78 79 80
f 80 77 78
f 80 79 81
f 80 92 77
f 53 50 111
f 111 54 53
f 87 99 98
f 104 101 103
f 103 13 104
f 101 90 91
f 74 92 91
f 91 72 74
f 91 90 72
f 69 278 71
f 71 70 69
f 68 278 69
f 69 66 68
f 69 70 66
f 87 86 62
f 62 64 87
f 62 85 60
f 86 85 62
f 62 488 61
f 61 63 62
f 62 63 64
f 62 60 473
f 59 85 84
f 226 225 84
f 210 240 212
f 240 239 212
f 212 239 214
f 113 58 33
f 33 114 113
f 32 114 33
f 58 57 33
f 34 32 33
f 33 57 34
f 115 275 273
f 275 274 273
f 273 116 115
f 273 274 116
f 364 351 362
f 362 361 397
f 397 398 362
f 400 399 665
f 409 539 414
f 611 410 409
f 516 65 517
f 65 546 517
f 65 541 540
f 170 208 27
f 170 263 169
f 169 208 170
f 153 152 141
f 152 140 141
f 141 140 137
f 159 158 180
f 159 180 181
f 181 189 159
f 283 158 159
f 161 154 162
f 154 163 162
f 115 161 162
f 162 163 115
f 264 165 166
f 164 165 264
f 267 164 264
f 116 117 118
f 118 142 116
f 117 142 118
f 207 149 208
f 206 149 207
f 191 190 183
f 183 192 191
f 191 199 190
f 192 199 191
f 175 176 185
f 193 192 185
f 185 186 193
f 177 186 185
f 185 176 177
f 173 174 183
f 183 182 173
f 173 182 181
f 181 172 173
f 131 130 173
f 173 130 174
f 134 131 173
f 173 172 134
f 289 18 19
f 18 23 19
f 28 18 200
f 200 29 28
f 28 29 18
f 21 18 289
f 21 20 18
f 198 20 21
f 287 281 282
f 405 406 373
f 345 443 452
f 25 23 280
f 280 6 25
f 280 23 18
f 18 6 280
f 195 196 203
f 187 188 195
f 188 196 195
f 186 187 195
f 195 194 186
f 202 203 30
f 30 201 202
f 202 195 203
f 194 195 202
f 202 201 193
f 193 194 202
f 179 241 252
f 188 248 243
f 245 239 240
f 245 243 248
f 240 196 245
f 245 196 188
f 188 243 245
f 249 218 216
f 216 239 249
f 214 239 216
f 505 497 498
f 461 462 463
f 482 481 483
f 483 484 482
f 483 481 500
f 479 481 478
f 478 476 479
f 474 475 477
f 477 476 474
f 473 475 474
f 233 231 230
f 233 232 231
f 233 84 225
f 233 225 226
f 226 232 233
f 233 230 59
f 59 84 233
f 393 391 394
f 393 381 503
f 395 381 393
f 393 394 395
f 504 389 508
f 389 391 508
f 508 393 503
f 391 393 508
f 383 385 505
f 383 507 382
f 384 386 383
f 386 385 383
f 219 221 383
f 383 229 219
f 383 382 229
f 504 497 509
f 387 389 509
f 509 389 504
f 509 505 387
f 509 497 505
f 255 220 249
f 255 238 220
f 251 252 241
f 251 248 179
f 179 252 251
f 620 655 304
f 656 297 310
f 307 274 306
f 275 114 306
f 306 114 146
f 146 147 306
f 277 615 306
f 306 615 613
f 306 147 277
f 306 613 614
f 81 83 82
f 82 80 81
f 82 83 35
f 265 53 54
f 166 168 265
f 24 234 235
f 109 235 234
f 24 235 109
f 97 85 86
f 97 86 87
f 87 98 97
f 43 103 101
f 112 50 49
f 111 50 112
f 293 40 42
f 42 46 293
f 101 91 102
f 102 43 101
f 92 46 102
f 102 91 92
f 102 46 42
f 42 43 102
f 422 415 525
f 525 420 422
f 573 572 425
f 589 409 414
f 363 398 399
f 363 362 398
f 364 362 363
f 399 400 363
f 351 352 350
f 463 462 464
f 463 464 465
f 465 464 466
f 467 465 468
f 468 465 466
f 466 495 468
f 414 539 538
f 538 537 414
f 612 523 411
f 411 523 410
f 611 612 411
f 411 410 611
f 410 523 522
f 522 409 410
f 539 409 522
f 551 523 612
f 612 608 551
f 547 546 65
f 65 540 547
f 65 520 519
f 535 534 65
f 65 536 535
f 530 541 65
f 65 531 530
f 532 531 65
f 26 268 170
f 170 27 26
f 26 27 268
f 135 153 136
f 153 141 136
f 136 141 137
f 271 135 136
f 136 137 271
f 283 159 284
f 263 168 167
f 167 169 263
f 167 168 166
f 208 169 167
f 167 207 208
f 166 165 167
f 167 165 206
f 206 207 167
f 183 175 184
f 175 185 184
f 184 192 183
f 184 185 192
f 22 21 289
f 22 27 288
f 289 27 22
f 282 21 22
f 288 27 7
f 208 149 156
f 286 287 282
f 286 22 288
f 282 22 286
f 288 7 286
f 286 156 287
f 286 7 27
f 286 27 208
f 208 156 286
f 436 437 529
f 418 573 425
f 420 573 418
f 442 436 559
f 559 441 442
f 452 443 574
f 357 373 374
f 668 405 404
f 347 351 364
f 347 352 351
f 624 471 325
f 451 348 452
f 452 574 451
f 247 245 248
f 239 245 247
f 462 461 486
f 486 497 462
f 486 498 497
f 487 63 488
f 581 487 488
f 581 580 63
f 63 487 581
f 482 484 560
f 560 570 482
f 480 481 482
f 480 478 481
f 482 570 480
f 476 478 568
f 472 62 473
f 473 474 472
f 488 62 472
f 472 474 565
f 506 383 505
f 507 383 506
f 500 507 506
f 505 498 506
f 254 258 238
f 238 255 254
f 257 258 254
f 254 255 249
f 655 620 654
f 310 655 618
f 655 654 618
f 618 654 619
f 667 297 658
f 305 376 304
f 314 376 305
f 276 274 275
f 275 306 276
f 276 306 274
f 614 585 316
f 316 306 614
f 314 306 316
f 110 54 111
f 35 36 37
f 37 82 35
f 37 32 34
f 37 36 32
f 34 54 37
f 54 110 37
f 92 80 93
f 45 46 93
f 93 46 92
f 266 54 267
f 266 265 54
f 267 264 266
f 266 264 166
f 166 265 266
f 53 265 52
f 52 168 263
f 52 265 168
f 104 13 105
f 13 12 105
f 105 100 104
f 99 100 105
f 105 98 99
f 105 106 98
f 226 84 95
f 95 234 226
f 95 109 234
f 95 84 85
f 10 12 13
f 103 43 15
f 49 2 1
f 45 93 47
f 42 40 41
f 41 43 42
f 38 112 48
f 48 290 38
f 111 112 38
f 38 47 111
f 44 46 45
f 44 293 46
f 524 420 525
f 524 573 420
f 537 527 412
f 611 409 610
f 409 589 610
f 321 350 623
f 322 361 321
f 321 623 322
f 351 350 321
f 321 362 351
f 361 362 321
f 323 350 325
f 623 350 323
f 491 490 322
f 322 623 491
f 491 381 490
f 325 471 628
f 628 323 325
f 629 323 628
f 632 631 455
f 471 624 632
f 632 624 631
f 496 497 504
f 462 497 496
f 496 464 462
f 504 508 496
f 496 508 495
f 496 495 466
f 466 464 496
f 467 468 469
f 525 415 526
f 415 412 526
f 526 412 527
f 552 551 608
f 552 608 609
f 518 536 65
f 65 519 518
f 65 534 533
f 533 532 65
f 283 284 160
f 160 156 149
f 160 158 283
f 149 158 160
f 157 160 284
f 287 156 157
f 156 160 157
f 155 159 189
f 155 284 159
f 571 529 437
f 425 572 571
f 559 436 528
f 436 529 528
f 425 571 438
f 438 571 437
f 449 336 335
f 331 442 441
f 645 644 407
f 407 331 645
f 441 557 440
f 449 335 440
f 440 335 333
f 449 440 556
f 556 440 557
f 558 441 559
f 558 557 441
f 577 446 578
f 446 554 578
f 555 554 448
f 448 556 555
f 449 556 448
f 448 336 449
f 445 446 577
f 577 444 445
f 576 444 577
f 443 444 576
f 405 373 371
f 371 404 405
f 373 357 371
f 666 668 403
f 668 404 403
f 348 347 346
f 452 348 346
f 346 345 452
f 349 347 348
f 352 347 349
f 348 451 349
f 349 451 450
f 584 451 574
f 583 450 584
f 450 451 584
f 484 483 485
f 485 461 484
f 485 486 461
f 485 483 498
f 498 486 485
f 564 581 488
f 488 472 564
f 564 472 565
f 63 514 515
f 513 514 63
f 484 461 561
f 561 560 484
f 561 461 463
f 569 480 570
f 478 480 569
f 569 568 478
f 565 474 566
f 499 483 500
f 500 506 499
f 498 483 499
f 499 506 498
f 257 254 253
f 253 254 251
f 253 241 257
f 253 251 241
f 250 254 249
f 249 239 250
f 239 247 250
f 251 254 250
f 248 251 250
f 250 247 248
f 642 656 310
f 310 618 642
f 642 618 619
f 638 658 297
f 667 658 659
f 304 376 375
f 375 377 304
f 315 602 314
f 315 316 585
f 314 316 315
f 314 602 606
f 407 644 427
f 425 407 427
f 427 418 425
f 49 50 51
f 51 52 263
f 50 53 51
f 53 52 51
f 51 170 49
f 51 263 170
f 108 109 96
f 109 95 96
f 85 97 96
f 96 95 85
f 12 10 11
f 11 105 12
f 106 105 11
f 107 8 108
f 107 10 8
f 106 11 107
f 107 11 10
f 108 96 107
f 107 96 97
f 98 106 107
f 107 97 98
f 8 10 9
f 9 10 13
f 24 109 9
f 9 109 108
f 108 8 9
f 9 25 24
f 9 23 25
f 48 3 16
f 94 47 93
f 94 110 111
f 111 47 94
f 82 37 94
f 94 37 110
f 80 82 94
f 94 93 80
f 45 47 291
f 291 44 45
f 293 44 291
f 413 589 414
f 414 537 413
f 537 412 413
f 503 381 492
f 381 491 492
f 627 458 471
f 471 456 627
f 627 456 458
f 455 458 459
f 458 456 459
f 459 456 471
f 563 465 467
f 463 465 563
f 471 458 470
f 470 628 471
f 467 469 457
f 457 543 467
f 458 543 457
f 457 470 458
f 469 470 457
f 494 468 495
f 494 469 468
f 494 508 503
f 495 508 494
f 494 470 469
f 503 492 494
f 609 511 553
f 553 552 609
f 285 155 281
f 284 155 285
f 285 157 284
f 281 287 285
f 287 157 285
f 197 189 198
f 197 155 189
f 198 21 197
f 197 21 282
f 282 281 197
f 281 155 197
f 430 438 439
f 378 375 376
f 377 375 378
f 336 358 334
f 334 335 336
f 358 357 334
f 334 643 644
f 333 335 334
f 332 331 441
f 441 440 332
f 332 440 333
f 332 645 331
f 436 442 329
f 447 554 446
f 447 448 554
f 575 574 443
f 443 576 575
f 372 371 357
f 666 403 402
f 324 454 624
f 324 624 325
f 324 349 450
f 450 454 324
f 325 350 324
f 324 350 352
f 352 349 324
f 521 520 65
f 65 63 521
f 63 515 521
f 63 580 579
f 579 513 63
f 567 474 476
f 567 566 474
f 476 568 567
f 656 642 640
f 297 656 640
f 633 373 406
f 374 373 633
f 633 643 374
f 607 315 585
f 602 315 607
f 607 417 602
f 412 417 586
f 589 413 586
f 586 413 412
f 417 607 586
f 586 610 589
f 614 611 586
f 611 610 586
f 416 412 415
f 416 417 412
f 602 417 416
f 48 16 39
f 39 290 48
f 39 41 290
f 39 16 15
f 39 15 43
f 43 41 39
f 48 112 5
f 289 19 5
f 5 112 49
f 49 1 5
f 5 27 289
f 5 19 23
f 23 9 5
f 5 1 2
f 5 2 268
f 268 27 5
f 14 16 13
f 15 16 14
f 13 103 14
f 103 15 14
f 47 38 292
f 292 291 47
f 292 38 290
f 292 41 40
f 290 41 292
f 40 293 292
f 293 291 292
f 489 492 491
f 489 491 623
f 623 323 489
f 489 323 629
f 460 632 455
f 455 459 460
f 471 632 460
f 460 459 471
f 455 454 582
f 582 545 455
f 582 450 583
f 582 454 450
f 544 458 455
f 455 545 544
f 544 543 458
f 467 543 542
f 542 563 467
f 562 561 463
f 463 563 562
f 470 494 493
f 629 628 493
f 628 470 493
f 493 494 492
f 493 489 629
f 492 489 493
f 426 407 425
f 425 432 433
f 433 434 425
f 644 643 650
f 377 378 379
f 619 654 379
f 379 654 620
f 379 620 304
f 304 377 379
f 359 357 374
f 359 334 357
f 374 643 359
f 643 334 359
f 360 332 333
f 645 332 360
f 333 334 360
f 644 645 360
f 360 334 644
f 442 331 330
f 330 329 442
f 330 331 407
f 328 437 436
f 436 329 328
f 356 357 358
f 356 372 357
f 401 665 666
f 624 454 625
f 625 630 624
f 454 630 625
f 455 631 453
f 453 454 455
f 453 630 454
f 631 624 453
f 624 630 453
f 657 638 297
f 297 640 657
f 657 640 638
f 638 640 637
f 587 607 585
f 587 586 607
f 604 378 376
f 593 378 604
f 604 376 314
f 594 606 602
f 602 601 594
f 314 606 594
f 594 604 314
f 415 422 423
f 4 16 3
f 4 5 16
f 4 3 48
f 48 5 4
f 13 16 294
f 16 5 294
f 294 9 13
f 294 5 9
f 438 430 431
f 425 438 431
f 431 432 425
f 425 434 435
f 599 427 644
f 644 650 599
f 597 378 593
f 597 379 378
f 408 330 407
f 329 330 408
f 408 328 329
f 408 430 439
f 407 426 408
f 408 431 430
f 432 431 408
f 408 426 425
f 425 435 408
f 408 435 434
f 408 433 432
f 434 433 408
f 326 438 437
f 439 438 326
f 326 408 439
f 337 358 336
f 337 356 358
f 336 448 337
f 448 447 337
f 337 447 446
f 337 339 356
f 666 402 367
f 367 401 666
f 365 400 665
f 665 401 365
f 364 363 365
f 365 363 400
f 372 356 370
f 356 339 370
f 371 372 370
f 446 445 338
f 338 337 446
f 339 337 338
f 614 586 588
f 586 587 588
f 588 585 614
f 588 587 585
f 593 604 605
f 605 594 601
f 604 594 605
f 424 416 415
f 415 423 424
f 602 416 424
f 424 601 602
f 424 423 601
f 641 642 619
f 598 592 591
f 598 597 593
f 593 592 598
f 437 328 327
f 327 326 437
f 328 408 327
f 408 326 327
f 369 402 403
f 371 370 369
f 369 367 402
f 404 371 369
f 369 403 404
f 634 635 633
f 634 633 406
f 634 659 658
f 634 406 667
f 667 659 634
f 638 637 636
f 637 635 636
f 635 634 636
f 658 638 636
f 636 634 658
f 590 650 649
f 590 599 650
f 649 591 590
f 601 423 421
f 421 605 601
f 421 422 420
f 421 423 422
f 619 379 595
f 595 641 619
f 647 641 595
f 639 640 642
f 642 641 639
f 639 637 640
f 639 652 637
f 646 647 597
f 597 598 646
f 345 346 354
f 354 346 347
f 354 347 364
f 366 365 401
f 401 367 366
f 643 633 653
f 633 635 653
f 653 650 643
f 653 635 637
f 637 652 653
f 649 650 653
f 653 652 649
f 420 418 429
f 597 647 596
f 647 595 596
f 379 597 596
f 596 595 379
f 647 646 651
f 651 641 647
f 651 639 641
f 652 639 651
f 339 338 340
f 340 341 339
f 340 445 444
f 340 338 445
f 368 370 339
f 339 341 368
f 367 369 368
f 368 369 370
f 368 341 343
f 368 366 367
f 364 365 353
f 353 354 364
f 343 354 353
f 427 599 428
f 418 427 428
f 428 429 418
f 429 428 603
f 593 605 603
f 652 651 648
f 648 591 649
f 649 652 648
f 648 598 591
f 648 646 598
f 648 651 646
f 343 341 342
f 341 340 342
f 342 340 444
f 355 368 343
f 366 368 355
f 343 353 355
f 365 366 355
f 355 353 365
f 429 603 419
f 419 421 420
f 420 429 419
f 605 421 419
f 419 603 605
f 600 592 593
f 593 603 600
f 591 592 600
f 600 590 591
f 599 590 600
f 600 428 599
f 600 603 428
f 443 345 344
f 344 444 443
f 344 342 444
f 343 342 344
f 345 354 344
f 344 354 343
f 210 209 25
f 25 209 24
f 218 220 219
f 219 217 218
f 219 220 222
f 222 221 219
f 626 621 622
f 626 622 322
f 212 209 210
f 212 211 209
f 212 214 213
f 213 211 212
f 213 214 216
f 216 215 213
f 216 218 217
f 217 215 216
f 221 222 383
f 383 222 384
f 306 314 308
f 306 308 307
f 308 314 305
f 304 308 305
f 562 558 559
f 562 540 541
f 512 548 562
f 562 550 516
f 539 522 562
f 562 524 525
f 562 511 512
f 562 538 539
f 562 548 549
f 549 550 562
f 516 517 562
f 546 547 562
f 536 518 562
f 534 535 562
f 562 571 572
f 562 569 570
f 565 566 562
f 562 517 546
f 525 526 562
f 562 519 520
f 541 530 562
f 555 556 562
f 583 584 562
f 577 578 562
f 562 564 565
f 572 573 562
f 537 538 562
f 562 527 537
f 562 522 523
f 523 551 562
f 562 547 540
f 543 544 562
f 562 535 536
f 562 530 531
f 531 532 562
f 562 533 534
f 559 528 562
f 562 554 555
f 562 576 577
f 580 581 562
f 574 575 562
f 570 560 562
f 560 561 562
f 573 524 562
f 520 521 562
f 562 526 527
f 551 552 562
f 562 518 519
f 532 533 562
f 529 571 562
f 562 528 529
f 562 556 557
f 557 558 562
f 562 578 554
f 562 553 511
f 562 584 574
f 581 564 562
f 562 515 514
f 514 513 562
f 562 567 568
f 568 569 562
f 562 579 580
f 562 582 583
f 562 542 543
f 552 553 562
f 562 575 576
f 562 521 515
f 513 579 562
f 566 567 562
f 545 582 562
f 562 544 545
f 563 542 562

