# https://github.com/mikedh/trimesh
v -0.015833099293 0.019584177740 0.048502817094
v -0.018967351206 0.016534628945 0.048502817094
v -0.021524360091 0.012987173648 0.048502817094
v -0.023426579530 0.009049523695 0.048502817094
v -0.024616059268 0.004841428974 0.048502817094
v -0.025056794146 0.000490727509 0.048502817094
v -0.024735335086 -0.003870413641 0.048502817094
v -0.023661433601 -0.008109503877 0.048502817094
v 0.000371436556 0.025232224525 0.048502817094
v -0.003989689692 0.024910756151 0.048502817094
v -0.008228779695 0.023836863980 0.048502817094
v -0.012216968939 0.022043189038 0.048502817094
v -0.021867769836 -0.012097702435 0.048502817094
v -0.019408747361 -0.015713821612 0.048502817094
v -0.016359200429 -0.018848013917 0.048502817094
v -0.012811683661 -0.021405082410 0.048502817094
v -0.008874096110 -0.023307242241 0.048502817094
v -0.004666002787 -0.024496781586 0.048502817094
v -0.000315300303 -0.024937518327 0.048502817094
v -0.012403790055 0.022377178839 0.048426630485
v -0.023784339926 0.009185310027 0.048426630485
v -0.024992000135 0.004913019240 0.048426630485
v -0.025439487494 0.000495965804 0.048426630485
v -0.025113067922 -0.003931690074 0.048426630485
v -0.024022833817 -0.008235454872 0.048426630485
v -0.022201748460 -0.012284513305 0.048426630485
v -0.016609194959 -0.019137830386 0.048426630485
v -0.013007615503 -0.021733882581 0.048426630485
v -0.009009884305 -0.023665064107 0.048426630485
v -0.004737592121 -0.024872724317 0.048426630485
v -0.000320538598 -0.025320209813 0.048426630485
v 0.000381114112 0.025939295868 0.048209899140
v 0.000376674880 0.025614906697 0.048426630485
v -0.004102944160 0.025608767062 0.048209899140
v -0.004050966358 0.025288498301 0.048426630485
v -0.008461549346 0.024504592111 0.048209899140
v -0.008354730690 0.024198264196 0.048426630485
v -0.012562168790 0.022660375084 0.048209899140
v -0.016280225278 0.020132039560 0.048209899140
v -0.016075113788 0.019880664730 0.048426630485
v -0.019502753069 0.016996526564 0.048209899140
v -0.019257108068 0.016784623475 0.048426630485
v -0.022131884036 0.013349055386 0.048209899140
v -0.021853158399 0.013183044950 0.048426630485
v -0.024087687435 0.009300472886 0.048209899140
v -0.025310728399 0.004973759899 0.048209899140
v -0.025763865489 0.000500407074 0.048209899140
v -0.025433345997 -0.003983669273 0.048209899140
v -0.024329161732 -0.008342212988 0.048209899140
v -0.022484944705 -0.012442832432 0.048209899140
v -0.019956609181 -0.016160947597 0.048209899140
v -0.019705243665 -0.015955776499 0.048426630485
v -0.016821107361 -0.019383475388 0.048209899140
v -0.013173625007 -0.022012608217 0.048209899140
v -0.009125047164 -0.023968411617 0.048209899140
v -0.004798332780 -0.025191452581 0.048209899140
v -0.000324976869 -0.025644598984 0.048209899140
v 0.304529374504 0.016111405811 0.048502817094
v 0.301479794042 0.019245607429 0.048502817094
v 0.297932307078 0.021802675922 0.048502817094
v 0.293994655262 0.023704826439 0.048502817094
v 0.289786621081 0.024894365785 0.048502817094
v 0.285435855292 0.025335109977 0.048502817094
v 0.300953663102 -0.019186593542 0.048502817094
v 0.304087857269 -0.016137037296 0.048502817094
v 0.306645015175 -0.012589520528 0.048502817094
v 0.308547199221 -0.008651937634 0.048502817094
v 0.309736678959 -0.004443842913 0.048502817094
v 0.310177391484 -0.000093136806 0.048502817094
v 0.309855895169 0.004267999935 0.048502817094
v 0.308782025351 0.008507089938 0.048502817094
v 0.306988328056 0.012495285702 0.048502817094
v 0.284749140117 -0.024834642189 0.048502817094
v 0.289110277716 -0.024513173815 0.048502817094
v 0.293349337916 -0.023439270468 0.048502817094
v 0.297337656621 -0.021645606702 0.048502817094
v 0.310560015911 -0.000098371914 0.048426630485
v 0.309143339880 0.008633040933 0.048426630485
v 0.298128209115 0.022131474230 0.048426630485
v 0.294130472329 0.024062657620 0.048426630485
v 0.304377671876 -0.016387041140 0.048426630485
v 0.308904937264 -0.008787723966 0.048426630485
v 0.283472155681 -0.032906591097 0.047202700988
v 0.286418524709 -0.032431272341 0.047202700988
v 0.310112597474 -0.004515433179 0.048426630485
v 0.310884433023 -0.000102816967 0.048209899140
v 0.310553935884 0.004381254403 0.048209899140
v 0.310233721143 0.004329276135 0.048426630485
v 0.309449755345 0.008739799049 0.048209899140
v 0.307605569984 0.012840415699 0.048209899140
v 0.307322342073 0.012682096572 0.048426630485
v 0.305077202794 0.016558531795 0.048209899140
v 0.304825805610 0.016353358835 0.048426630485
v 0.301941727052 0.019781068900 0.048209899140
v 0.301729820239 0.019535414585 0.048426630485
v 0.298294217688 0.022410201729 0.048209899140
v 0.294245694796 0.024366005129 0.048209899140
v 0.289918921270 0.025589034916 0.048209899140
v 0.289858240219 0.025270317829 0.048426630485
v 0.285445571413 0.026042181320 0.048209899140
v 0.285441071002 0.025717792149 0.048426630485
v 0.293475349450 -0.023800681860 0.048426630485
v 0.297524379010 -0.021979585327 0.048426630485
v 0.301400783498 -0.019734446048 0.048209899140
v 0.301195672009 -0.019483080531 0.048426630485
v 0.304623376485 -0.016598944228 0.048209899140
v 0.307252540982 -0.012951461873 0.048209899140
v 0.306973724070 -0.012785391830 0.048426630485
v 0.309208253107 -0.008902886825 0.048209899140
v 0.310431322012 -0.004576173838 0.048209899140
v 0.291856333707 -0.029829320808 0.047126573987
v 0.292075065649 -0.030068826174 0.046909783034
v 0.289362688237 -0.031625314878 0.047126573987
v 0.286522838893 -0.032799475332 0.047126573987
v 0.283488965167 -0.033288913758 0.047126573987
v 0.288646169010 -0.038987813707 0.033522756354
v 0.223518681202 -0.064601230201 0.013451870985
v 0.286256509880 -0.040338592977 0.030187861697
v 0.286256420467 -0.040338291211 0.040352951079
v 0.285971314901 -0.040467339033 0.039971220774
v 0.235468765096 -0.063192809893 0.014885214000
v 0.229602135390 -0.064816951933 0.000000000000
v 0.231424832028 -0.064516236494 0.014070726989
v 0.288288639595 -0.039228269077 0.042276866005
v 0.288219523997 -0.039267729643 0.042382368626
v 0.288252636300 -0.039251698788 0.042262671825
v 0.289634918453 -0.038217669538 0.042853097558
v 0.289819226714 -0.038085760526 0.042500515616
v 0.290218153958 -0.037734791729 0.042502717390
v 0.287850818063 -0.039401367289 0.042900899532
v 0.287161778172 -0.039893797296 0.041471377956
v 0.287123479964 -0.038553147679 0.044358734959
v 0.290134643003 -0.037643107012 0.043194707883
v 0.288755371058 -0.038878008126 0.042928322986
v 0.289269401553 -0.038368358827 0.043384377148
v 0.288024724710 -0.038596300221 0.044182235360
v 0.287986515914 -0.038973083054 0.043836333252
v 0.288256630043 -0.038204619088 0.044307833363
v 0.288471934518 -0.038306962479 0.044175205329
v 0.287460474387 -0.039416686572 0.043330796912
v 0.287048671793 -0.039314462397 0.043672645669
v 0.287780003634 -0.038918537912 0.044004662815
v 0.286876344761 -0.038861615897 0.044170853938
v 0.287348888014 -0.038710505625 0.044267359460
v 0.287807810815 -0.038485492479 0.044308492778
v 0.287567500739 -0.038831394588 0.044148683448
v 0.286835155560 -0.039221768068 0.043812493735
v 0.286617049503 -0.039103870687 0.043933371521
v 0.288882276714 -0.038401269952 0.043827455369
v 0.288382134908 -0.038986792918 0.043428192830
v 0.288680264846 -0.038371339233 0.044014203837
v 0.288187335621 -0.038995674526 0.043644033779
v 0.306338897751 -0.023008246123 0.042502415624
v 0.283652380787 0.031719082152 0.042502415624
v 0.316474957986 0.002990120679 0.042502415624
v 0.312356634003 -0.015530411198 0.042502415624
v 0.316526071936 -0.001822874764 0.042502415624
v 0.315843231288 -0.006587529198 0.042502415624
v 0.314193040505 0.012313474462 0.042502415624
v 0.312015526621 0.016606093475 0.042502415624
v 0.309209445269 0.020516811741 0.042502415624
v 0.301986939800 0.026838668546 0.042502415624
v 0.305840365364 0.023954470772 0.042502415624
v 0.288463350951 0.031571194444 0.042502415624
v 0.293195727829 0.030691971168 0.042502415624
v 0.223546071126 -0.064457038195 0.014203834682
v 0.223624485588 -0.064045749720 0.014845451668
v 0.231265425053 -0.064391290455 0.014832760730
v 0.235221659696 -0.063120862910 0.015660949223
v 0.231066021039 -0.063981723164 0.015476348510
v 0.306158165976 -0.022810404959 0.043502524137
v 0.305943755622 -0.022575729712 0.043916740860
v 0.288356443815 0.030576864191 0.044234578727
v 0.297337447993 0.028186165645 0.044234578727
v 0.305181725606 0.023201916582 0.044234578727
v 0.311160865610 0.016086854722 0.044234578727
v 0.315528202452 -0.001757067998 0.044234578727
v 0.314867088958 -0.006370497018 0.044234578727
v 0.311491183925 -0.015029462820 0.044234578727
v 0.308855134692 -0.018872876085 0.044234578727
v 0.283698070400 0.030720102468 0.044234578727
v 0.288434739061 0.031304738763 0.043502524137
v 0.292938518855 0.029725606430 0.044234578727
v 0.293126820859 0.030433037284 0.043502524137
v 0.301450496658 0.025994548855 0.044234578727
v 0.301843224659 0.026612515395 0.043502524137
v 0.305663835960 0.023752809101 0.043502524137
v 0.308443898375 0.019873454012 0.044234578727
v 0.309004333779 0.020344421376 0.043502524137
v 0.313269174484 0.011930502631 0.044234578727
v 0.313945517849 0.012210838618 0.043502524137
v 0.314719767526 0.007501441597 0.044234578727
v 0.315430922024 0.007675496798 0.043502524137
v 0.315478727725 0.002903152453 0.044234578727
v 0.316208062695 0.002966814142 0.043502524137
v 0.313510795938 -0.010829298772 0.044234578727
v 0.312124728670 -0.015396173746 0.043502524137
v 0.309425465042 -0.019331852906 0.043502524137
v 0.283664570645 0.031451434309 0.043502524137
v 0.297631375559 0.028856695356 0.043502524137
v 0.297738878777 0.029102100062 0.042502415624
v 0.311786512282 0.016466916001 0.043502524137
v 0.315691230619 0.007739218328 0.042502415624
v 0.316258669976 -0.001805230765 0.043502524137
v 0.315581730530 -0.006529352153 0.043502524137
v 0.314192951093 -0.011095214254 0.043502524137
v 0.314442560033 -0.011192549633 0.042502415624
v 0.309634272234 -0.019499891880 0.042502415624
v -0.021926003229 -0.022444293840 0.042502415624
v -0.025332131434 -0.018540206976 0.042502415624
v -0.007153330263 0.030819649866 0.042502415624
v -0.002028641710 0.031581923903 0.042502415624
v -0.024423517637 0.020008941372 0.042502415624
v -0.016686568142 0.026849098101 0.042502415624
v -0.012083751344 0.029227696203 0.042502415624
v -0.031464965349 0.000889641655 0.042502415624
v -0.029532654994 0.011034290114 0.042502415624
v -0.028052228095 -0.014130570732 0.042502415624
v -0.030012792692 -0.009334747546 0.042502415624
v -0.013440370346 -0.028330054022 0.042502415624
v -0.008590422069 -0.030152581150 0.042502415624
v -0.003507340672 -0.031155418597 0.042502415624
v -0.003395098145 -0.030161701190 0.044234578727
v -0.008316820867 -0.029190623687 0.044234578727
v -0.013012805133 -0.027426041225 0.044234578727
v -0.017356026771 -0.024915526662 0.044234578727
v -0.021229061538 -0.021727090982 0.044234578727
v -0.024527004758 -0.017946921917 0.044234578727
v -0.027160787020 -0.013677314426 0.044234578727
v -0.029059126344 -0.009033727547 0.044234578727
v -0.029934948233 0.005854528795 0.044234578727
v -0.028594240870 0.010688680458 0.044234578727
v -0.026479287555 0.015237614323 0.044234578727
v -0.020174830728 0.022999005004 0.044234578727
v -0.016155938653 0.026001409376 0.044234578727
v -0.011699279066 0.028304484008 0.044234578727
v -0.006925328795 0.029845953332 0.044234578727
v -0.001963371068 0.030584015301 0.044234578727
v 0.001619134028 -0.030312859894 0.044234578727
v 0.001657343173 -0.031043951440 0.043502524137
v -0.008517103168 -0.029894835703 0.043502524137
v -0.017773281644 -0.025517091659 0.043502524137
v -0.021739252898 -0.022252121035 0.043502524137
v -0.025116407839 -0.018381226571 0.043502524137
v -0.030170580935 -0.004141809576 0.044234578727
v -0.030895413630 -0.004244752308 0.043502524137
v -0.030465218210 0.000866077302 0.044234578727
v -0.031197090250 0.000883327271 0.043502524137
v -0.030654120021 0.005991507755 0.043502524137
v -0.029281229869 0.010941655393 0.043502524137
v -0.027115484860 0.015599855572 0.043502524137
v -0.023647302755 0.019378414287 0.044234578727
v -0.024215544958 0.019840012002 0.043502524137
v -0.020659750115 0.023547457316 0.043502524137
v -0.011980745744 0.028980322566 0.043502524137
v -0.007092231489 0.030558743327 0.043502524137
v -0.002011117859 0.031314577826 0.043502524137
v -0.003477237881 -0.030889152917 0.043502524137
v -0.013325803568 -0.028087810408 0.043502524137
v -0.017926001335 -0.025737283999 0.042502415624
v -0.027813374692 -0.014009153679 0.043502524137
v -0.029757258334 -0.009254097780 0.043502524137
v -0.031160729306 -0.004282484704 0.042502415624
v -0.030917345688 0.006041638637 0.042502415624
v -0.027348368139 0.015732423067 0.042502415624
v -0.020837259326 0.023748219277 0.042502415624
v -0.016544400949 0.026621985633 0.043502524137
v -0.012216968939 0.022043189038 -0.048502817094
v -0.008228779695 0.023836863980 -0.048502817094
v -0.003989689692 0.024910756151 -0.048502817094
v 0.000371436556 0.025232224525 -0.048502817094
v -0.021867769836 -0.012097702435 -0.048502817094
v -0.023661433601 -0.008109503877 -0.048502817094
v -0.024735335086 -0.003870413641 -0.048502817094
v -0.025056794146 0.000490727509 -0.048502817094
v -0.024616059268 0.004841428974 -0.048502817094
v -0.023426579530 0.009049523695 -0.048502817094
v -0.021524360091 0.012987173648 -0.048502817094
v -0.018967351206 0.016534628945 -0.048502817094
v -0.015833099293 0.019584177740 -0.048502817094
v -0.000315300303 -0.024937518327 -0.048502817094
v -0.004666002787 -0.024496781586 -0.048502817094
v -0.008874096110 -0.023307242241 -0.048502817094
v -0.012811683661 -0.021405082410 -0.048502817094
v -0.016359200429 -0.018848013917 -0.048502817094
v -0.019408747361 -0.015713821612 -0.048502817094
v -0.000320538598 -0.025320209813 -0.048426630485
v -0.009009884305 -0.023665064107 -0.048426630485
v -0.013007615503 -0.021733882581 -0.048426630485
v -0.024992000135 0.004913019240 -0.048426630485
v -0.023784339926 0.009185310027 -0.048426630485
v -0.021853158399 0.013183044950 -0.048426630485
v -0.012403790055 0.022377178839 -0.048426630485
v -0.008354730690 0.024198264196 -0.048426630485
v 0.000376674880 0.025614906697 -0.048426630485
v -0.000324976869 -0.025644598984 -0.048209899140
v -0.004798332780 -0.025191452581 -0.048209899140
v -0.004737592121 -0.024872724317 -0.048426630485
v -0.009125047164 -0.023968411617 -0.048209899140
v -0.013173625007 -0.022012608217 -0.048209899140
v -0.016821107361 -0.019383475388 -0.048209899140
v -0.016609194959 -0.019137830386 -0.048426630485
v -0.019956609181 -0.016160947597 -0.048209899140
v -0.019705243665 -0.015955776499 -0.048426630485
v -0.022484944705 -0.012442832432 -0.048209899140
v -0.022201748460 -0.012284513305 -0.048426630485
v -0.024329161732 -0.008342212988 -0.048209899140
v -0.024022833817 -0.008235454872 -0.048426630485
v -0.025433345997 -0.003983669273 -0.048209899140
v -0.025113067922 -0.003931690074 -0.048426630485
v -0.025763865489 0.000500407074 -0.048209899140
v -0.025439487494 0.000495965804 -0.048426630485
v -0.025310728399 0.004973759899 -0.048209899140
v -0.024087687435 0.009300472886 -0.048209899140
v -0.022131884036 0.013349055386 -0.048209899140
v -0.019502753069 0.016996526564 -0.048209899140
v -0.019257108068 0.016784623475 -0.048426630485
v -0.016280225278 0.020132039560 -0.048209899140
v -0.016075113788 0.019880664730 -0.048426630485
v -0.012562168790 0.022660375084 -0.048209899140
v -0.008461549346 0.024504592111 -0.048209899140
v -0.004102944160 0.025608767062 -0.048209899140
v -0.004050966358 0.025288498301 -0.048426630485
v 0.000381114112 0.025939295868 -0.048209899140
v 0.306988328056 0.012495285702 -0.048502817094
v 0.308782025351 0.008507089938 -0.048502817094
v 0.309855895169 0.004267999935 -0.048502817094
v 0.310177391484 -0.000093136806 -0.048502817094
v 0.309736678959 -0.004443842913 -0.048502817094
v 0.308547199221 -0.008651937634 -0.048502817094
v 0.306645015175 -0.012589520528 -0.048502817094
v 0.304087857269 -0.016137037296 -0.048502817094
v 0.285435855292 0.025335109977 -0.048502817094
v 0.289786621081 0.024894365785 -0.048502817094
v 0.293994655262 0.023704826439 -0.048502817094
v 0.297932307078 0.021802675922 -0.048502817094
v 0.301479794042 0.019245607429 -0.048502817094
v 0.304529374504 0.016111405811 -0.048502817094
v 0.300953663102 -0.019186593542 -0.048502817094
v 0.297337656621 -0.021645606702 -0.048502817094
v 0.293349337916 -0.023439270468 -0.048502817094
v 0.289110277716 -0.024513173815 -0.048502817094
v 0.284749140117 -0.024834642189 -0.048502817094
v 0.308904937264 -0.008787723966 -0.048426630485
v 0.304377671876 -0.016387041140 -0.048426630485
v 0.297524379010 -0.021979585327 -0.048426630485
v 0.293475349450 -0.023800681860 -0.048426630485
v 0.285441071002 0.025717792149 -0.048426630485
v 0.289858240219 0.025270317829 -0.048426630485
v 0.294130472329 0.024062657620 -0.048426630485
v 0.304825805610 0.016353358835 -0.048426630485
v 0.307322342073 0.012682096572 -0.048426630485
v 0.310233721143 0.004329276135 -0.048426630485
v 0.283472155681 -0.032906591097 -0.047202700988
v 0.286418524709 -0.032431272341 -0.047202700988
v 0.310112597474 -0.004515433179 -0.048426630485
v 0.309208253107 -0.008902886825 -0.048209899140
v 0.307252540982 -0.012951461873 -0.048209899140
v 0.306973724070 -0.012785391830 -0.048426630485
v 0.304623376485 -0.016598944228 -0.048209899140
v 0.301400783498 -0.019734446048 -0.048209899140
v 0.301195672009 -0.019483080531 -0.048426630485
v 0.285445571413 0.026042181320 -0.048209899140
v 0.289918921270 0.025589034916 -0.048209899140
v 0.294245694796 0.024366005129 -0.048209899140
v 0.298294217688 0.022410201729 -0.048209899140
v 0.298128209115 0.022131474230 -0.048426630485
v 0.301941727052 0.019781068900 -0.048209899140
v 0.301729820239 0.019535414585 -0.048426630485
v 0.305077202794 0.016558531795 -0.048209899140
v 0.307605569984 0.012840415699 -0.048209899140
v 0.309449755345 0.008739799049 -0.048209899140
v 0.309143339880 0.008633040933 -0.048426630485
v 0.310553935884 0.004381254403 -0.048209899140
v 0.310884433023 -0.000102816967 -0.048209899140
v 0.310560015911 -0.000098371914 -0.048426630485
v 0.310431322012 -0.004576173838 -0.048209899140
v 0.291856333707 -0.029829320808 -0.047126573987
v 0.292075065649 -0.030068826174 -0.046909783034
v 0.283488965167 -0.033288913758 -0.047126573987
v 0.286522838893 -0.032799475332 -0.047126573987
v 0.289362688237 -0.031625314878 -0.047126573987
v 0.288646169010 -0.038987813707 -0.033522756354
v 0.223518681202 -0.064601230201 -0.013451870985
v 0.286256420467 -0.040338291211 -0.040352951079
v 0.285971314901 -0.040466929227 -0.039971041950
v 0.286256509880 -0.040338592977 -0.030187861697
v 0.235468765096 -0.063192809893 -0.014885214000
v 0.272249409886 -0.046641967543 -0.025067225564
v 0.231426739488 -0.064515878845 -0.014071026892
v 0.287123479964 -0.038553147679 -0.044358734959
v 0.290134643003 -0.037643107012 -0.043194707883
v 0.290218153958 -0.037734791729 -0.042502717390
v 0.289733510259 -0.038158243982 -0.042498608157
v 0.288239135064 -0.039260159414 -0.042256543367
v 0.288219523997 -0.039267729643 -0.042382368626
v 0.288289444305 -0.039227557506 -0.042276504631
v 0.287850818063 -0.039401367289 -0.042900839924
v 0.287161778172 -0.039893797296 -0.041471377956
v 0.288256630043 -0.038204619088 -0.044307833363
v 0.288471934518 -0.038306962479 -0.044175205329
v 0.287348888014 -0.038710505625 -0.044267359460
v 0.287807810815 -0.038485492479 -0.044308492778
v 0.287567500739 -0.038831394588 -0.044148683448
v 0.288024724710 -0.038596300221 -0.044182235360
v 0.287986515914 -0.038973083054 -0.043836333252
v 0.287460474387 -0.039416686572 -0.043330796912
v 0.287780003634 -0.038918537912 -0.044004662815
v 0.287048671793 -0.039314462397 -0.043672645669
v 0.286876344761 -0.038861615897 -0.044170853938
v 0.286617049503 -0.039103870687 -0.043933371521
v 0.286835155560 -0.039221768068 -0.043812493735
v 0.288882276714 -0.038401269952 -0.043827455369
v 0.289269401553 -0.038368358827 -0.043384377148
v 0.289634918453 -0.038217669538 -0.042853097558
v 0.288680264846 -0.038371339233 -0.044014203837
v 0.288187335621 -0.038995674526 -0.043644033779
v 0.288382134908 -0.038986792918 -0.043428192830
v 0.288755371058 -0.038878008126 -0.042928322986
v 0.306338897751 -0.023008246123 -0.042502415624
v 0.283652380787 0.031719082152 -0.042502415624
v 0.288463350951 0.031571194444 -0.042502415624
v 0.293195727829 0.030691971168 -0.042502415624
v 0.305840365364 0.023954470772 -0.042502415624
v 0.301986939800 0.026838668546 -0.042502415624
v 0.312015526621 0.016606093475 -0.042502415624
v 0.309209445269 0.020516811741 -0.042502415624
v 0.315691230619 0.007739218328 -0.042502415624
v 0.314193040505 0.012313474462 -0.042502415624
v 0.315843231288 -0.006587529198 -0.042502415624
v 0.316526071936 -0.001822874764 -0.042502415624
v 0.316474957986 0.002990120679 -0.042502415624
v 0.312356634003 -0.015530411198 -0.042502415624
v 0.309634272234 -0.019499891880 -0.042502415624
v 0.223624485588 -0.064045749720 -0.014845451668
v 0.223546071126 -0.064457038195 -0.014203834682
v 0.231067809283 -0.063981365516 -0.015476638168
v 0.231267228198 -0.064390940257 -0.014833051320
v 0.235221659696 -0.063120862910 -0.015660949223
v 0.305943755622 -0.022575729712 -0.043916740860
v 0.306158165976 -0.022810404959 -0.043502464529
v 0.308855134692 -0.018872876085 -0.044234578727
v 0.309425465042 -0.019331852906 -0.043502464529
v 0.313510795938 -0.010829298772 -0.044234578727
v 0.314867088958 -0.006370497018 -0.044234578727
v 0.315478727725 0.002903152453 -0.044234578727
v 0.314719767526 0.007501441597 -0.044234578727
v 0.313269174484 0.011930502631 -0.044234578727
v 0.311160865610 0.016086854722 -0.044234578727
v 0.308443898375 0.019873454012 -0.044234578727
v 0.305181725606 0.023201916582 -0.044234578727
v 0.292938518855 0.029725606430 -0.044234578727
v 0.283698070400 0.030720102468 -0.044234578727
v 0.311491183925 -0.015029462820 -0.044234578727
v 0.315581730530 -0.006529352153 -0.043502464529
v 0.315528202452 -0.001757067998 -0.044234578727
v 0.315430922024 0.007675496798 -0.043502464529
v 0.313945517849 0.012210838618 -0.043502464529
v 0.309004333779 0.020344421376 -0.043502464529
v 0.305663835960 0.023752809101 -0.043502464529
v 0.301450496658 0.025994548855 -0.044234578727
v 0.301843224659 0.026612515395 -0.043502464529
v 0.297337447993 0.028186165645 -0.044234578727
v 0.297631375559 0.028856695356 -0.043502464529
v 0.288356443815 0.030576864191 -0.044234578727
v 0.288434739061 0.031304738763 -0.043502464529
v 0.283664570645 0.031451434309 -0.043502464529
v 0.312124728670 -0.015396173746 -0.043502464529
v 0.314192951093 -0.011095214254 -0.043502464529
v 0.314442560033 -0.011192549633 -0.042502415624
v 0.316258669976 -0.001805230765 -0.043502464529
v 0.316208062695 0.002966814142 -0.043502464529
v 0.311786512282 0.016466916001 -0.043502464529
v 0.297738878777 0.029102100062 -0.042502415624
v 0.293126820859 0.030433037284 -0.043502464529
v -0.013440370346 -0.028330054022 -0.042502415624
v -0.008590422069 -0.030152581150 -0.042502415624
v -0.003507340672 -0.031155418597 -0.042502415624
v -0.017926001335 -0.025737283999 -0.042502415624
v -0.021926003229 -0.022444293840 -0.042502415624
v -0.025332131434 -0.018540206976 -0.042502415624
v -0.028052228095 -0.014130570732 -0.042502415624
v -0.030012792692 -0.009334747546 -0.042502415624
v -0.029532654994 0.011034290114 -0.042502415624
v -0.030917345688 0.006041638637 -0.042502415624
v -0.031464965349 0.000889641655 -0.042502415624
v -0.012083751344 0.029227696203 -0.042502415624
v -0.016686568142 0.026849098101 -0.042502415624
v -0.020837259326 0.023748219277 -0.042502415624
v -0.024423517637 0.020008941372 -0.042502415624
v -0.007153330263 0.030819649866 -0.042502415624
v -0.002028641710 0.031581923903 -0.042502415624
v -0.001963371068 0.030584015301 -0.044234578727
v -0.011699279066 0.028304484008 -0.044234578727
v -0.020174830728 0.022999005004 -0.044234578727
v -0.023647302755 0.019378414287 -0.044234578727
v -0.029934948233 0.005854528795 -0.044234578727
v -0.029059126344 -0.009033727547 -0.044234578727
v -0.024527004758 -0.017946921917 -0.044234578727
v -0.021229061538 -0.021727090982 -0.044234578727
v -0.008316820867 -0.029190623687 -0.044234578727
v -0.002011117859 0.031314577826 -0.043502464529
v -0.006925328795 0.029845953332 -0.044234578727
v -0.007092231489 0.030558743327 -0.043502464529
v -0.016155938653 0.026001409376 -0.044234578727
v -0.016544400949 0.026621985633 -0.043502464529
v -0.020659750115 0.023547457316 -0.043502464529
v -0.024215544958 0.019840012002 -0.043502464529
v -0.026479287555 0.015237614323 -0.044234578727
v -0.027115484860 0.015599855572 -0.043502464529
v -0.028594240870 0.010688680458 -0.044234578727
v -0.029281229869 0.010941655393 -0.043502464529
v -0.030465218210 0.000866077302 -0.044234578727
v -0.030170580935 -0.004141809576 -0.044234578727
v -0.030895413630 -0.004244752308 -0.043502464529
v -0.027160787020 -0.013677314426 -0.044234578727
v -0.027813374692 -0.014009153679 -0.043502464529
v -0.021739252898 -0.022252121035 -0.043502464529
v -0.017356026771 -0.024915526662 -0.044234578727
v -0.017773281644 -0.025517091659 -0.043502464529
v -0.013012805133 -0.027426041225 -0.044234578727
v -0.008517103168 -0.029894835703 -0.043502464529
v -0.003395098145 -0.030161701190 -0.044234578727
v -0.003477237881 -0.030889152917 -0.043502464529
v 0.001619134028 -0.030312859894 -0.044234578727
v -0.011980745744 0.028980322566 -0.043502464529
v -0.027348368139 0.015732423067 -0.042502415624
v -0.030654120021 0.005991507755 -0.043502464529
v -0.031197090250 0.000883327271 -0.043502464529
v -0.031160729306 -0.004282484704 -0.042502415624
v -0.029757258334 -0.009254097780 -0.043502464529
v -0.025116407839 -0.018381226571 -0.043502464529
v -0.013325803568 -0.028087810408 -0.043502464529
v 0.001657343173 -0.031043951440 -0.043502464529
f 121 390 388
f 388 399 385
f 467 502 421
f 119 121 120
f 120 121 388
f 369 336 367
f 123 117 122
f 122 390 123
f 390 121 123
f 387 385 399
f 402 380 381
f 398 399 388
f 388 390 439
f 439 398 388
f 407 398 439
f 433 469 470
f 462 424 460
f 425 424 462
f 324 295 322
f 363 324 453
f 31 57 143
f 132 115 31
f 144 115 132
f 31 143 132
f 132 143 144
f 49 229 50
f 31 115 83
f 83 19 31
f 73 19 83
f 369 351 338
f 352 325 338
f 338 351 352
f 422 467 421
f 117 123 168
f 438 439 390
f 438 409 407
f 407 439 438
f 354 343 342
f 119 120 118
f 120 387 118
f 389 120 388
f 400 382 378
f 403 400 405
f 382 400 403
f 403 402 381
f 381 382 403
f 417 398 407
f 410 402 404
f 404 403 405
f 402 403 404
f 157 155 195
f 203 195 155
f 468 433 434
f 469 433 468
f 144 143 146
f 131 121 119
f 119 118 131
f 451 460 450
f 462 460 451
f 450 460 459
f 424 427 459
f 459 460 424
f 459 449 450
f 459 473 449
f 459 427 426
f 426 473 459
f 270 295 271
f 324 322 493
f 453 324 493
f 502 467 493
f 493 467 453
f 323 295 270
f 323 322 295
f 465 363 453
f 453 467 465
f 348 295 324
f 324 363 348
f 333 271 348
f 348 271 295
f 348 334 333
f 281 343 354
f 170 148 240
f 240 258 170
f 43 42 41
f 41 42 39
f 173 181 100
f 173 183 182
f 257 154 212
f 421 502 492
f 100 181 32
f 32 181 238
f 50 26 25
f 25 49 50
f 25 26 13
f 56 57 31
f 224 56 55
f 50 229 228
f 13 26 52
f 15 27 28
f 28 16 15
f 28 55 29
f 367 336 350
f 370 351 369
f 450 449 370
f 449 371 370
f 370 371 352
f 352 351 370
f 336 369 337
f 369 338 337
f 461 463 462
f 462 451 461
f 464 425 462
f 462 463 464
f 464 463 452
f 117 168 166
f 166 168 170
f 141 168 140
f 170 168 141
f 140 168 169
f 169 123 121
f 169 168 123
f 409 438 437
f 437 436 435
f 438 436 437
f 331 344 359
f 344 358 359
f 386 387 120
f 120 389 386
f 385 387 386
f 388 385 386
f 386 389 388
f 361 379 378
f 409 404 408
f 408 404 405
f 405 400 401
f 401 361 440
f 379 361 401
f 378 379 401
f 401 400 378
f 415 419 414
f 195 203 193
f 330 344 331
f 205 158 157
f 207 158 205
f 443 468 434
f 440 442 443
f 442 358 454
f 454 443 442
f 468 443 454
f 444 469 454
f 469 468 454
f 146 141 142
f 121 131 130
f 130 169 121
f 140 169 130
f 130 131 125
f 127 153 133
f 133 135 127
f 151 149 172
f 182 183 184
f 184 165 164
f 184 164 182
f 503 493 322
f 502 493 503
f 467 422 466
f 466 465 467
f 452 465 466
f 364 348 363
f 363 465 364
f 364 465 452
f 263 262 246
f 49 25 48
f 117 166 222
f 222 166 258
f 259 220 221
f 221 222 258
f 260 220 259
f 354 380 287
f 287 281 354
f 148 143 239
f 239 240 148
f 239 143 57
f 42 43 44
f 45 43 233
f 45 44 43
f 40 39 42
f 199 173 182
f 181 173 199
f 154 257 199
f 238 181 199
f 199 257 238
f 164 154 199
f 182 164 199
f 211 257 212
f 34 32 238
f 33 32 34
f 98 173 100
f 183 173 98
f 144 146 145
f 56 224 223
f 57 56 223
f 223 239 57
f 258 240 223
f 240 239 223
f 225 224 55
f 28 27 53
f 51 26 50
f 51 52 26
f 50 228 51
f 27 52 51
f 51 53 27
f 13 52 14
f 14 52 27
f 27 15 14
f 17 16 28
f 28 29 17
f 448 371 449
f 335 350 336
f 334 350 335
f 367 350 365
f 452 463 365
f 365 364 452
f 368 370 369
f 368 461 451
f 368 451 450
f 450 370 368
f 368 369 367
f 425 464 474
f 170 258 167
f 167 166 170
f 258 166 167
f 147 141 146
f 147 143 148
f 147 146 143
f 147 148 170
f 170 141 147
f 478 436 384
f 384 390 122
f 384 438 390
f 384 436 438
f 409 437 412
f 410 404 412
f 412 404 409
f 342 341 355
f 355 341 381
f 354 342 355
f 355 380 354
f 381 380 355
f 347 341 340
f 340 346 347
f 347 346 382
f 347 382 381
f 381 341 347
f 360 442 440
f 440 361 360
f 360 358 442
f 362 361 378
f 378 382 362
f 382 346 362
f 362 346 340
f 362 360 361
f 129 153 127
f 399 398 396
f 398 419 396
f 396 419 397
f 407 409 406
f 409 408 406
f 406 417 407
f 406 408 405
f 116 124 383
f 383 124 397
f 392 420 415
f 415 414 392
f 440 443 441
f 420 392 441
f 441 392 414
f 434 420 441
f 441 443 434
f 418 414 419
f 398 417 418
f 418 419 398
f 204 205 157
f 177 205 204
f 157 195 204
f 195 177 204
f 395 131 399
f 399 396 395
f 395 396 397
f 134 130 125
f 127 135 134
f 125 124 134
f 137 149 151
f 137 141 140
f 137 142 141
f 171 149 135
f 171 172 149
f 135 133 171
f 171 133 153
f 171 153 208
f 160 161 189
f 189 161 163
f 187 189 163
f 475 464 452
f 452 466 475
f 475 466 422
f 334 348 349
f 348 364 349
f 349 350 334
f 349 365 350
f 364 365 349
f 49 48 230
f 229 49 230
f 246 262 230
f 46 231 247
f 231 249 247
f 41 39 234
f 39 235 234
f 241 221 258
f 258 223 241
f 241 223 224
f 259 221 241
f 241 225 259
f 224 225 241
f 243 260 242
f 242 260 259
f 259 225 242
f 242 225 226
f 380 402 391
f 391 287 380
f 391 402 410
f 410 287 391
f 312 274 310
f 232 45 233
f 232 249 231
f 232 231 46
f 46 45 232
f 491 492 502
f 237 34 238
f 238 257 237
f 36 237 236
f 34 237 36
f 183 98 97
f 97 174 183
f 79 97 80
f 165 184 200
f 200 184 183
f 183 174 200
f 139 104 112
f 151 172 139
f 172 104 139
f 146 142 136
f 136 145 146
f 151 139 136
f 136 137 151
f 142 137 136
f 156 197 208
f 207 205 206
f 206 156 207
f 197 156 206
f 179 197 206
f 229 230 261
f 261 230 262
f 22 45 46
f 226 225 54
f 28 53 54
f 54 53 226
f 54 55 28
f 54 225 55
f 226 53 227
f 243 242 227
f 227 242 226
f 53 51 227
f 227 51 228
f 76 102 103
f 103 105 76
f 114 115 144
f 144 145 114
f 106 104 172
f 172 180 106
f 81 105 106
f 106 105 104
f 30 56 31
f 55 56 30
f 30 29 55
f 371 448 372
f 372 448 447
f 449 473 458
f 458 448 449
f 426 429 458
f 458 473 426
f 445 469 444
f 367 365 366
f 366 365 463
f 463 461 366
f 366 368 367
f 461 368 366
f 411 412 437
f 437 534 411
f 410 412 411
f 339 362 340
f 360 362 345
f 345 339 332
f 362 339 345
f 345 332 331
f 331 359 345
f 345 359 358
f 358 360 345
f 128 129 127
f 127 134 128
f 128 124 116
f 128 134 124
f 415 420 393
f 129 128 393
f 413 441 414
f 440 441 413
f 417 406 413
f 413 418 417
f 414 418 413
f 203 159 191
f 191 193 203
f 191 190 193
f 191 159 160
f 195 193 194
f 194 177 195
f 131 395 126
f 125 131 126
f 126 124 125
f 397 124 126
f 126 395 397
f 140 130 152
f 152 137 140
f 149 137 152
f 198 171 208
f 208 197 198
f 198 180 172
f 172 171 198
f 198 197 179
f 179 180 198
f 189 187 188
f 423 475 422
f 423 474 464
f 464 475 423
f 264 216 248
f 248 249 264
f 248 247 249
f 246 247 248
f 216 263 248
f 248 263 246
f 217 264 250
f 264 249 250
f 249 232 250
f 250 265 217
f 245 247 246
f 246 230 245
f 245 230 48
f 236 237 255
f 255 211 215
f 507 506 495
f 489 506 507
f 487 506 488
f 488 506 489
f 526 506 487
f 487 491 526
f 267 214 266
f 267 234 235
f 267 235 236
f 236 255 267
f 215 214 267
f 267 255 215
f 41 234 252
f 233 43 252
f 252 43 41
f 294 323 270
f 322 323 294
f 292 277 291
f 495 506 505
f 410 411 525
f 525 411 534
f 510 509 511
f 499 305 303
f 500 499 303
f 303 301 500
f 306 303 305
f 291 277 290
f 274 312 275
f 502 503 504
f 504 491 502
f 503 526 504
f 504 526 491
f 257 211 256
f 256 237 257
f 211 255 256
f 256 255 237
f 38 36 236
f 236 235 38
f 38 235 39
f 38 40 20
f 39 40 38
f 100 32 101
f 101 32 33
f 101 98 100
f 80 61 60
f 60 79 80
f 95 79 60
f 60 59 95
f 174 97 96
f 97 79 96
f 165 200 201
f 201 200 162
f 111 139 112
f 112 104 111
f 104 105 111
f 179 206 196
f 210 261 218
f 8 25 13
f 8 7 25
f 24 48 25
f 25 7 24
f 44 45 21
f 45 22 21
f 73 83 74
f 64 76 105
f 81 65 64
f 64 105 81
f 103 102 113
f 102 114 113
f 113 105 103
f 113 111 105
f 113 114 145
f 107 180 179
f 107 106 180
f 81 106 107
f 31 19 18
f 18 30 31
f 18 17 29
f 29 30 18
f 352 371 373
f 371 372 373
f 456 445 377
f 470 469 455
f 469 445 455
f 455 445 456
f 428 458 429
f 415 393 394
f 394 393 128
f 394 419 415
f 116 383 394
f 394 128 116
f 397 419 394
f 394 383 397
f 416 401 440
f 440 413 416
f 405 401 416
f 416 406 405
f 416 413 406
f 160 189 202
f 202 191 160
f 192 194 193
f 87 194 192
f 89 87 192
f 192 190 89
f 193 190 192
f 89 78 88
f 88 87 89
f 177 194 86
f 86 194 87
f 87 88 86
f 86 88 77
f 69 88 70
f 77 88 69
f 85 67 82
f 77 69 85
f 81 107 108
f 108 107 82
f 150 134 135
f 135 149 150
f 149 152 150
f 130 134 150
f 150 152 130
f 262 263 219
f 219 261 262
f 218 261 219
f 517 483 531
f 531 498 517
f 483 530 531
f 517 498 516
f 516 305 499
f 305 516 307
f 307 516 498
f 23 22 46
f 23 6 5
f 5 22 23
f 48 24 23
f 7 6 23
f 23 24 7
f 254 267 266
f 234 267 254
f 233 252 251
f 265 250 251
f 251 232 233
f 251 250 232
f 268 280 319
f 321 503 322
f 322 294 321
f 319 280 279
f 296 287 410
f 410 525 296
f 285 284 289
f 282 298 288
f 281 287 282
f 287 298 282
f 300 301 289
f 512 485 484
f 510 511 512
f 484 527 512
f 512 527 510
f 314 511 509
f 509 315 314
f 291 290 314
f 314 292 291
f 314 315 292
f 276 290 277
f 312 290 276
f 276 275 312
f 37 38 20
f 36 38 37
f 34 36 37
f 9 101 33
f 63 101 9
f 98 101 99
f 80 97 99
f 99 97 98
f 174 96 185
f 94 79 95
f 94 96 79
f 94 185 96
f 95 92 94
f 92 188 94
f 70 88 71
f 71 88 78
f 90 78 89
f 89 190 90
f 93 92 95
f 178 206 205
f 178 196 206
f 178 205 177
f 244 210 243
f 243 227 244
f 244 227 228
f 261 210 244
f 244 228 229
f 229 261 244
f 532 499 500
f 532 481 517
f 517 516 532
f 532 516 499
f 517 481 482
f 482 483 517
f 243 210 209
f 209 260 243
f 4 22 5
f 4 21 22
f 3 44 4
f 44 21 4
f 102 76 75
f 75 114 102
f 139 111 138
f 111 113 138
f 138 113 145
f 145 136 138
f 138 136 139
f 326 325 352
f 352 373 326
f 456 446 472
f 472 428 432
f 344 377 357
f 357 377 445
f 357 445 444
f 357 358 344
f 444 454 357
f 357 454 358
f 344 330 356
f 356 377 344
f 470 455 430
f 458 428 457
f 447 448 457
f 448 458 457
f 428 472 457
f 457 446 447
f 457 472 446
f 189 188 176
f 176 202 189
f 176 188 92
f 92 90 176
f 176 90 190
f 190 191 176
f 191 202 176
f 67 85 68
f 68 85 69
f 66 65 81
f 81 108 66
f 82 67 66
f 66 108 82
f 529 530 486
f 486 485 529
f 511 314 313
f 313 314 290
f 313 311 513
f 313 290 312
f 312 311 313
f 309 307 498
f 309 312 310
f 309 311 312
f 308 272 306
f 308 309 310
f 307 309 308
f 308 306 305
f 305 307 308
f 310 274 308
f 47 245 48
f 48 23 47
f 247 245 47
f 46 247 47
f 47 23 46
f 253 213 265
f 265 251 253
f 253 251 252
f 253 252 234
f 234 254 253
f 266 213 253
f 253 254 266
f 269 294 270
f 269 268 294
f 320 321 294
f 494 526 503
f 503 321 494
f 321 320 494
f 494 320 505
f 506 526 494
f 494 505 506
f 496 315 509
f 496 509 510
f 277 292 278
f 292 279 278
f 292 315 317
f 317 279 292
f 319 279 317
f 289 301 302
f 302 285 289
f 301 303 302
f 286 285 302
f 287 296 297
f 297 298 287
f 283 282 288
f 289 284 283
f 283 288 289
f 533 477 476
f 520 521 533
f 476 479 533
f 533 479 520
f 519 521 520
f 519 300 521
f 301 300 519
f 519 520 500
f 500 301 519
f 33 34 35
f 34 37 35
f 2 44 3
f 42 44 2
f 2 40 42
f 2 1 40
f 20 40 12
f 40 1 12
f 12 37 20
f 11 37 12
f 62 101 63
f 62 99 101
f 62 61 80
f 80 99 62
f 186 200 174
f 174 185 186
f 162 200 186
f 186 163 162
f 186 187 163
f 185 94 175
f 187 186 175
f 175 186 185
f 175 188 187
f 175 94 188
f 78 90 91
f 72 71 91
f 91 71 78
f 91 90 92
f 92 93 91
f 95 59 58
f 58 93 95
f 72 91 58
f 58 91 93
f 110 178 177
f 177 86 110
f 110 85 82
f 110 86 77
f 77 85 110
f 196 178 109
f 82 107 109
f 109 110 82
f 178 110 109
f 179 196 109
f 109 107 179
f 500 520 518
f 518 532 500
f 481 532 518
f 520 479 518
f 84 75 74
f 114 75 84
f 84 74 83
f 84 83 115
f 115 114 84
f 471 455 456
f 456 472 471
f 515 531 530
f 530 529 515
f 515 529 513
f 498 531 515
f 485 512 528
f 528 529 485
f 513 529 528
f 528 512 511
f 513 311 514
f 311 309 514
f 514 515 513
f 514 309 498
f 498 515 514
f 273 308 274
f 272 308 273
f 293 268 319
f 319 320 293
f 294 268 293
f 293 320 294
f 508 507 495
f 495 496 508
f 508 490 489
f 489 507 508
f 508 496 510
f 508 527 490
f 510 527 508
f 315 496 316
f 316 317 315
f 316 496 495
f 286 302 304
f 304 302 303
f 303 306 304
f 304 272 286
f 306 272 304
f 478 477 524
f 524 436 478
f 435 436 524
f 524 437 435
f 524 534 437
f 10 9 33
f 33 35 10
f 10 37 11
f 10 35 37
f 481 518 480
f 480 518 479
f 431 430 455
f 455 471 431
f 431 472 432
f 431 471 472
f 329 356 330
f 329 328 356
f 353 326 373
f 353 373 372
f 511 313 497
f 497 528 511
f 497 313 513
f 513 528 497
f 319 317 318
f 317 316 318
f 318 316 495
f 495 505 318
f 318 320 319
f 505 320 318
f 523 525 534
f 534 524 523
f 523 296 525
f 523 297 296
f 523 501 297
f 297 501 299
f 288 298 299
f 298 297 299
f 299 501 521
f 521 300 299
f 289 288 299
f 299 300 289
f 522 533 521
f 521 501 522
f 477 533 522
f 522 524 477
f 522 523 524
f 501 523 522
f 326 353 327
f 327 353 328
f 374 372 447
f 374 353 372
f 447 446 374
f 375 446 456
f 375 374 446
f 456 377 375
f 353 374 375
f 328 353 376
f 353 375 376
f 356 328 376
f 377 356 376
f 376 375 377
f 131 118 387
f 131 387 399
f 163 425 162
f 424 425 163
f 154 422 421
f 164 422 154
f 492 154 421
f 212 154 492
f 434 208 420
f 208 153 420
f 161 160 426
f 426 427 161
f 424 163 161
f 161 427 424
f 477 220 476
f 477 221 220
f 478 222 477
f 222 221 477
f 117 222 384
f 384 222 478
f 122 117 384
f 426 160 159
f 159 429 426
f 485 216 264
f 485 486 216
f 485 217 484
f 485 264 217
f 491 487 215
f 215 211 491
f 212 492 491
f 491 211 212
f 434 433 156
f 156 208 434
f 470 207 156
f 156 433 470
f 393 420 153
f 153 129 393
f 423 422 164
f 164 165 423
f 216 486 530
f 530 263 216
f 488 214 215
f 215 487 488
f 488 489 266
f 266 214 488
f 484 217 527
f 217 265 527
f 266 489 213
f 489 490 213
f 213 527 265
f 490 527 213
f 201 423 165
f 474 423 201
f 162 425 201
f 425 474 201
f 429 159 428
f 428 159 203
f 428 203 155
f 155 432 428
f 263 530 219
f 219 530 483
f 476 220 479
f 220 260 479
f 482 481 210
f 482 210 218
f 482 219 483
f 218 219 482
f 430 158 207
f 430 207 470
f 70 71 10
f 63 9 10
f 5 6 10
f 10 19 73
f 13 14 10
f 10 64 65
f 10 15 16
f 10 8 13
f 10 60 61
f 10 14 15
f 16 17 10
f 11 12 10
f 10 69 70
f 10 18 19
f 73 74 10
f 67 68 10
f 10 6 7
f 65 66 10
f 59 60 10
f 61 62 10
f 7 8 10
f 3 4 10
f 76 64 10
f 17 18 10
f 10 75 76
f 10 2 3
f 10 58 59
f 10 71 72
f 10 4 5
f 74 75 10
f 10 68 69
f 10 66 67
f 1 2 10
f 10 12 1
f 10 62 63
f 72 58 10
f 210 481 480
f 480 209 210
f 480 479 260
f 260 209 480
f 158 430 431
f 157 158 431
f 431 432 155
f 431 155 157
f 327 338 325
f 327 271 333
f 327 342 343
f 327 276 277
f 331 332 327
f 325 326 327
f 333 334 327
f 281 282 327
f 332 339 327
f 343 281 327
f 336 337 327
f 327 330 331
f 340 341 327
f 270 271 327
f 286 272 327
f 327 337 338
f 327 341 342
f 327 335 336
f 334 335 327
f 327 269 270
f 327 339 340
f 327 283 284
f 327 285 286
f 274 275 327
f 280 268 327
f 327 279 280
f 284 285 327
f 277 278 327
f 327 273 274
f 275 276 327
f 268 269 327
f 327 278 279
f 282 283 327
f 327 329 330
f 272 273 327
f 328 329 327

