# https://github.com/mikedh/trimesh
v 0.024580909406 -0.028756152466 0.017209331663
v 0.026968099983 -0.028756152466 0.013156834308
v -0.029554721937 -0.028756152466 0.005186653631
v 0.005135084581 -0.028756152466 0.029563724164
v -0.029554721937 -0.032256880547 0.005186653631
v -0.028381151574 -0.028756152466 0.009741243598
v -0.026510361319 -0.028756152466 0.014056467379
v -0.023988191362 -0.032256880547 0.018026386254
v -0.020876636347 -0.032256880547 0.021553351580
v -0.020876636347 -0.028756152466 0.021553351580
v -0.017252200299 -0.032256880547 0.024550852922
v -0.017252200299 -0.028756152466 0.024550852922
v -0.013203934847 -0.028756152466 0.026945154736
v 0.000452328763 -0.032256880547 0.030002988886
v 0.009691702471 -0.028756152466 0.028398146259
v 0.026968099983 -0.032256880547 0.013156834308
v 0.024580909406 -0.032256880547 0.017209331663
v 0.009691702471 -0.032256880547 0.028398146259
v 0.005135084581 -0.032256880547 0.029563724164
v -0.004241539470 -0.032256880547 0.029705075154
v -0.008831184002 -0.032256880547 0.028677396019
v -0.013203934847 -0.032256880547 0.026945154736
v -0.026510361319 -0.032256880547 0.014056467379
v -0.028381151574 -0.032256880547 0.009741243598
v -0.009310449205 -0.028756152466 0.028525433132
v -0.014122401428 -0.028756152466 0.026475304425
v -0.025468008852 -0.028756152466 0.015867044062
v -0.027836375234 -0.028756152466 0.011203536367
v -0.029358940261 -0.028756152466 0.006199613324
v 0.028525433132 -0.028756152466 0.009310449205
v 0.026475304425 -0.028756152466 0.014122401428
v 0.023620763743 -0.028756152466 0.018505238792
v 0.011203536367 -0.028756152466 0.027836375234
v 0.006199613324 -0.028756152466 0.029358940261
v 0.001007295457 -0.028756152466 0.029989455736
v -0.004215605902 0.021254487696 0.029708775159
v -0.014122401428 0.021254487696 0.026475304425
v -0.018505238792 -0.028756152466 0.023620763743
v -0.022325816082 0.021254487696 0.020048489194
v -0.022325816082 -0.028756152466 0.020048489194
v -0.025468008852 0.021254487696 0.015867044062
v 0.023620763743 0.021254487696 0.018505238792
v 0.020048489194 -0.028756152466 0.022325816082
v 0.015867044062 -0.028756152466 0.025468008852
v 0.006199613324 0.021254487696 0.029358940261
v 0.015867044062 0.021254487696 0.025468008852
v 0.020048489194 0.021254487696 0.022325816082
v 0.026475304425 0.021254487696 0.014122401428
v -0.029358940261 0.021254487696 0.006199613324
v -0.027836375234 0.021254487696 0.011203536367
v -0.018505238792 0.021254487696 0.023620763743
v -0.009310449205 0.021254487696 0.028525433132
v 0.027605415567 0.026255616173 0.011761136037
v 0.023988601232 0.026255616173 0.018025795669
v -0.029134363382 0.026255616173 0.007181332568
v -0.027605115617 0.026255616173 0.011761796486
v -0.022459895612 0.026255616173 0.019898197457
v -0.018977110505 0.026255616173 0.023243333442
v 0.012863822244 0.026255616173 0.027109160338
v 0.029134542235 0.032556934916 0.007180617159
v 0.028462298306 0.026255616173 0.009501701821
v 0.028462298306 0.032556934916 0.009501701821
v 0.026569503642 0.026255616173 0.013944323326
v 0.023988601232 0.032556934916 0.018025795669
v 0.022460314797 0.032556934916 0.019897657174
v 0.020786377468 0.026255616173 0.021640460052
v 0.020786377468 0.032556934916 0.021640460052
v 0.018977639610 0.032556934916 0.023242852777
v 0.017045857029 0.026255616173 0.024694592334
v 0.015003489763 0.032556934916 0.025986149256
v 0.012863822244 0.032556934916 0.027109160338
v 0.010640746257 0.032556934916 0.028056361573
v 0.008348640775 0.026255616173 0.028821606781
v 0.003617165752 0.026255616173 0.029787593086
v 0.003617165752 0.032556934916 0.029787593086
v 0.001208563564 0.032556934916 0.029982065042
v -0.001207848388 0.032556934916 0.029982065042
v -0.008347926297 0.032556934916 0.028821785633
v -0.010640086740 0.026255616173 0.028056601906
v -0.015002889863 0.026255616173 0.025986439890
v -0.017045266444 0.032556934916 0.024694953765
v -0.018977110505 0.032556934916 0.023243333442
v -0.022459895612 0.032556934916 0.019898197457
v -0.025360936003 0.026255616173 0.016037670921
v -0.025360936003 0.032556934916 0.016037670921
v -0.027605115617 0.032556934916 0.011761796486
v -0.029109327801 0.026255616173 0.007282204741
v 0.027605415567 0.032556934916 0.011761136037
v 0.026569503642 0.032556934916 0.013944323326
v -0.012863161795 0.032556934916 0.027109460288
v -0.010640086740 0.032556934916 0.028056601906
v -0.029134363382 0.032556934916 0.007181332568
v -0.028462059837 0.032556934916 0.009502356680
v -0.026569203692 0.032556934916 0.013944983775
v -0.023988191362 0.032556934916 0.018026386254
v -0.020785896802 0.032556934916 0.021640929539
v -0.015002889863 0.032556934916 0.025986439890
v -0.006001683093 0.032556934916 0.029400079993
v -0.003616509728 0.032556934916 0.029787652704
v 0.006002338885 0.032556934916 0.029399899278
v 0.008348640775 0.032556934916 0.028821606781
v 0.017045857029 0.032556934916 0.024694592334
v 0.025361295570 0.032556934916 0.016037071020
v 0.014964441298 0.026255616173 0.026008625015
v 0.022856470551 0.026255616173 0.019441349328
v 0.015523711187 0.026255616173 0.025678704192
v -0.028264906961 0.026255616173 0.010073605009
v -0.026282982422 0.026255616173 0.014477126815
v -0.023620292393 0.026255616173 0.018505769759
v -0.020193420954 0.026255616173 0.022194778902
v -0.020345922261 0.026255616173 0.022055099062
v 0.028780116797 0.026255616173 0.008490351332
v 0.027836615567 0.026255616173 0.011202876849
v 0.006593206461 0.026255616173 0.029273093070
v -0.029514843486 0.026255616173 0.005409146230
v -0.029514843486 0.021254487696 0.005409146230
v -0.028264906961 0.021254487696 0.010073605009
v -0.026282982422 0.021254487696 0.014477126815
v -0.023620292393 0.021254487696 0.018505769759
v -0.020345922261 0.021254487696 0.022055099062
v -0.016544539910 0.021254487696 0.025033224750
v -0.016544539910 0.026255616173 0.025033224750
v -0.015283749293 0.026255616173 0.025822315054
v -0.012314684518 0.021254487696 0.027362953468
v -0.012314684518 0.026255616173 0.027362953468
v 0.000144234851 0.026255616173 0.030006029373
v 0.001812070610 0.021254487696 0.029951596825
v 0.001812070610 0.026255616173 0.029951596825
v 0.011203536367 0.026255616173 0.027836375234
v 0.015523711187 0.021254487696 0.025678704192
v 0.019441889611 0.026255616173 0.022855989885
v 0.022856470551 0.021254487696 0.019441349328
v 0.025679054444 0.021254487696 0.015523111287
v 0.025679054444 0.026255616173 0.015523111287
v 0.027836615567 0.021254487696 0.011202876849
v 0.006593206461 0.021254487696 0.029273093070
v 0.019441889611 0.021254487696 0.022855989885
v 0.029334554882 -0.026317679748 0.006852841165
v 0.029319833111 -0.025658069120 0.006956813443
v -0.001474397429 -0.025452804552 0.030097778687
v -0.001741125440 -0.026751213748 0.030059921639
v -0.002574755763 -0.027775742476 0.029941646309
v -0.005092636527 -0.028180598644 0.029584359236
v -0.006200030180 -0.027468235932 0.029427205909
v -0.006956813443 -0.025658069120 0.029319833111
v -0.004646937318 -0.022819332637 0.029647613297
v -0.006852841165 -0.026317679748 0.029334554882
v -0.006595592088 -0.026932992787 0.029371042593
v -0.006690085200 -0.024359661786 0.029357690159
v -0.001529722259 -0.026118376920 0.030089907328
v -0.035534231550 -0.005578638496 -0.031006582592
v -0.035417675808 -0.006276995776 -0.029493969944
v -0.035534231550 -0.005578638496 -0.029498920051
v -0.035534231550 0.005578638496 -0.031006582592
v -0.035534231550 0.005578638496 -0.029498920051
v 0.029462493820 0.036757815321 0.004514228522
v 0.028296914052 0.036757815321 -0.009364939507
v 0.023258176311 0.036757815321 0.018640687660
v 0.028120625403 0.036757815321 0.009881703122
v 0.020091948415 0.036757815321 0.022016640251
v 0.016218190542 0.036757815321 0.025007760668
v 0.002447055527 0.036757815321 0.029705734672
v -0.002447055527 0.036757815321 0.029705734672
v -0.011907257350 0.036757815321 0.027324615755
v -0.007275230437 0.036757815321 0.028904834533
v -0.020091948415 0.036757815321 0.022016640251
v -0.029805116876 0.036757815321 0.000272988390
v -0.028120625403 0.036757815321 0.009881703122
v -0.029229693466 0.036757815321 -0.005834754376
v 0.019804236710 0.036757815321 -0.035007448486
v 0.028486855086 0.036557802673 -0.009427776246
v 0.030005129523 0.036557802673 0.000274821800
v 0.029555683267 0.036557802673 0.005181228448
v 0.028309375952 0.036557802673 0.009947997670
v 0.023581185242 0.036557802673 0.018555609905
v 0.020226806697 0.036557802673 0.022164372165
v 0.011987144665 0.036557802673 0.027507995148
v 0.002463450079 0.036557802673 0.029905097117
v -0.002463450079 0.036557802673 0.029905097117
v -0.007324057087 0.036557802673 0.029098825823
v -0.020226806697 0.036557802673 0.022164372165
v -0.023581185242 0.036557802673 0.018555609905
v -0.029555683267 0.036557802673 0.005181228448
v -0.030005129523 0.036557802673 0.000274821800
v 0.022855989885 0.036727827769 0.019178432873
v 0.022797928128 0.036728368052 0.019246577423
v 0.022396220504 0.036757815321 0.019667897308
v 0.029383085308 0.036727827769 0.005180990444
v 0.029340047135 0.036731166343 0.005400858480
v 0.029229693466 0.036757815321 0.005834754376
v -0.004514228522 0.036757815321 0.029462493820
v -0.005004105621 0.036729977722 0.029411522807
v -0.005834754376 0.036757815321 0.029229693466
v -0.013428812608 0.040758679352 -0.024472996325
v -0.013474062214 0.040758679352 -0.023949913266
v -0.012769271843 0.040758679352 -0.025262153699
v -0.009681208878 0.040758679352 -0.026598950911
v -0.011853366016 0.040758679352 -0.021253537543
v -0.011232802921 0.040758679352 -0.021067177280
v -0.012306872776 0.040758679352 -0.021716226314
v -0.013180389701 0.040758679352 -0.024935563998
v -0.005931453797 0.040758679352 -0.027573939444
v 0.015729035372 0.040758679352 -0.023533545351
v 0.015312126243 0.040758679352 -0.018255145666
v 0.011534827459 0.040758679352 -0.025738137150
v 0.019323664583 0.040758679352 -0.019335707297
v 0.015860193650 0.040758679352 -0.018234331742
v 0.018411458760 0.040758679352 -0.018684206498
v -0.013308746893 0.040758679352 -0.023451567701
v -0.006456325378 0.040758679352 -0.027559866011
v 0.018941392231 0.040758679352 -0.018906584985
v 0.019483677682 0.040758679352 -0.019887645177
v 0.019390137983 0.040758679352 -0.020454666259
v 0.019061288410 0.040758679352 -0.020925997690
v 0.012045277218 0.040758679352 -0.025615269416
v -0.019804236710 0.036757815321 -0.035007448486
v -0.029645642196 0.036557802673 -0.004639008670
v -0.029383085308 0.036727827769 -0.005180990444
v -0.028486855086 0.036557802673 -0.009427776246
v -0.005180990444 0.036727827769 0.029383085308
v 0.029805116876 0.036757815321 0.000272988390
v -0.028296914052 0.036757815321 -0.009364939507
v -0.011987144665 0.036557802673 0.027507995148
v -0.016218190542 0.036757815321 0.025007760668
v -0.016327053775 0.036557802673 0.025175585509
v -0.023423970435 0.036757815321 0.018431903802
v -0.026124459758 0.036757815321 0.014350200441
v -0.026299796392 0.036557802673 0.014446540295
v -0.028309375952 0.036557802673 0.009947997670
v -0.029358640311 0.036757815321 0.005146709974
v -0.029462493820 0.036757815321 -0.004514228522
v -0.029456351365 0.036750482381 -0.004602045417
v 0.016327053775 0.036557802673 0.025175585509
v 0.011907257350 0.036757815321 0.027324615755
v 0.007275230437 0.036757815321 0.028904834533
v 0.007324057087 0.036557802673 0.029098825823
v 0.026124459758 0.036757815321 0.014350200441
v 0.026299796392 0.036557802673 0.014446540295
v 0.023423970435 0.036757815321 0.018431903802
v 0.029645642196 0.036557802673 -0.004639008670
v 0.029448010519 0.036757815321 -0.004608066774
v -0.035884718512 0.002973060072 -0.031006582592
v 0.035482420304 0.006127893127 -0.031006582592
v 0.035993758735 0.001000200987 -0.031006582592
v 0.032332117705 0.015848801137 -0.034507381469
v 0.034272902512 0.011041792500 -0.034507381469
v -0.021265880208 -0.036123728391 -0.035007448486
v -0.021631986929 -0.035757617944 -0.035007448486
v 0.021265880208 0.036123728391 -0.035007448486
v 0.021631986929 0.035757617944 -0.035007448486
v 0.021265880208 -0.036123728391 -0.035007448486
v -0.034421353562 0.008715347396 -0.035007448486
v -0.032517706668 0.014261310899 -0.035007448486
v -0.034421353562 -0.008715347396 -0.035007448486
v -0.032517706668 -0.014261310899 -0.035007448486
v 0.020765751711 0.036757815321 -0.034507381469
v 0.020765751711 -0.036757815321 -0.034507381469
v 0.032755408690 -0.004067814370 -0.039808497246
v 0.031999396727 -0.004996772215 -0.040008521072
v 0.032556875299 -0.004043131835 -0.040008521072
v 0.032806970288 0.000000000000 -0.040008521072
v 0.032556875299 0.004043131835 -0.040008521072
v 0.031999396727 0.004996772215 -0.040008521072
v 0.032548894020 -0.004678236918 -0.039808497246
v 0.032548894020 0.004678236918 -0.039808497246
v 0.034272902512 -0.011041792500 -0.034507381469
v 0.035503286393 -0.006005915929 -0.034507381469
v 0.035482420304 -0.006127893127 -0.031006582592
v 0.035993758735 -0.001000200987 -0.034507381469
v -0.034906158525 -0.008838099621 -0.034507381469
v -0.035884718512 -0.002973060072 -0.031006582592
v -0.035884718512 -0.002973060072 -0.034507381469
v -0.035884718512 0.002973060072 -0.034507381469
v -0.032975694979 0.014462163780 -0.034507381469
v 0.035993758735 -0.001000200987 -0.031006582592
v 0.035993758735 0.001000200987 -0.034507381469
v -0.003164729078 0.003520407179 -0.043009180273
v -0.002981644977 0.003703492211 -0.043009180273
v -0.003164729078 -0.003520407179 -0.043009180273
v 0.001466408698 -0.004500933842 -0.043009180273
v -0.001466408698 -0.004500933842 -0.043009180273
v -0.001466408698 0.004500933842 -0.043009180273
v 0.003164729078 -0.003520407179 -0.043009180273
v 0.003085259085 -0.003623962368 -0.043009180273
v 0.001716444186 -0.004433924351 -0.043009180273
v -0.004698149130 -0.000730467247 -0.043009180273
v -0.004698149130 0.000730467247 -0.043009180273
v 0.003164729078 0.003520407179 -0.043009180273
v 0.004631138707 0.000980520725 -0.043009180273
v -0.001716444186 -0.004433924351 -0.043009180273
v -0.002981644977 -0.003703492211 -0.043009180273
v 0.001716444186 0.004433924351 -0.043009180273
v -0.004631138707 -0.000980520725 -0.043009180273
v 0.004698149130 -0.000730467247 -0.043009180273
v 0.004631138707 -0.000980520725 -0.043009180273
v -0.001716444186 0.004433924351 -0.043009180273
v -0.004631138707 0.000980520725 -0.043009180273
v 0.001466408698 0.004500933842 -0.043009180273
v 0.002981644977 0.003703492211 -0.043009180273
v 0.004698149130 0.000730467247 -0.043009180273
v 0.002981644977 -0.003703492211 -0.043009180273
v 0.032376174963 -0.004577244113 -0.040008521072
v 0.032755408690 0.004067814370 -0.039808497246
v 0.033007050005 0.000000000000 -0.039808497246
v 0.032376174963 0.004577244113 -0.040008521072
v 0.022065111059 0.036007653315 -0.034507381469
v 0.021515913716 0.036556852521 -0.034507381469
v 0.021515913716 -0.036556852521 -0.034507381469
v -0.022065111059 0.036007653315 -0.034507381469
v -0.021515913716 0.036556852521 -0.034507381469
v -0.020765751711 0.036757815321 -0.034507381469
v -0.021631986929 0.035757617944 -0.035007448486
v -0.021265880208 0.036123728391 -0.035007448486
v -0.032975694979 -0.014462163780 -0.034507381469
v -0.035386320783 -0.002931745214 -0.035007448486
v -0.035386320783 0.002931745214 -0.035007448486
v -0.034906158525 0.008838099621 -0.034507381469
v -0.020765751711 -0.036757815321 -0.034507381469
v -0.021515913716 -0.036556852521 -0.034507381469
v -0.022065111059 -0.036007653315 -0.034507381469
v 0.035503286393 0.006005915929 -0.034507381469
v 0.032332117705 -0.015848801137 -0.034507381469
v 0.022065111059 -0.036007653315 -0.034507381469
v 0.021631986929 -0.035757617944 -0.035007448486
v -0.023188179896 -0.036757815321 0.018246312976
v -0.027837565719 -0.036757815321 0.009782200751
v -0.029505062506 -0.036757815321 0.000270241827
v -0.016054965555 -0.036757815321 0.024755996392
v 0.011787371418 -0.036757815321 0.027049537350
v 0.007201959722 -0.036757815321 0.028613842009
v 0.016054965555 -0.036757815321 0.024755996392
v -0.007201959722 -0.036757815321 0.028613842009
v 0.019889675895 -0.036757815321 0.021794982761
v 0.025861481822 -0.036757815321 0.014205749347
v 0.027837565719 -0.036757815321 0.009782200751
v 0.029505062506 -0.036757815321 0.000270241827
v 0.029151536919 -0.036757815321 -0.004561683972
v -0.028012062120 -0.036757815321 -0.009270684399
v 0.019504122723 -0.036757815321 -0.035007448486
v -0.019504122723 -0.036757815321 -0.035007448486
v -0.028486855086 -0.036257748304 -0.009427776246
v -0.028309375952 -0.036257748304 0.009947997670
v -0.026299796392 -0.036257748304 0.014446540295
v -0.023581185242 -0.036257748304 0.018555609905
v -0.002463450079 -0.036257748304 0.029905097117
v 0.007324057087 -0.036257748304 0.029098825823
v 0.011987144665 -0.036257748304 0.027507995148
v 0.016327053775 -0.036257748304 0.025175585509
v 0.023581185242 -0.036257748304 0.018555609905
v 0.026299796392 -0.036257748304 0.014446540295
v 0.029555683267 -0.036257748304 0.005181228448
v 0.030005129523 -0.036257748304 0.000274821800
v 0.029645642196 -0.036257748304 -0.004639008670
v 0.028486855086 -0.036257748304 -0.009427776246
v 0.028012062120 -0.036757815321 -0.009270684399
v 0.029063057247 -0.036757815321 0.005094901989
v 0.028309375952 -0.036257748304 0.009947997670
v 0.023188179896 -0.036757815321 0.018246312976
v 0.020226806697 -0.036257748304 0.022164372165
v 0.002463450079 -0.036257748304 0.029905097117
v 0.002422433309 -0.036757815321 0.029406691935
v -0.002422433309 -0.036757815321 0.029406691935
v -0.007324057087 -0.036257748304 0.029098825823
v -0.011987144665 -0.036257748304 0.027507995148
v -0.011787371418 -0.036757815321 0.027049537350
v -0.016327053775 -0.036257748304 0.025175585509
v -0.020226806697 -0.036257748304 0.022164372165
v -0.019889675895 -0.036757815321 0.021794982761
v -0.025861481822 -0.036757815321 0.014205749347
v -0.029555683267 -0.036257748304 0.005181228448
v -0.029063057247 -0.036757815321 0.005094901989
v -0.030005129523 -0.036257748304 0.000274821800
v -0.029645642196 -0.036257748304 -0.004639008670
v -0.029151536919 -0.036757815321 -0.004561683972
f 342 29 370
f 116 5 370
f 370 29 116
f 354 353 355
f 347 329 331
f 331 348 347
f 270 373 372
f 372 152 270
f 342 370 326
f 326 343 342
f 337 353 336
f 337 355 353
f 354 355 308
f 308 323 354
f 308 355 257
f 251 323 308
f 257 339 308
f 308 339 251
f 321 243 244
f 324 323 251
f 251 259 324
f 223 180 164
f 87 55 29
f 342 343 28
f 28 117 342
f 24 29 342
f 24 87 29
f 245 240 246
f 246 265 245
f 265 306 245
f 162 207 163
f 164 180 165
f 357 335 351
f 206 159 212
f 347 348 44
f 370 372 327
f 373 374 327
f 327 372 373
f 319 247 340
f 254 255 270
f 315 286 254
f 314 373 270
f 270 255 314
f 354 323 322
f 322 353 354
f 303 265 246
f 246 321 303
f 303 262 265
f 240 221 172
f 246 240 172
f 172 321 246
f 243 321 172
f 172 173 244
f 244 243 172
f 370 271 153
f 153 372 370
f 152 372 153
f 76 77 126
f 140 76 126
f 126 77 140
f 225 223 164
f 82 81 225
f 225 97 223
f 91 52 78
f 78 180 91
f 180 223 91
f 140 146 142
f 146 149 142
f 35 76 140
f 23 28 343
f 23 56 28
f 12 81 51
f 51 81 82
f 272 254 270
f 315 254 272
f 27 118 343
f 110 58 82
f 183 155 242
f 279 247 248
f 240 245 171
f 171 245 306
f 305 306 265
f 305 250 306
f 263 250 305
f 265 262 305
f 249 250 263
f 306 250 249
f 179 163 191
f 179 99 140
f 140 77 179
f 180 98 179
f 179 98 99
f 204 163 207
f 180 179 220
f 99 98 36
f 36 149 146
f 36 146 140
f 140 99 36
f 160 211 161
f 221 212 156
f 156 172 221
f 173 172 156
f 174 173 190
f 190 159 174
f 190 212 159
f 190 156 212
f 174 159 238
f 175 103 238
f 336 351 356
f 356 351 335
f 336 353 352
f 352 351 336
f 352 275 351
f 268 275 352
f 358 349 333
f 350 335 357
f 333 349 359
f 359 331 333
f 348 331 359
f 241 221 240
f 241 212 221
f 240 171 241
f 307 171 306
f 306 249 307
f 347 44 104
f 234 211 208
f 161 211 234
f 33 18 347
f 233 177 70
f 161 234 233
f 233 234 177
f 176 160 233
f 233 160 161
f 233 68 176
f 102 68 233
f 371 326 370
f 370 327 371
f 11 81 12
f 11 121 81
f 318 319 340
f 373 314 341
f 248 247 320
f 247 319 320
f 320 255 248
f 320 314 255
f 319 341 320
f 320 341 314
f 244 173 139
f 139 275 244
f 302 324 259
f 323 324 302
f 262 303 304
f 270 152 151
f 152 153 151
f 151 272 270
f 223 97 90
f 39 96 83
f 10 96 39
f 81 121 122
f 122 225 81
f 143 142 149
f 84 27 8
f 111 96 120
f 55 87 92
f 92 183 49
f 155 183 184
f 184 154 155
f 115 183 3
f 49 183 115
f 293 279 248
f 248 255 293
f 255 254 293
f 293 254 286
f 247 279 291
f 273 252 316
f 317 252 273
f 317 273 154
f 154 184 317
f 191 163 199
f 163 204 199
f 192 179 191
f 191 220 192
f 192 220 179
f 206 211 187
f 211 160 187
f 187 160 176
f 176 175 187
f 175 186 187
f 64 175 42
f 64 103 175
f 173 156 188
f 156 190 188
f 237 238 159
f 237 159 206
f 89 238 48
f 335 350 334
f 349 358 334
f 334 350 349
f 16 350 357
f 134 238 103
f 65 175 176
f 65 359 349
f 135 16 357
f 53 16 135
f 171 307 157
f 157 241 171
f 347 104 59
f 72 101 15
f 15 18 72
f 18 33 72
f 100 75 4
f 100 34 45
f 348 68 69
f 69 68 102
f 137 68 43
f 348 359 43
f 43 68 348
f 176 68 131
f 131 68 137
f 131 47 176
f 106 233 70
f 346 329 347
f 347 18 346
f 18 73 346
f 14 35 140
f 142 143 20
f 20 143 144
f 97 225 123
f 121 11 366
f 319 318 338
f 338 341 319
f 338 374 373
f 373 341 338
f 60 173 174
f 60 139 173
f 357 351 138
f 138 139 357
f 351 275 138
f 275 139 138
f 268 352 267
f 267 275 268
f 276 303 321
f 276 304 303
f 276 321 244
f 260 294 261
f 262 304 261
f 261 304 260
f 289 305 262
f 260 302 295
f 295 294 260
f 125 90 124
f 223 90 125
f 13 90 37
f 37 90 97
f 93 92 87
f 93 24 6
f 87 24 93
f 82 225 181
f 181 110 82
f 181 96 111
f 181 182 83
f 83 96 181
f 109 182 95
f 247 291 290
f 281 340 290
f 340 247 290
f 274 317 217
f 169 219 217
f 217 219 274
f 217 317 184
f 287 316 252
f 252 297 287
f 253 297 252
f 253 317 274
f 252 317 253
f 170 307 249
f 191 199 193
f 193 199 165
f 193 220 191
f 193 165 180
f 180 220 193
f 164 165 198
f 165 199 198
f 75 100 178
f 76 128 178
f 127 128 76
f 76 35 127
f 189 190 173
f 173 188 189
f 189 188 190
f 239 237 206
f 175 238 239
f 238 237 239
f 88 113 174
f 174 238 88
f 238 89 88
f 133 134 103
f 175 65 105
f 67 65 176
f 212 241 213
f 241 157 213
f 213 157 307
f 70 177 71
f 71 104 70
f 71 59 104
f 177 72 129
f 129 72 33
f 233 106 46
f 70 104 130
f 130 106 70
f 130 104 44
f 343 326 369
f 344 325 368
f 344 369 325
f 343 369 344
f 119 8 344
f 344 27 343
f 344 8 27
f 40 57 344
f 236 178 100
f 236 72 177
f 101 72 236
f 177 234 236
f 162 178 236
f 150 14 140
f 345 14 150
f 124 90 22
f 22 90 13
f 364 328 365
f 366 328 364
f 364 22 366
f 124 22 364
f 364 25 79
f 52 25 145
f 78 52 145
f 149 36 145
f 145 180 78
f 145 36 98
f 144 143 145
f 145 143 149
f 145 20 144
f 145 147 20
f 145 98 180
f 357 139 30
f 30 61 357
f 139 61 30
f 139 60 112
f 353 322 266
f 266 352 353
f 266 267 352
f 260 304 258
f 267 266 258
f 262 261 300
f 300 289 262
f 300 261 294
f 263 305 288
f 305 289 288
f 284 302 259
f 97 123 80
f 229 93 6
f 183 92 229
f 92 93 229
f 166 181 225
f 182 181 166
f 282 296 216
f 103 64 1
f 158 187 186
f 175 239 158
f 206 187 158
f 158 239 206
f 350 16 31
f 16 63 31
f 2 88 89
f 132 65 349
f 132 105 65
f 359 65 66
f 65 67 66
f 367 366 11
f 367 344 368
f 367 11 38
f 368 328 367
f 367 328 366
f 367 38 58
f 58 110 367
f 363 332 362
f 363 362 345
f 345 20 363
f 365 332 363
f 363 364 365
f 147 145 363
f 329 346 330
f 346 361 330
f 360 361 346
f 360 14 345
f 35 14 360
f 360 127 35
f 114 100 45
f 114 236 100
f 162 236 235
f 235 236 234
f 235 234 208
f 235 208 207
f 235 207 162
f 141 20 345
f 345 150 141
f 142 20 141
f 140 142 141
f 141 150 140
f 62 60 174
f 62 112 60
f 62 61 139
f 139 112 62
f 267 258 269
f 275 267 269
f 304 276 269
f 269 258 304
f 264 302 260
f 260 258 264
f 264 322 323
f 323 302 264
f 264 266 322
f 264 258 266
f 292 249 263
f 292 170 249
f 283 295 302
f 302 284 283
f 285 259 251
f 251 339 285
f 123 366 26
f 26 80 123
f 366 22 26
f 50 229 107
f 86 229 50
f 224 225 164
f 224 166 225
f 164 198 224
f 198 166 224
f 182 166 226
f 313 278 277
f 313 296 278
f 313 216 296
f 167 184 183
f 170 216 202
f 349 350 17
f 17 32 349
f 350 133 17
f 54 32 17
f 17 133 103
f 103 1 17
f 185 186 175
f 175 158 185
f 185 158 186
f 214 213 307
f 40 344 9
f 344 367 9
f 9 367 120
f 9 96 10
f 9 120 96
f 20 147 148
f 148 363 20
f 147 363 148
f 25 364 21
f 364 363 21
f 21 145 25
f 21 363 145
f 19 360 346
f 19 346 34
f 74 360 19
f 19 100 4
f 34 100 19
f 34 346 136
f 263 288 299
f 299 292 263
f 170 292 298
f 301 284 259
f 259 285 301
f 280 285 339
f 94 23 7
f 94 86 56
f 56 23 94
f 200 166 198
f 200 226 166
f 277 297 312
f 312 313 277
f 297 253 312
f 231 217 184
f 184 167 231
f 230 167 183
f 183 229 230
f 229 168 230
f 170 202 205
f 203 214 256
f 256 214 307
f 307 170 256
f 228 94 7
f 108 41 228
f 228 168 229
f 229 86 228
f 86 94 228
f 182 226 228
f 309 253 274
f 309 312 253
f 274 219 309
f 313 312 309
f 222 219 169
f 169 217 218
f 196 197 216
f 216 311 196
f 196 311 201
f 210 202 216
f 216 197 210
f 203 256 215
f 170 205 215
f 215 256 170
f 85 228 41
f 85 95 182
f 182 228 85
f 227 228 226
f 168 228 227
f 227 209 168
f 200 209 227
f 226 200 227
f 195 230 168
f 168 209 195
f 167 230 195
f 195 231 167
f 313 309 310
f 216 313 310
f 310 311 216
f 201 311 310
f 310 309 219
f 219 222 310
f 217 231 232
f 232 218 217
f 232 231 169
f 169 218 232
f 169 231 194
f 231 195 194
f 194 222 169
f 194 310 222
f 201 310 194
f 155 154 273
f 242 155 273
f 58 38 51
f 82 58 51
f 272 271 242
f 242 273 272
f 108 118 27
f 27 41 108
f 183 370 5
f 5 3 183
f 242 271 183
f 183 271 370
f 11 51 38
f 12 51 11
f 25 91 79
f 52 91 25
f 271 272 151
f 151 153 271
f 39 57 40
f 83 57 39
f 92 49 29
f 29 55 92
f 115 3 5
f 115 5 116
f 29 49 115
f 116 29 115
f 316 272 273
f 315 272 316
f 174 113 135
f 135 357 174
f 15 101 73
f 73 18 15
f 102 233 69
f 69 233 348
f 176 47 43
f 43 359 176
f 131 43 47
f 137 43 131
f 366 122 121
f 225 122 366
f 366 123 225
f 95 8 119
f 95 119 109
f 315 316 287
f 287 286 315
f 163 179 178
f 162 163 178
f 178 77 76
f 178 179 77
f 88 135 113
f 53 135 88
f 238 134 133
f 133 350 238
f 347 59 71
f 71 177 347
f 347 177 129
f 129 33 347
f 348 233 46
f 46 44 348
f 44 46 130
f 130 46 106
f 109 119 344
f 344 182 109
f 344 57 83
f 83 182 344
f 236 73 101
f 236 346 73
f 364 125 124
f 223 125 364
f 79 91 364
f 364 91 223
f 229 24 342
f 6 24 229
f 175 349 32
f 42 175 32
f 32 64 42
f 32 54 64
f 238 350 31
f 48 238 31
f 31 89 48
f 31 63 89
f 89 63 2
f 2 63 16
f 53 88 2
f 2 16 53
f 132 349 175
f 175 105 132
f 176 359 66
f 66 67 176
f 111 120 367
f 367 181 111
f 110 181 367
f 330 337 336
f 330 339 257
f 333 331 330
f 335 334 330
f 330 327 374
f 257 355 330
f 340 339 330
f 330 331 329
f 374 338 330
f 355 337 330
f 336 356 330
f 330 358 333
f 326 371 330
f 330 356 335
f 330 318 340
f 330 371 327
f 365 328 330
f 330 332 365
f 330 334 358
f 368 325 330
f 330 369 326
f 330 338 318
f 325 369 330
f 362 332 330
f 330 361 362
f 330 328 368
f 362 361 360
f 345 362 360
f 75 178 360
f 360 74 75
f 360 178 128
f 128 127 360
f 174 357 62
f 357 61 62
f 269 276 244
f 244 275 269
f 26 22 13
f 13 37 26
f 26 37 97
f 97 80 26
f 107 229 342
f 342 117 107
f 117 28 107
f 107 28 50
f 50 28 86
f 28 56 86
f 64 54 17
f 17 1 64
f 9 39 40
f 10 39 9
f 75 74 19
f 4 75 19
f 136 114 45
f 45 34 136
f 346 236 136
f 236 114 136
f 282 216 298
f 298 216 170
f 280 293 286
f 280 300 294
f 295 283 280
f 286 287 280
f 281 290 280
f 277 278 280
f 279 293 280
f 280 291 279
f 280 297 277
f 280 296 282
f 294 295 280
f 280 290 291
f 280 287 297
f 278 296 280
f 289 300 280
f 280 288 289
f 280 299 288
f 284 301 280
f 280 283 284
f 282 298 280
f 292 299 280
f 280 298 292
f 280 301 285
f 280 339 340
f 280 340 281
f 228 23 343
f 7 23 228
f 228 118 108
f 343 118 228
f 41 27 85
f 85 27 84
f 8 95 85
f 84 8 85
f 194 211 206
f 207 208 194
f 206 212 194
f 208 211 194
f 194 204 207
f 194 199 204
f 194 198 199
f 212 213 194
f 213 214 194
f 194 200 198
f 203 215 194
f 194 214 203
f 202 210 194
f 194 196 201
f 194 205 202
f 194 209 200
f 197 196 194
f 194 210 197
f 194 215 205
f 194 195 209

