# https://github.com/mikedh/trimesh
v -0.012697570026 -0.004968105815 0.000000000000
v 0.012697570026 -0.004968105815 0.000000000000
v -0.011715110391 -0.000642922008 0.000000000000
v 0.009999990463 0.004968105815 0.000000000000
v -0.027999989688 -0.066531829536 -0.001999974018
v -0.027499970049 -0.067031860352 -0.001999974018
v -0.027999989688 -0.062031801790 -0.001999974018
v 0.027499970049 -0.066031813622 -0.001999974018
v 0.027999989688 -0.065531842411 -0.001999974018
v 0.027999989688 -0.062031861395 -0.001999974018
v -0.017999939620 -0.062051471323 -0.024424849078
v 0.017999939620 -0.062051471323 -0.024424849078
v -0.017999939620 -0.062718570232 -0.024499950930
v 0.017999999225 -0.062718570232 -0.024499950930
v -0.008871853352 0.004968105815 -0.004999995232
v 0.008811295033 0.004968105815 -0.004999995232
v -0.017999999225 -0.066531829536 -0.024499950930
v -0.027499970049 -0.067031860352 -0.014499959536
v -0.027659229934 -0.066531829536 -0.017088169232
v -0.027176259086 -0.067031860352 -0.016958769411
v -0.026227230206 -0.067031860352 -0.019249970093
v -0.025071019307 -0.066531829536 -0.021571040154
v -0.022749960423 -0.067031860352 -0.022727189586
v -0.020588150248 -0.066531829536 -0.024159250781
v -0.027999989688 -0.062031801790 -0.014499959536
v -0.027999989688 -0.066531829536 -0.014499959536
v -0.024717500433 -0.067031860352 -0.021217459813
v -0.020371669903 -0.062302350998 -0.024214679375
v -0.019556460902 -0.062541060150 -0.024378120899
v -0.018777310848 -0.062674522400 -0.024469729513
v -0.021246790886 -0.061926361173 -0.023958200589
v -0.023000000045 -0.066531829536 -0.023160209879
v -0.022155940533 -0.061391409487 -0.023595450446
v -0.025241009891 -0.058071490377 -0.021396869794
v -0.024325370789 -0.059368491173 -0.022245280445
v -0.023318700492 -0.060457881540 -0.022968230769
v -0.023053700104 -0.060698211193 -0.023128980771
v -0.026268480346 -0.058888848871 -0.020124189556
v -0.026660200208 -0.066531829536 -0.019499950111
v -0.027962019667 -0.061966121197 -0.015370010398
v -0.027681289241 -0.061475269496 -0.017004309222
v -0.024949660525 -0.057032641023 -0.021532889456
v -0.024546079338 -0.056765191257 -0.021698830649
v -0.025391280651 -0.057173371315 -0.021202979609
v -0.025314919651 -0.057160068303 -0.021270930767
v -0.024189589545 -0.056403331459 -0.021724930033
v -0.024272620678 -0.057383768260 -0.021988209337
v -0.022571859881 -0.059781901538 -0.023224649951
v -0.022340830415 -0.060023240745 -0.023350829259
v -0.021562209353 -0.060719370842 -0.023716680706
v -0.020778590813 -0.061256401241 -0.024000879377
v -0.020027449355 -0.061633758247 -0.024201629683
v -0.019329600036 -0.061873309314 -0.024329539388
v -0.018663760275 -0.062007240951 -0.024401180446
v -0.023455850780 -0.058687441051 -0.022656500340
v -0.009999990463 0.004968105815 -0.003884077072
v -0.011105169542 0.001585006015 -0.003991841804
v -0.009999990463 0.004968105815 0.000000000000
v 0.009999990463 0.004968105815 -0.003941117786
v -0.027852529660 -0.061775438488 -0.016210909933
v -0.026651199907 -0.059609830379 -0.019515570253
v -0.026905650273 -0.060080401599 -0.019048510119
v -0.027458129451 -0.061079908162 -0.017747040838
v -0.025564780459 -0.057519968599 -0.021040139720
v -0.011556020007 -0.000032338601 -0.004100263119
v 0.011098920368 0.001606403966 -0.004048525821
v 0.011452909559 0.000351836992 -0.004129528068
v 0.025345740840 -0.057081628591 -0.021234750748
v 0.025041339919 -0.057035319507 -0.021470060572
v 0.024359999225 -0.056654509157 -0.021746689454
v 0.023993669078 -0.056256528944 -0.021723920479
v 0.025564780459 -0.057519968599 -0.021040139720
v 0.025241009891 -0.058071490377 -0.021396869794
v 0.024719469249 -0.056906040758 -0.021646140143
v 0.024272620678 -0.057383768260 -0.021988209337
v 0.024571059272 -0.056816868484 -0.021700730547
v 0.024325370789 -0.059368491173 -0.022245280445
v 0.023455850780 -0.058687441051 -0.022656500340
v 0.023318700492 -0.060457881540 -0.022968230769
v 0.022571859881 -0.059781901538 -0.023224649951
v 0.023053700104 -0.060698211193 -0.023128980771
v 0.022340890020 -0.060023300350 -0.023350829259
v 0.022155940533 -0.061391469091 -0.023595450446
v 0.021562270820 -0.060719430447 -0.023716680706
v 0.021246790886 -0.061926361173 -0.023958200589
v 0.020778590813 -0.061256401241 -0.024000879377
v 0.020371669903 -0.062302350998 -0.024214679375
v 0.020027449355 -0.061633821577 -0.024201629683
v 0.019556460902 -0.062541060150 -0.024378120899
v 0.019329600036 -0.061873309314 -0.024329539388
v 0.018777310848 -0.062674522400 -0.024469729513
v 0.018663760275 -0.062007300556 -0.024401180446
v 0.025071019307 -0.065531842411 -0.021571040154
v 0.027999989688 -0.065531842411 -0.014499959536
v 0.027962500229 -0.061966888607 -0.015364579856
v 0.027729980648 -0.061560861766 -0.016808090732
v 0.026660200208 -0.065531842411 -0.019499950111
v 0.026898259297 -0.060066811740 -0.019062990323
v 0.017999999225 -0.065531842411 -0.024499950930
v 0.020588150248 -0.065531842411 -0.024159250781
v 0.022999940440 -0.065531842411 -0.023160209879
v 0.022749960423 -0.066031813622 -0.022727189586
v 0.024717500433 -0.066031813622 -0.021217459813
v 0.027659229934 -0.065531842411 -0.017088169232
v 0.026227230206 -0.066031813622 -0.019249970093
v 0.027176259086 -0.066031813622 -0.016958769411
v 0.027499970049 -0.066031813622 -0.014499959536
v 0.011715110391 -0.000642923987 0.000000000000
v 0.026651499793 -0.059610299766 -0.019515089691
v 0.026268480346 -0.058888848871 -0.020124189556
v 0.027999989688 -0.062031861395 -0.014499959536
v 0.027443820611 -0.061054460704 -0.017788350582
v -0.008499979042 -0.071531832218 -0.024499950930
v 0.008499979042 -0.071531832218 -0.001999974018
v 0.008499979042 -0.071531832218 -0.024499950930
v -0.008499979042 -0.071531832218 -0.001999974018
f 9 2 8
f 2 114 8
f 6 1 5
f 5 1 7
f 3 7 1
f 1 6 116
f 10 108 2
f 10 2 9
f 56 15 44
f 57 58 56
f 57 3 58
f 111 94 95
f 115 105 106
f 4 108 66
f 66 96 112
f 99 100 115
f 100 99 89
f 113 24 17
f 80 16 78
f 86 88 16
f 16 84 86
f 16 88 90
f 88 89 90
f 56 44 64
f 64 57 56
f 38 57 64
f 64 22 38
f 107 106 94
f 115 106 107
f 97 112 104
f 112 96 104
f 94 106 104
f 95 94 104
f 104 96 95
f 104 105 97
f 104 106 105
f 4 66 59
f 95 96 67
f 96 66 67
f 67 111 95
f 67 66 108
f 10 111 67
f 108 10 67
f 91 99 14
f 91 89 99
f 91 90 89
f 103 105 115
f 115 102 103
f 115 100 101
f 101 102 115
f 101 100 83
f 43 15 46
f 43 42 15
f 45 44 15
f 15 42 45
f 32 24 113
f 113 23 32
f 113 18 20
f 20 21 113
f 27 23 113
f 113 21 27
f 27 21 22
f 22 32 27
f 27 32 23
f 38 22 39
f 22 21 39
f 82 84 16
f 16 80 82
f 83 84 82
f 82 80 83
f 85 84 83
f 85 86 84
f 83 100 85
f 92 12 16
f 16 90 92
f 90 91 92
f 14 12 92
f 92 91 14
f 52 51 15
f 11 54 15
f 13 54 11
f 15 51 50
f 50 49 15
f 3 57 65
f 7 3 65
f 16 59 68
f 81 101 83
f 79 101 81
f 83 80 81
f 78 79 81
f 81 80 78
f 93 103 102
f 102 101 93
f 97 105 93
f 105 103 93
f 46 15 55
f 21 20 19
f 19 39 21
f 88 86 87
f 86 85 87
f 87 89 88
f 100 89 87
f 87 85 100
f 15 54 53
f 53 52 15
f 72 59 66
f 72 68 59
f 77 79 78
f 77 101 79
f 77 93 101
f 42 43 47
f 47 43 46
f 46 55 47
f 7 65 25
f 39 19 63
f 26 20 18
f 26 19 20
f 52 53 29
f 29 17 24
f 49 50 33
f 24 32 33
f 32 37 33
f 48 37 55
f 15 49 48
f 48 55 15
f 49 33 48
f 48 33 37
f 44 45 34
f 22 64 34
f 34 64 44
f 42 47 35
f 35 47 55
f 35 45 42
f 35 34 45
f 22 34 35
f 35 32 22
f 78 16 71
f 71 70 78
f 16 70 71
f 78 70 75
f 75 77 78
f 98 112 97
f 97 109 98
f 98 66 112
f 98 109 66
f 110 109 97
f 97 93 110
f 93 72 110
f 66 109 110
f 110 72 66
f 68 72 73
f 73 77 68
f 73 72 93
f 93 77 73
f 62 63 57
f 39 63 62
f 57 63 41
f 41 65 57
f 41 60 65
f 41 19 60
f 41 63 19
f 40 26 25
f 65 60 40
f 40 25 65
f 60 19 40
f 19 26 40
f 51 52 28
f 52 29 28
f 28 29 24
f 30 53 54
f 30 29 53
f 30 54 13
f 13 17 30
f 17 29 30
f 31 50 51
f 31 33 50
f 51 28 31
f 24 33 31
f 31 28 24
f 55 37 36
f 36 35 55
f 36 37 32
f 32 35 36
f 16 68 69
f 69 74 16
f 68 77 69
f 77 75 69
f 75 74 69
f 76 70 16
f 16 74 76
f 76 75 70
f 76 74 75
f 61 57 38
f 61 62 57
f 38 39 61
f 39 62 61
f 3 1 2
f 3 108 4
f 2 108 3
f 4 58 3
f 116 113 115
f 115 114 116
f 2 1 116
f 116 114 2
f 113 116 18
f 18 116 6
f 9 94 111
f 111 10 9
f 115 113 17
f 17 99 115
f 13 14 17
f 14 99 17
f 107 94 9
f 9 8 107
f 107 114 115
f 107 8 114
f 59 58 4
f 59 15 56
f 56 58 59
f 16 15 59
f 11 15 16
f 16 12 11
f 11 14 13
f 11 12 14
f 26 18 6
f 26 6 5
f 5 7 26
f 7 25 26

