# https://github.com/mikedh/trimesh
v -0.009999990463 -0.004968105815 0.000000000000
v 0.011720949784 0.000665791973 0.000000000000
v -0.012697570026 0.004968105815 0.000000000000
v 0.012697570026 0.004968105815 0.000000000000
v 0.027999989688 0.066531829536 -0.001999974018
v 0.027999989688 0.062031861395 -0.001999974018
v -0.027499970049 0.066031813622 -0.001999974018
v -0.027999989688 0.065531842411 -0.001999974018
v 0.017999939620 0.062051471323 -0.024424849078
v -0.017999939620 0.062051471323 -0.024424849078
v 0.017999999225 0.062718570232 -0.024499950930
v -0.017999939620 0.062718570232 -0.024499950930
v 0.017999999225 0.066531829536 -0.024499950930
v 0.027999989688 0.066531829536 -0.014499959536
v 0.027659229934 0.066531829536 -0.017088169232
v 0.027176259086 0.067031860352 -0.016958769411
v 0.026660200208 0.066531829536 -0.019499950111
v 0.025071019307 0.066531829536 -0.021571040154
v 0.020588150248 0.066531829536 -0.024159250781
v 0.027999989688 0.062031861395 -0.014499959536
v 0.026227230206 0.067031860352 -0.019249970093
v 0.027499970049 0.067031860352 -0.014499959536
v 0.022749960423 0.067031860352 -0.022727189586
v 0.024717500433 0.067031860352 -0.021217459813
v 0.027499970049 0.067031860352 -0.001999974018
v 0.020374709740 0.062301270664 -0.024213910103
v 0.019556460902 0.062541060150 -0.024378120899
v 0.018780229613 0.062674157321 -0.024469489232
v 0.021246790886 0.061926361173 -0.023958200589
v 0.023000000045 0.066531829536 -0.023160209879
v 0.022159209475 0.061389200389 -0.023593960330
v 0.025247389451 0.058061178774 -0.021390190348
v 0.024328939617 0.059364020824 -0.022242359817
v 0.023318700492 0.060457881540 -0.022968230769
v 0.023060139269 0.060692600906 -0.023125229403
v 0.025564780459 0.057519968599 -0.021040139720
v 0.026343639940 0.059031598270 -0.020012080669
v 0.026651380584 0.059610061347 -0.019515270367
v 0.027964169160 0.061969749629 -0.015345389955
v 0.024546079338 0.056765191257 -0.021698830649
v 0.024278340861 0.057373400778 -0.021982900798
v 0.023459069431 0.058682970703 -0.022654170170
v 0.022571859881 0.059781901538 -0.023224649951
v 0.022346429527 0.060017641634 -0.023347910494
v 0.021565070376 0.060717161745 -0.023715490475
v 0.020778590813 0.061256401241 -0.024000879377
v 0.020030019805 0.061632689089 -0.024201089516
v 0.019329600036 0.061873309314 -0.024329539388
v 0.018666259944 0.062006950378 -0.024400999770
v 0.025314919651 0.057160068303 -0.021270930767
v 0.024949660525 0.057032641023 -0.021532889456
v 0.024189589545 0.056403331459 -0.021724930033
v 0.009999990463 -0.004968105815 -0.003884077072
v 0.008871853352 -0.004968105815 -0.004999995232
v 0.011105169542 -0.001585006015 -0.003991841804
v 0.009999990463 -0.004968105815 0.000000000000
v -0.008811295033 -0.004968105815 -0.004999995232
v 0.027698209509 0.061505008489 -0.016938140616
v 0.027860520408 0.061789389700 -0.016164239496
v 0.026957450435 0.060175411403 -0.018945630640
v 0.027485659346 0.061128970236 -0.017665620893
v 0.025391280651 0.057173311710 -0.021202979609
v 0.011561330408 0.000052343101 -0.004101811908
v -0.009999990463 -0.004968105815 -0.003941117786
v -0.011098920368 -0.001606403966 -0.004048525821
v -0.011537309736 -0.000037938400 -0.004153013229
v -0.025041339919 0.057035319507 -0.021470060572
v -0.024719469249 0.056906040758 -0.021646140143
v -0.024571059272 0.056816868484 -0.021700730547
v -0.025247389451 0.058061178774 -0.021390190348
v -0.023993669078 0.056256528944 -0.021723920479
v -0.024359999225 0.056654509157 -0.021746689454
v -0.024278340861 0.057373400778 -0.021982900798
v -0.024328939617 0.059364080429 -0.022242359817
v -0.023459069431 0.058682970703 -0.022654170170
v -0.023318700492 0.060457881540 -0.022968230769
v -0.022571859881 0.059781901538 -0.023224649951
v -0.023060139269 0.060692600906 -0.023125229403
v -0.022346429527 0.060017641634 -0.023347910494
v -0.022159209475 0.061389200389 -0.023593960330
v -0.021565129980 0.060717161745 -0.023715490475
v -0.021246790886 0.061926361173 -0.023958200589
v -0.020778590813 0.061256401241 -0.024000879377
v -0.020374709740 0.062301270664 -0.024213910103
v -0.020030079409 0.061632689089 -0.024201089516
v -0.019556460902 0.062541060150 -0.024378120899
v -0.019329600036 0.061873309314 -0.024329539388
v -0.018780229613 0.062674157321 -0.024469489232
v -0.018666259944 0.062006950378 -0.024400999770
v -0.025071019307 0.065531842411 -0.021571040154
v -0.027999989688 0.062031801790 -0.014499959536
v -0.027999989688 0.065531842411 -0.014499959536
v -0.027964590117 0.061970468611 -0.015340560116
v -0.027472009882 0.061104651541 -0.017706269398
v -0.026660200208 0.065531842411 -0.019499950111
v -0.026949280873 0.060160510242 -0.018961960450
v -0.026343639940 0.059031598270 -0.020012080669
v -0.026651620865 0.059610538185 -0.019514849409
v -0.017999999225 0.065531842411 -0.024499950930
v -0.020588150248 0.065531842411 -0.024159250781
v -0.022999940440 0.065531842411 -0.023160209879
v -0.022749960423 0.066031813622 -0.022727189586
v -0.024717500433 0.066031813622 -0.021217459813
v -0.027659229934 0.065531842411 -0.017088169232
v -0.027176259086 0.066031873226 -0.016958769411
v -0.027499970049 0.066031813622 -0.014499959536
v -0.026227230206 0.066031873226 -0.019249970093
v -0.027999989688 0.062031801790 -0.001999974018
v -0.011720949784 0.000665795989 0.000000000000
v -0.025564780459 0.057519968599 -0.021040139720
v -0.025345740840 0.057081628591 -0.021234750748
v -0.027744229883 0.061585899442 -0.016747109592
v -0.008499979042 0.071531832218 -0.024499950930
v -0.008499979042 0.071531832218 -0.001999974018
v 0.008499979042 0.071531832218 -0.024499950930
v 0.008499979042 0.071531832218 -0.001999974018
f 1 109 65
f 8 3 7
f 3 114 7
f 25 116 4
f 25 4 5
f 108 109 3
f 108 3 8
f 66 65 109
f 109 108 66
f 66 108 91
f 55 56 53
f 55 2 56
f 53 36 55
f 4 2 6
f 5 4 6
f 115 19 13
f 75 73 74
f 74 76 75
f 99 100 113
f 1 65 64
f 75 57 71
f 104 107 95
f 2 55 63
f 20 6 63
f 63 6 2
f 63 39 20
f 22 16 115
f 15 61 17
f 11 13 28
f 115 24 23
f 21 15 17
f 16 15 21
f 115 16 21
f 21 24 115
f 97 98 95
f 65 98 97
f 80 100 82
f 100 84 82
f 88 99 12
f 103 107 113
f 113 102 103
f 113 100 101
f 101 102 113
f 101 100 80
f 76 74 101
f 57 64 111
f 91 92 93
f 92 104 93
f 93 66 91
f 92 106 105
f 105 104 92
f 107 104 105
f 105 106 113
f 113 107 105
f 39 63 59
f 16 22 14
f 14 15 16
f 20 39 14
f 39 59 14
f 14 59 15
f 49 9 11
f 11 28 49
f 49 54 9
f 30 19 115
f 115 23 30
f 30 23 24
f 89 88 12
f 77 57 75
f 77 79 57
f 80 79 77
f 78 101 80
f 76 101 78
f 80 77 78
f 75 76 78
f 78 77 75
f 90 103 102
f 102 101 90
f 95 107 90
f 107 103 90
f 90 101 74
f 90 97 95
f 17 38 37
f 37 55 36
f 37 38 55
f 17 61 60
f 60 38 17
f 60 61 55
f 55 38 60
f 110 64 65
f 110 111 64
f 65 97 110
f 97 90 110
f 65 66 112
f 66 93 112
f 112 93 104
f 61 15 58
f 15 59 58
f 55 61 58
f 58 63 55
f 58 59 63
f 31 29 19
f 19 30 31
f 31 45 29
f 18 30 24
f 18 21 17
f 24 21 18
f 36 32 18
f 18 37 36
f 17 37 18
f 54 52 40
f 10 89 12
f 57 89 10
f 88 89 87
f 87 89 57
f 72 71 57
f 57 69 72
f 72 69 73
f 72 73 75
f 75 71 72
f 57 111 67
f 67 74 73
f 67 111 74
f 70 90 74
f 70 110 90
f 74 111 70
f 111 110 70
f 65 112 94
f 94 112 104
f 94 104 95
f 29 45 46
f 46 45 54
f 54 47 46
f 48 49 28
f 54 49 48
f 48 47 54
f 27 13 19
f 27 28 13
f 27 48 28
f 47 48 27
f 53 54 62
f 62 36 53
f 62 32 36
f 30 18 33
f 33 18 32
f 42 52 54
f 88 87 86
f 86 84 100
f 100 99 86
f 99 88 86
f 83 82 84
f 68 69 57
f 57 67 68
f 73 69 68
f 68 67 73
f 96 98 65
f 65 94 96
f 95 98 96
f 96 94 95
f 29 46 26
f 26 46 47
f 47 27 26
f 19 29 26
f 26 27 19
f 54 40 51
f 41 40 52
f 52 42 41
f 41 51 40
f 41 42 33
f 33 51 41
f 43 42 54
f 33 42 34
f 30 33 34
f 85 83 84
f 84 86 85
f 85 86 87
f 85 87 57
f 57 83 85
f 82 83 81
f 80 82 81
f 81 79 80
f 57 79 81
f 81 83 57
f 50 62 54
f 54 51 50
f 50 51 33
f 32 62 50
f 50 33 32
f 54 45 44
f 44 43 54
f 45 31 44
f 31 43 44
f 42 43 35
f 35 34 42
f 35 43 31
f 35 31 30
f 30 34 35
f 3 4 116
f 116 114 3
f 116 115 113
f 113 114 116
f 2 4 3
f 2 109 1
f 3 109 2
f 1 56 2
f 91 108 92
f 92 108 8
f 113 115 99
f 11 12 99
f 99 13 11
f 115 13 99
f 64 56 1
f 53 56 64
f 64 54 53
f 64 57 54
f 106 92 8
f 8 7 106
f 106 114 113
f 106 7 114
f 115 116 22
f 116 25 22
f 14 22 25
f 14 25 5
f 5 6 14
f 14 6 20
f 10 12 11
f 11 9 10
f 54 57 10
f 9 54 10

