# https://github.com/mikedh/trimesh
v 0.039511842606 0.035010460901 0.000000000000
v -0.054516332769 0.035010460901 0.000000000000
v -0.054173678368 0.036733078739 0.000000000000
v -0.051737557724 -0.039169199384 0.000000000000
v -0.053197896056 -0.038193417072 0.000000000000
v -0.054173678368 -0.036733078739 0.000000000000
v 0.035010460901 -0.039511842606 0.000000000000
v 0.036733078739 -0.039169199384 0.000000000000
v 0.038193417072 -0.038193417072 0.000000000000
v 0.039169199384 -0.036733078739 0.000000000000
v 0.039169199384 0.036733078739 0.000000000000
v 0.038193417072 0.038193417072 0.000000000000
v 0.035010460901 0.040011963833 0.003501034212
v -0.055016442817 -0.035010460901 0.000500150049
v -0.055016442817 0.035010460901 0.000500150049
v -0.055016442817 0.035010460901 0.003501034212
v 0.035010460901 -0.040011963833 0.000500150049
v -0.050014951065 -0.040011963833 0.000500150049
v 0.040011963833 0.035010460901 0.000500150049
v 0.040011963833 -0.035010460901 0.000500150049
v 0.040011963833 -0.035010460901 0.003501034212
v 0.039631266532 0.036924467058 0.000500150049
v 0.039631266532 0.036924467058 0.003501034212
v 0.038547094188 0.038547094188 0.003501034212
v 0.036924467058 0.039631266532 0.000500150049
v -0.054635756695 -0.036924467058 0.003501034212
v -0.054635756695 -0.036924467058 0.000500150049
v -0.053551584352 -0.038547094188 0.000500150049
v -0.051928957221 -0.039631266532 0.003501034212
v -0.051928957221 -0.039631266532 0.000500150049
v -0.051928957221 0.039631266532 0.003501034212
v -0.051928957221 0.039631266532 0.000500150049
v -0.053551584352 0.038547094188 0.000500150049
v -0.054635756695 0.036924467058 0.003501034212
v 0.036924467058 -0.039631266532 0.000500150049
v 0.038547094188 -0.038547094188 0.000500150049
v 0.039631266532 -0.036924467058 0.000500150049
v 0.039631266532 -0.036924467058 0.003501034212
v -0.054516332769 -0.035010460901 0.000000000000
v -0.054635756695 0.036924467058 0.000500150049
v -0.053197896056 0.038193417072 0.000000000000
v -0.051737557724 0.039169199384 0.000000000000
v -0.050014951065 0.040011963833 0.000500150049
v -0.050014951065 0.039511842606 0.000000000000
v -0.050014951065 -0.039511842606 0.000000000000
v 0.039511842606 -0.035010460901 0.000000000000
v 0.035010460901 0.039511842606 0.000000000000
v 0.035010460901 0.040011963833 0.000500150049
v 0.036733078739 0.039169199384 0.000000000000
v 0.038547094188 0.038547094188 0.000500150049
v -0.055016442817 -0.035010460901 0.003501034212
v -0.053551584352 -0.038547094188 0.003501034212
v -0.050014951065 0.040011963833 0.003501034212
v -0.053551584352 0.038547094188 0.003501034212
v 0.035010460901 -0.040011963833 0.003501034212
v -0.050014951065 -0.040011963833 0.003501034212
v 0.036924467058 -0.039631266532 0.003501034212
v 0.038547094188 -0.038547094188 0.003501034212
v 0.040011963833 0.035010460901 0.003501034212
v 0.036924467058 0.039631266532 0.003501034212
v 0.035339700233 0.006919611398 0.086025762486
v 0.035996856023 0.001000287055 0.086025762486
v -0.012778953497 -0.033667109423 0.086025762486
v 0.035339700233 -0.006919611398 0.086025762486
v 0.035996856023 -0.001000287055 0.086025762486
v 0.033351523650 -0.013581293872 0.086025762486
v 0.014375882386 -0.033016802772 0.086025762486
v 0.007763688009 -0.035163929291 0.086025762486
v -0.006071540078 0.035495255412 0.086025762486
v 0.000862136589 0.036000437101 0.086025762486
v 0.033351523650 0.013581293872 0.086025762486
v -0.023314844100 0.027444361954 0.086025762486
v -0.021836870541 0.028634369876 0.086025762486
v -0.022378243106 0.028213252226 0.086025762486
v -0.022913703724 0.027780163490 0.086025762486
v -0.018232798584 -0.031053855835 0.086025762486
v -0.018232798584 0.031053855835 0.086025762486
v -0.012778953497 0.033667109423 0.086025762486
v 0.007763688009 0.035163929291 0.086025762486
v 0.014375882386 0.033016802772 0.086025762486
v 0.020452314306 0.029639130600 0.086025762486
v 0.025766468465 0.025156766619 0.086025762486
v 0.030120284410 0.019736840230 0.086025762486
v -0.006071540078 -0.035495255412 0.086025762486
v 0.000862136589 -0.036000437101 0.086025762486
v 0.020452314306 -0.029639130600 0.086025762486
v 0.025766468465 -0.025156766619 0.086025762486
v 0.030120284410 -0.019736840230 0.086025762486
v -0.025051953939 0.025868419263 0.086025762486
v -0.024512902927 0.026379803559 0.086025762486
v -0.025187535570 0.025736420574 0.086025762486
v -0.026272130861 0.024628216624 0.086025762486
v -0.020756625832 0.029426816637 0.086025762486
v -0.021314692705 0.029025135932 0.086025762486
v -0.023446192532 -0.027332219429 0.086025762486
v -0.022378243106 -0.028213252226 0.086025762486
v -0.021836870541 -0.028634369876 0.086025762486
v -0.021314692705 -0.029025135932 0.086025762486
v -0.020756625832 -0.029426816637 0.086025762486
v -0.018401058951 0.030954465078 0.086025762486
v -0.019015523146 0.030580803236 0.086025762486
v -0.025728546673 -0.025195517536 0.086025762486
v -0.025187535570 -0.025736420574 0.086025762486
v -0.025051953939 -0.025868419263 0.086025762486
v -0.024512902927 -0.026379803559 0.086025762486
v -0.019610501954 -0.030202679019 0.086025762486
v -0.019015523146 -0.030580803236 0.086025762486
v -0.026820175559 -0.024030258553 0.086025762486
v -0.048014372996 0.000000000000 0.086025762486
v -0.055016442817 0.028494316555 0.059507148363
v -0.055016442817 0.025363658658 0.069464420021
v -0.055016442817 0.026810751473 0.066281292435
v -0.055016442817 0.027858386385 0.062945471552
v -0.055016442817 0.012514823830 0.082051682429
v -0.055016442817 0.010278263517 0.082891883109
v -0.055016442817 0.007422229319 0.083748599231
v -0.055016442817 0.018657016605 0.078395032717
v -0.055016442817 0.016438520055 0.080023741345
v -0.055016442817 0.015713873426 0.080467638528
v -0.055016442817 0.000000000000 0.084725395125
v -0.055016442817 0.003743101680 0.084478982665
v -0.055016442817 -0.015667420023 0.080494826401
v -0.055016442817 0.020349103982 0.076800428175
v -0.055016442817 0.021704320343 0.075237490649
v -0.055016442817 0.024178182048 0.071591505917
v -0.055016442817 -0.012814543489 0.081924686442
v -0.055016442817 -0.010273971627 0.082893135183
v -0.055016442817 -0.007422229319 0.083748599231
v -0.055016442817 -0.003743101680 0.084478982665
v -0.055016442817 -0.028494316555 0.059507148363
v -0.055016442817 -0.018144382100 0.078812688533
v -0.055016442817 -0.019866519231 0.077290234705
v -0.055016442817 -0.022583223498 0.074065185029
v -0.055016442817 -0.020343741681 0.076803886282
v -0.055016442817 -0.027858386385 0.062945471552
v -0.055016442817 -0.026810751473 0.066281292435
v -0.055016442817 -0.025363658658 0.069464420021
v -0.055016442817 -0.023890445586 0.072070759259
v -0.018401058951 -0.030954465078 0.086025762486
v -0.020189675202 -0.029818654035 0.086025762486
v -0.022913703724 -0.027780163490 0.086025762486
v -0.023314844100 -0.027444361954 0.086025762486
v -0.023978383227 -0.026866558161 0.086025762486
v -0.026272130861 -0.024628216624 0.086025762486
v -0.020189675202 0.029818654035 0.086025762486
v -0.019610501954 0.030202679019 0.086025762486
v -0.023446192532 0.027332219429 0.086025762486
v -0.023978383227 0.026866558161 0.086025762486
v -0.025728546673 0.025195517536 0.086025762486
v -0.026820175559 0.024030258553 0.086025762486
v -0.054988125842 0.026919864428 0.066323087828
v -0.052965606683 0.029407020094 0.059618944331
v -0.054524855065 0.028969450353 0.059565347404
v -0.054988125842 0.025466509384 0.069518974635
v -0.054899586387 0.025572341237 0.069575071982
v -0.054899586387 0.027031718156 0.066365889351
v -0.054524855065 0.025786143900 0.069688414410
v -0.054524855065 0.027257806786 0.066452401641
v -0.054899586387 0.028729227456 0.059535890148
v -0.054988125842 0.028610341997 0.059521342251
v -0.052965606683 0.028750633808 0.063167379153
v -0.054524855065 0.028322845887 0.063060952939
v -0.054899586387 0.028087985292 0.063002530313
v -0.054988125842 0.027971730677 0.062973673009
v -0.055009589953 0.023939751554 0.072076542645
v -0.054988423955 0.023978983178 0.072100443826
v -0.055009589953 0.010292867310 0.082934938028
v -0.055014773387 0.016969939384 0.079685741228
v -0.055009709198 0.018167159769 0.078820081727
v -0.054543222530 0.015836990222 0.080677330963
v -0.054903100389 0.015768249172 0.080560224862
v -0.054903517747 0.018211403412 0.078876126904
v -0.054988904662 0.015739211137 0.080510797786
v -0.054899586387 0.007483222700 0.083976536159
v -0.054900957705 0.010338781316 0.083070340792
v -0.054532006042 0.010403591005 0.083261662035
v -0.054538449001 0.013180573649 0.082101526863
v -0.053000728079 0.010532609500 0.083643007731
v -0.052965606683 0.007659765475 0.084636199822
v -0.054524855065 0.007545826356 0.084210316096
v -0.055009649575 0.013069850886 0.081850225356
v -0.054988423955 0.010307831634 0.082979051247
v -0.054988725794 0.013084044774 0.081882361899
v -0.054902209778 0.013114093597 0.081950622242
v -0.054532427126 0.024230947986 0.072254091083
v -0.054539108576 0.022496647859 0.074694389031
v -0.054901017327 0.024060246822 0.072150049770
v -0.054902329023 0.022367389942 0.074598806664
v -0.054988725794 0.022309371632 0.074555945519
v -0.054988904662 0.020383504318 0.076833228019
v -0.055009649575 0.021361436767 0.075701890529
v -0.054992895645 0.022283083686 0.074582052734
v -0.054903219635 0.020423395517 0.076871088325
v -0.054988953105 0.018180632597 0.078837200846
v -0.055009832169 0.015729667806 0.080486054436
v -0.055014773387 0.016352125147 0.080091711029
v -0.055014833009 0.015725196117 0.080474606911
v -0.054988125842 0.007452279539 0.083860816283
v -0.055016442817 0.018727967415 0.078337019996
v -0.055010361319 0.018175091429 0.078812450043
v -0.055014773387 0.019290327110 0.077852832890
v -0.055014833009 0.020352925413 0.076812352681
v -0.055009709198 0.020362757541 0.076819090027
v -0.050591795308 0.003900744113 0.085677686161
v -0.050591795308 0.000000000000 0.085934487847
v -0.052965606683 0.003862942731 0.085390603683
v -0.052965606683 0.000000000000 0.085644901223
v -0.054524855065 0.003805467545 0.084953510922
v -0.054524855065 0.000000000000 0.085204044789
v -0.054899586387 0.003773926994 0.084713530242
v -0.054899586387 0.000000000000 0.084962036944
v -0.054988125842 0.000000000000 0.084842262735
v -0.054988125842 0.003758305425 0.084594821787
v -0.054988125842 -0.007452279539 0.083860816283
v -0.054988125842 -0.003758305425 0.084594821787
v -0.054899586387 -0.007483222700 0.083976536159
v -0.054899586387 -0.003773926994 0.084713530242
v -0.054524855065 -0.007545826356 0.084210316096
v -0.054524855065 -0.003805467545 0.084953510922
v -0.052965606683 -0.007659765475 0.084636199822
v -0.052965606683 -0.003862942731 0.085390603683
v -0.050591795308 -0.003900744113 0.085677686161
v -0.054532427126 -0.024219144589 0.072271448692
v -0.054539168198 -0.022478582233 0.074717522573
v -0.054903219635 -0.020418204630 0.076874538979
v -0.055014773387 -0.019831818919 0.077339177348
v -0.055009709198 -0.018156666204 0.078828317089
v -0.055014773387 -0.019292056163 0.077850261668
v -0.055014892632 -0.018150163622 0.078820022105
v -0.055009832169 -0.020357275995 0.076822376719
v -0.054988904662 -0.020378263125 0.076836619050
v -0.054988953105 -0.018170200518 0.078845421302
v -0.054903517747 -0.018200909847 0.078884414436
v -0.054903100389 -0.015721855392 0.080588016414
v -0.055009649575 -0.022264839192 0.074559165135
v -0.055009589953 -0.023928548108 0.072094064215
v -0.054988725794 -0.022291846335 0.074579190852
v -0.054988423955 -0.023967658624 0.072117972849
v -0.054902329023 -0.022349674598 0.074622066903
v -0.054524855065 -0.025786143900 0.069688414410
v -0.054899586387 -0.025572341237 0.069575071982
v -0.054901017327 -0.024048743401 0.072167459549
v -0.055014833009 -0.020347673041 0.076815810788
v -0.054988423955 -0.010303540675 0.082980362943
v -0.055009589953 -0.010288576352 0.082936190101
v -0.055009649575 -0.013045763384 0.081860957411
v -0.055009832169 -0.015683285205 0.080513361555
v -0.055014833009 -0.015678753893 0.080501735161
v -0.055014773387 -0.016935950816 0.079708636279
v -0.054988904662 -0.015692826673 0.080538291225
v -0.054902150155 -0.013090006095 0.081961652410
v -0.054543159181 -0.015790486513 0.080705592041
v -0.054538389379 -0.013156426524 0.082112922219
v -0.055016442817 -0.016636889799 0.079895314418
v -0.054988666172 -0.013059897650 0.081893146124
v -0.054900957705 -0.010334490357 0.083071704657
v -0.054532006042 -0.010399299115 0.083263092976
v -0.053000668456 -0.010528257987 0.083644498295
v -0.054988125842 -0.025466509384 0.069518974635
v -0.054524855065 -0.028969450353 0.059565347404
v -0.052965606683 -0.029407020094 0.059618944331
v -0.052965606683 -0.028750633808 0.063167379153
v -0.054524855065 -0.027257806786 0.066452401641
v -0.054524855065 -0.028322845887 0.063060952939
v -0.054899586387 -0.027031718156 0.066365889351
v -0.054899586387 -0.028087985292 0.063002530313
v -0.054899586387 -0.028729227456 0.059535890148
v -0.054988125842 -0.028610341997 0.059521342251
v -0.054988125842 -0.027971730677 0.062973673009
v -0.054988125842 -0.026919864428 0.066323087828
v -0.058517541077 -0.003792767713 0.013396518065
v -0.058517541077 -0.005164384229 0.014251864731
v -0.058517541077 -0.006349321441 0.015351305100
v -0.058517541077 0.002506291703 0.012881504248
v -0.058517541077 -0.000692884823 0.012531998845
v -0.058517541077 -0.002284079236 0.012816274406
v -0.058517541077 -0.004693783140 0.028095797707
v -0.058517541077 -0.001722613762 0.029332488206
v -0.058517541077 -0.007996274563 0.018116184370
v -0.058517541077 -0.008398727567 0.019681754603
v -0.058517541077 -0.008497641343 0.021295138378
v -0.058517541077 -0.006992470595 0.025843441150
v -0.058517541077 -0.005950626055 0.027079412453
v -0.058517541077 0.008486610243 0.021526466338
v -0.058517541077 0.008431697894 0.019910941742
v -0.058517541077 0.007420619976 0.016855646722
v -0.058517541077 0.004498996338 0.028221005018
v -0.058517541077 0.005783086748 0.027239200831
v -0.058517541077 0.006858140105 0.026032088696
v -0.058517541077 0.008234764680 0.023123165122
v -0.058517541077 0.008071995175 0.018335060537
v -0.058517541077 0.006501002087 0.015526297223
v -0.058517541077 0.005346411810 0.014395017492
v -0.058517541077 0.003998644539 0.013502649893
v -0.058517541077 0.000923402988 0.012553995832
v -0.058517541077 -0.007304832093 0.016655136156
v -0.058517541077 -0.008289379848 0.022898147833
v -0.058517541077 -0.007781515145 0.024432708762
v -0.058517541077 -0.003267254043 0.028855984953
v -0.058517541077 -0.000115782730 0.029508020658
v -0.058517541077 0.001495272477 0.029376312628
v -0.058517541077 0.003052255668 0.028942081749
v -0.058517541077 0.007685343074 0.024643362610
f 13 53 70
f 7 35 17
f 20 37 46
f 21 65 64
f 62 59 61
f 38 64 66
f 21 64 38
f 66 88 38
f 38 88 58
f 86 58 87
f 58 88 87
f 57 67 68
f 86 67 57
f 57 58 86
f 79 13 70
f 35 7 8
f 8 36 35
f 9 36 8
f 275 14 276
f 279 296 14
f 63 264 262
f 264 261 262
f 281 14 51
f 263 264 63
f 63 240 263
f 10 46 37
f 37 36 10
f 10 36 9
f 82 24 81
f 83 24 82
f 22 1 11
f 19 1 22
f 25 47 48
f 15 295 274
f 15 275 295
f 14 275 15
f 23 71 61
f 61 59 23
f 83 71 23
f 23 24 83
f 85 56 55
f 68 85 55
f 55 57 68
f 84 56 85
f 63 262 84
f 84 262 261
f 260 261 264
f 52 268 26
f 39 6 27
f 14 39 27
f 276 14 271
f 14 272 271
f 14 296 273
f 273 272 14
f 280 14 281
f 280 279 14
f 241 263 240
f 264 263 266
f 266 260 264
f 281 51 130
f 130 51 26
f 26 268 130
f 76 224 63
f 70 53 69
f 161 78 69
f 33 41 3
f 44 32 43
f 42 32 44
f 42 41 33
f 33 32 42
f 60 80 81
f 81 24 60
f 79 80 60
f 13 79 60
f 50 11 12
f 50 22 11
f 47 25 49
f 25 50 49
f 49 50 12
f 291 15 286
f 285 15 291
f 286 15 292
f 292 15 293
f 294 15 274
f 293 15 294
f 29 84 261
f 56 84 29
f 261 260 29
f 263 241 265
f 265 266 263
f 268 266 269
f 267 266 268
f 260 266 267
f 268 52 267
f 267 29 260
f 52 29 267
f 109 205 108
f 204 205 92
f 221 205 207
f 222 205 221
f 104 222 221
f 209 221 207
f 219 221 209
f 224 76 225
f 225 239 224
f 161 69 152
f 153 152 31
f 31 69 53
f 31 152 69
f 161 152 162
f 162 152 153
f 162 78 161
f 284 15 285
f 163 162 153
f 157 185 78
f 186 77 78
f 78 185 186
f 137 298 136
f 298 137 282
f 235 237 230
f 133 238 235
f 235 238 237
f 242 241 240
f 242 238 241
f 239 237 242
f 237 238 242
f 135 130 268
f 268 269 135
f 270 137 136
f 136 135 270
f 270 135 269
f 266 265 270
f 270 269 266
f 270 265 241
f 150 205 109
f 150 92 205
f 220 221 219
f 219 209 211
f 239 225 231
f 230 237 231
f 231 237 239
f 97 96 257
f 257 253 97
f 257 220 218
f 218 220 219
f 257 218 256
f 278 299 127
f 127 128 278
f 127 299 126
f 228 225 76
f 15 284 16
f 16 284 110
f 110 34 16
f 159 163 153
f 153 31 159
f 33 3 40
f 2 15 40
f 40 3 2
f 77 201 172
f 158 157 78
f 78 162 158
f 158 163 156
f 162 163 158
f 111 112 303
f 185 157 187
f 193 201 77
f 77 186 193
f 45 18 30
f 30 4 45
f 241 238 259
f 259 270 241
f 137 270 259
f 133 282 138
f 138 282 137
f 223 240 63
f 223 242 240
f 63 224 223
f 224 239 223
f 239 242 223
f 281 130 297
f 130 135 297
f 136 298 297
f 297 135 136
f 103 222 104
f 103 102 222
f 222 102 144
f 144 205 222
f 144 108 205
f 257 96 258
f 258 220 257
f 96 220 258
f 221 220 143
f 216 256 218
f 216 218 219
f 256 216 244
f 133 235 134
f 283 282 134
f 134 282 133
f 230 231 226
f 226 231 225
f 225 228 226
f 252 253 234
f 234 249 252
f 234 250 249
f 131 277 283
f 283 228 131
f 299 277 122
f 126 299 122
f 233 228 76
f 107 252 233
f 252 249 233
f 303 112 290
f 112 113 290
f 110 284 290
f 290 113 110
f 151 113 112
f 112 111 151
f 156 163 151
f 163 159 160
f 110 113 160
f 160 34 110
f 54 159 31
f 34 160 54
f 54 160 159
f 208 211 209
f 208 210 211
f 212 215 211
f 117 288 287
f 188 186 185
f 185 187 188
f 188 193 186
f 155 187 157
f 166 187 155
f 155 158 156
f 157 158 155
f 156 151 155
f 303 289 125
f 125 111 303
f 5 4 28
f 4 30 28
f 28 6 5
f 28 27 6
f 236 238 133
f 133 138 236
f 236 259 238
f 137 259 236
f 236 138 137
f 104 221 105
f 221 143 105
f 219 211 217
f 211 215 217
f 217 216 219
f 215 216 217
f 128 215 129
f 278 128 129
f 129 212 120
f 215 212 129
f 129 300 278
f 120 300 129
f 106 252 107
f 106 140 252
f 99 253 252
f 252 140 99
f 214 244 216
f 214 215 128
f 214 216 215
f 243 235 230
f 243 134 235
f 230 226 243
f 132 228 283
f 132 226 228
f 283 134 132
f 134 243 132
f 132 243 226
f 245 246 244
f 244 214 245
f 245 127 126
f 126 246 245
f 128 127 245
f 245 214 128
f 250 234 251
f 251 234 253
f 251 253 257
f 257 256 251
f 254 122 277
f 254 131 249
f 277 131 254
f 248 246 126
f 126 122 248
f 122 254 248
f 107 233 139
f 139 233 76
f 232 233 249
f 228 233 232
f 163 160 164
f 164 160 113
f 164 151 163
f 113 151 164
f 179 176 180
f 180 208 179
f 179 148 147
f 179 75 74
f 204 92 149
f 149 91 204
f 179 208 206
f 206 148 179
f 207 205 206
f 206 205 204
f 206 209 207
f 206 208 209
f 199 201 288
f 288 117 199
f 301 300 121
f 121 300 120
f 120 212 121
f 189 187 166
f 189 188 187
f 154 151 111
f 154 155 151
f 166 155 154
f 111 125 154
f 141 220 96
f 141 142 220
f 95 143 220
f 220 142 95
f 98 97 253
f 253 99 98
f 255 251 256
f 256 244 255
f 244 246 255
f 250 251 255
f 228 232 227
f 227 232 249
f 72 75 179
f 179 147 72
f 176 74 73
f 94 177 73
f 73 177 176
f 178 176 179
f 179 74 178
f 178 74 176
f 204 91 89
f 89 206 204
f 145 146 170
f 172 170 101
f 170 146 101
f 116 302 301
f 116 115 302
f 301 121 116
f 175 180 176
f 192 189 166
f 166 154 165
f 165 154 125
f 165 192 166
f 246 248 247
f 247 255 246
f 250 255 247
f 247 248 254
f 249 250 247
f 247 254 249
f 249 131 229
f 229 227 249
f 229 131 228
f 228 227 229
f 171 177 170
f 168 117 287
f 168 170 172
f 168 171 170
f 148 206 90
f 206 89 90
f 93 177 94
f 170 177 93
f 93 145 170
f 77 172 100
f 172 101 100
f 213 116 121
f 213 121 212
f 211 210 213
f 213 212 211
f 210 208 174
f 208 180 174
f 174 213 210
f 180 175 174
f 123 289 288
f 288 201 123
f 194 168 172
f 194 172 201
f 201 199 194
f 171 168 196
f 116 213 198
f 213 174 198
f 181 183 195
f 175 183 182
f 183 181 182
f 182 174 175
f 182 198 174
f 195 183 173
f 173 196 195
f 171 196 173
f 201 193 190
f 117 168 200
f 200 199 117
f 118 168 287
f 118 196 168
f 287 302 119
f 119 118 287
f 196 118 119
f 198 182 167
f 115 116 167
f 116 198 167
f 171 173 184
f 184 173 183
f 177 171 184
f 176 177 184
f 184 175 176
f 184 183 175
f 201 190 203
f 168 194 169
f 169 200 168
f 169 194 199
f 199 200 169
f 197 181 195
f 197 119 181
f 195 196 197
f 196 119 197
f 114 182 181
f 114 167 182
f 115 167 114
f 302 115 114
f 114 119 302
f 181 119 114
f 202 123 201
f 201 203 202
f 191 203 190
f 191 202 203
f 188 189 191
f 189 192 191
f 193 188 191
f 191 190 193
f 123 202 191
f 192 165 124
f 124 191 192
f 124 125 289
f 124 165 125
f 289 123 124
f 123 191 124
f 59 20 19
f 21 20 59
f 21 59 62
f 62 65 21
f 38 20 21
f 38 37 20
f 37 38 36
f 36 38 58
f 58 57 36
f 36 57 35
f 19 20 1
f 20 46 1
f 2 39 15
f 15 39 14
f 23 59 19
f 19 22 23
f 35 57 55
f 17 35 55
f 26 51 27
f 27 51 14
f 13 48 43
f 53 13 43
f 43 47 44
f 48 47 43
f 60 48 13
f 60 25 48
f 50 23 22
f 24 23 50
f 25 60 50
f 50 60 24
f 18 45 7
f 18 7 17
f 17 55 18
f 18 55 56
f 53 43 31
f 31 43 32
f 4 10 9
f 12 11 4
f 11 1 4
f 4 42 44
f 4 39 2
f 4 49 12
f 7 45 4
f 9 8 4
f 5 6 4
f 4 1 46
f 4 8 7
f 4 6 39
f 46 10 4
f 2 3 4
f 44 47 4
f 4 3 41
f 41 42 4
f 47 49 4
f 40 16 34
f 15 16 40
f 30 18 56
f 56 29 30
f 290 280 281
f 290 273 296
f 290 275 276
f 274 295 290
f 290 302 287
f 286 292 290
f 290 294 274
f 295 275 290
f 276 271 290
f 296 279 290
f 290 291 286
f 283 277 290
f 290 271 272
f 272 273 290
f 279 280 290
f 290 289 303
f 290 299 278
f 285 291 290
f 290 292 293
f 293 294 290
f 281 297 290
f 290 282 283
f 278 300 290
f 287 288 290
f 290 284 285
f 298 282 290
f 290 277 299
f 290 300 301
f 301 302 290
f 288 289 290
f 290 297 298
f 54 31 32
f 54 32 33
f 54 40 34
f 33 40 54
f 26 27 28
f 28 52 26
f 28 30 29
f 28 29 52
f 100 67 86
f 100 79 70
f 86 87 100
f 66 64 100
f 100 62 61
f 63 84 100
f 81 80 100
f 100 88 66
f 68 67 100
f 61 71 100
f 108 144 100
f 100 85 68
f 100 64 65
f 65 62 100
f 100 87 88
f 100 149 92
f 109 108 100
f 100 82 81
f 100 71 83
f 100 76 63
f 70 69 100
f 83 82 100
f 100 80 79
f 100 84 85
f 143 95 100
f 100 150 109
f 100 69 78
f 78 77 100
f 104 105 100
f 100 93 94
f 100 103 104
f 92 150 100
f 96 97 100
f 100 147 148
f 102 103 100
f 100 144 102
f 75 72 100
f 100 106 107
f 107 139 100
f 94 73 100
f 100 141 96
f 100 105 143
f 140 106 100
f 100 99 140
f 100 139 76
f 97 98 100
f 100 74 75
f 91 149 100
f 148 90 100
f 142 141 100
f 100 95 142
f 100 98 99
f 100 72 147
f 100 73 74
f 100 89 91
f 146 145 100
f 100 101 146
f 100 90 89
f 145 93 100

