# https://github.com/mikedh/trimesh
v 0.055771733369 -0.036398591584 -0.000050022046
v 0.232180143095 -0.031888465994 -0.000050022046
v 0.059306110634 -0.036017255528 0.015224961020
v 0.055765770276 -0.035789823169 0.017302025495
v 0.055501061134 -0.035574969210 0.018910985324
v 0.032283699783 -0.033020264730 0.037226686277
v 0.033091997009 -0.032901543280 0.037983220131
v 0.030242710156 -0.032192878153 0.039837089771
v 0.028972809918 -0.032064731290 0.039926238008
v 0.028840852265 -0.032185547276 0.039812465924
v 0.029041091057 -0.032003076637 0.039956951662
v 0.031311961638 -0.032457825819 0.039451460288
v 0.028382469324 -0.032632663699 0.038466953671
v 0.030439676700 -0.032824019346 0.038184060822
v 0.028444956946 -0.032562712894 0.038939413238
v 0.030958044628 -0.032656754594 0.039106737621
v 0.028608468677 -0.032403203889 0.039428860166
v 0.030252614480 -0.032186564729 0.039840548364
v 0.029110020683 -0.031941239365 0.039967565967
v 0.019475274657 -0.031847085857 0.038466953671
v 0.019541763141 -0.031605278718 0.039424387846
v 0.019630082136 -0.031284050637 0.039894272103
v 0.019656973821 -0.031186255916 0.039952598605
v 0.041606339397 0.012289096581 0.039967565967
v 0.063580455535 -0.036321969568 -0.000050022046
v 0.019112783837 -0.033165406408 -0.000050022046
v 0.019678142800 -0.031109332019 0.039967565967
v 0.041087609956 0.012497678113 0.039967565967
v 0.019112783837 -0.033165406408 0.000050022046
v 0.055771733369 -0.036398591584 0.000050022046
v 0.063580455535 -0.036321969568 0.000050022046
v 0.232180143095 -0.031888465994 0.000050022046
v 0.059208498532 -0.035827919878 -0.016558248933
v 0.061473937108 -0.035980519149 -0.014556495524
v 0.059306110634 -0.036017255528 -0.015224961020
v 0.055765770276 -0.035789823169 -0.017302025495
v 0.055501061134 -0.035574969210 -0.018910985324
v 0.032283699783 -0.033020264730 -0.037226686277
v 0.033091997009 -0.032901543280 -0.037983220131
v 0.029041091057 -0.032003076637 -0.039956951662
v 0.028972809918 -0.032064731290 -0.039926238008
v 0.030242710156 -0.032192878153 -0.039837089771
v 0.028840852265 -0.032185547276 -0.039812465924
v 0.031311961638 -0.032457825819 -0.039451460288
v 0.028608468677 -0.032403203889 -0.039428860166
v 0.030958044628 -0.032656754594 -0.039106737621
v 0.028444956946 -0.032562712894 -0.038939413238
v 0.030439676700 -0.032824019346 -0.038184060822
v 0.028382469324 -0.032632663699 -0.038466953671
v 0.030252614480 -0.032186564729 -0.039840548364
v 0.029110020683 -0.031941239365 -0.039967565967
v 0.019656973821 -0.031186255916 -0.039952598605
v 0.019630082136 -0.031284050637 -0.039894272103
v 0.019541763141 -0.031605278718 -0.039424387846
v 0.019475274657 -0.031847085857 -0.038466953671
v 0.041606339397 0.012289096581 -0.039967565967
v 0.031455362839 -0.029679920913 -0.039967565967
v 0.042121196554 0.009855023605 -0.039967565967
v 0.032765402145 -0.028252293145 -0.039967565967
v 0.035329230156 -0.025023759182 -0.039967565967
v 0.037570458576 -0.021558181100 -0.039967565967
v 0.039479252027 -0.017860651753 -0.039967565967
v 0.040187361840 -0.016215967408 -0.039967565967
v 0.041551423039 -0.012322431202 -0.039967565967
v 0.042532646229 -0.008311537603 -0.039967565967
v 0.043123648354 -0.004191278553 -0.039967565967
v 0.043231524429 -0.002794185547 -0.039967565967
v 0.043281375884 0.001333466690 -0.039967565967
v 0.042922159176 0.005512760009 -0.039967565967
v 0.041138061448 0.012604005647 -0.039939472347
v 0.041087609956 0.012497678113 -0.039967565967
v 0.019678142800 -0.031109332019 -0.039967565967
v 0.269427648020 -0.030383321747 0.030367765528
v 0.270360365176 -0.030261078345 0.030706403977
v 0.270913114061 -0.030101748233 0.030895437745
v 0.270265224031 -0.030262869136 0.031008857633
v 0.271029454001 -0.030012778889 0.031747081064
v 0.270095037363 -0.030263769190 0.031513570078
v 0.285025130899 -0.024895252669 0.032416676752
v 0.282104646582 -0.026150666318 0.032082859092
v 0.283009635357 -0.025790547691 0.032416799741
v 0.280932809405 -0.026521919157 0.032416919003
v 0.289135431118 -0.022406496268 0.032416919003
v 0.288265654406 -0.023038105192 0.032082859092
v 0.287423993676 -0.023562205143 0.032416799741
v 0.285488224684 -0.024661739819 0.032416676752
v 0.285106974347 -0.024854765133 0.032416676752
v 0.295710128504 -0.015604398203 0.032416438228
v 0.295672411942 -0.015659791608 0.032416497859
v 0.294396548612 -0.017380020885 0.032416617121
v 0.293468542299 -0.018502274945 0.032082859092
v 0.292933921216 -0.019058340800 0.032416799741
v 0.292574555430 -0.019431684449 0.032416799741
v 0.290968933069 -0.020943751474 0.032416919003
v 0.289251294011 -0.022321399208 0.032416919003
v 0.296874959046 -0.013735924577 0.032416378597
v 0.297392167898 -0.012823331927 0.032082859092
v 0.297889489836 -0.011777641182 0.032416438228
v 0.297992233924 -0.011556053586 0.032416438228
v 0.300401919715 -0.002476233440 0.032416919003
v 0.300371478126 -0.002795318068 0.032416919003
v 0.300062261950 -0.004979062740 0.032416919003
v 0.299793833329 -0.006352124948 0.032082859092
v 0.299584051725 -0.007118799786 0.032416799741
v 0.299581636672 -0.007127922852 0.032416799741
v 0.298929870632 -0.009238320550 0.032416617121
v 0.298105204717 -0.011306193477 0.032416497859
v 0.299692699275 0.006695896315 0.032416919003
v 0.300141392191 0.004523899868 0.032416799741
v 0.300422224046 0.002237769360 0.032416676752
v 0.300512564901 -0.000063742892 0.032416799741
v 0.300418825083 -0.002279629805 0.032416919003
v 0.295958252794 0.015233254377 0.032416497859
v 0.297104538118 0.013324762808 0.032416617121
v 0.298087076915 0.011346571069 0.032416799741
v 0.298090893294 0.011338037324 0.032416799741
v 0.298421218818 0.010615018847 0.032082859092
v 0.298906853094 0.009303020107 0.032416919003
v 0.299563031823 0.007197333252 0.032416919003
v 0.299644368408 0.006887252428 0.032416919003
v 0.292857265658 0.019139196612 0.032416497859
v 0.292903390181 0.019090593678 0.032416438228
v 0.294353435451 0.017433573185 0.032416378597
v 0.295010538459 0.016615973535 0.032082859092
v 0.295669609288 0.015663904279 0.032416438228
v 0.295806581529 0.015461635240 0.032416438228
v 0.291321500929 0.020631993530 0.032416617121
v 0.290225126692 0.021590447022 0.032082859092
v 0.289608155298 0.022053300420 0.032416799741
v 0.289193452011 0.022364037184 0.032416799741
v 0.287365644813 0.023598341485 0.032416919003
v 0.285448808641 0.024682008744 0.032416919003
v 0.285320870485 0.024747367968 0.032416919003
v 0.283445835593 0.025612909021 0.032416799741
v 0.284360723102 0.025230971065 0.032082859092
v 0.281358514598 0.026387039589 0.032416676752
v 0.280951235362 0.026516257946 0.032416676752
v 0.280863995314 0.026543028505 0.032416676752
v 0.278730758505 0.027102726256 0.032416799741
v 0.277779645207 0.027312688617 0.032082859092
v 0.276563293543 0.027490806198 0.032416919003
v 0.285463030617 -0.024613017624 0.032619548622
v 0.300234744409 0.002222622638 0.032781979542
v 0.300047056064 0.002207416985 0.032875361575
v 0.300136085039 -0.000062860104 0.032875421206
v 0.300367602116 0.002233356438 0.032619548622
v 0.300364203153 -0.002275098786 0.032619775965
v 0.300008325776 -0.004969283267 0.032619775965
v 0.300324369693 -0.000063289196 0.032782098804
v 0.300043657101 -0.002248682053 0.032875540468
v 0.300231315630 -0.002264125997 0.032782218066
v 0.299996936269 -0.002757393264 0.032875600099
v 0.300184207197 -0.002776355666 0.032782218066
v 0.299691983704 -0.004911560995 0.032875600099
v 0.299217768751 -0.007031261118 0.032875480837
v 0.298574887719 -0.009113036903 0.032875301944
v 0.298752468622 -0.009175708076 0.032781919911
v 0.298315284475 -0.009817456120 0.032875238586
v 0.297933318568 -0.011229569598 0.032781800650
v 0.297761342972 -0.011152825526 0.032875119325
v 0.297548758715 -0.011617950489 0.032875119325
v 0.297719124275 -0.011697855933 0.032781737292
v 0.296547913223 -0.013549572337 0.032875059694
v 0.295398914692 -0.015392764314 0.032875119325
v 0.296827343751 -0.013708792504 0.032619246741
v 0.294386053568 -0.016786039077 0.032875238586
v 0.294249886345 -0.017262197626 0.032781919911
v 0.289218675893 -0.022277339406 0.032619775965
v 0.290933035251 -0.020902362020 0.032619775965
v 0.292894087756 -0.019020713685 0.032619667884
v 0.294353852867 -0.017345675334 0.032619488991
v 0.294103134632 -0.017144307281 0.032875238586
v 0.292660304704 -0.018799837002 0.032875421206
v 0.292797157683 -0.018929113126 0.032782098804
v 0.292305828654 -0.019168057981 0.032875480837
v 0.292440296396 -0.019299907552 0.032782098804
v 0.290722031213 -0.020659666007 0.032875600099
v 0.289027588585 -0.022018654851 0.032875600099
v 0.289139456206 -0.022170061503 0.032782218066
v 0.287225005270 -0.023242585233 0.032875480837
v 0.287324529289 -0.023402455751 0.032782098804
v 0.285315563333 -0.024327262492 0.032875361575
v 0.284858850057 -0.024557564589 0.032875361575
v 0.282870665479 -0.025440752669 0.032875421206
v 0.282940195141 -0.025615709811 0.032782098804
v 0.280821985326 -0.026162230991 0.032875540468
v 0.280877412273 -0.026342141227 0.032782218066
v 0.278715940219 -0.026720497600 0.032875600099
v 0.276555004844 -0.027111909419 0.032875480837
v 0.300457734263 -0.000063616839 0.032619667884
v 0.300316975458 -0.002789772625 0.032619775965
v 0.299877167550 -0.004945371731 0.032782218066
v 0.299399762343 -0.007079621335 0.032782098804
v 0.299528624778 -0.007113849487 0.032619667884
v 0.298878140802 -0.009220073486 0.032619488991
v 0.298055174368 -0.011283833743 0.032619366002
v 0.297839876904 -0.011754380462 0.032619306372
v 0.296711480858 -0.013642773614 0.032781677661
v 0.295664808999 -0.015573564355 0.032619306372
v 0.295554581229 -0.015498611074 0.032781737292
v 0.292535437541 -0.019393228091 0.032619667884
v 0.290845497049 -0.020801768372 0.032782218066
v 0.287394983230 -0.023515635251 0.032619667884
v 0.285401879101 -0.024494536561 0.032781979542
v 0.284942005386 -0.024726499007 0.032781979542
v 0.278756876851 -0.026904218625 0.032782218066
v 0.285000920742 -0.024846051563 0.032619548622
v 0.282989331026 -0.025739624742 0.032619667884
v 0.280916619608 -0.026469507298 0.032619775965
v 0.273950147027 -0.027989376658 0.032713169179
v 0.274293889510 -0.027808337161 0.032754847470
v 0.274486586853 -0.027716686289 0.032775237521
v 0.275496227906 -0.027339699563 0.032850018431
v 0.272727504300 -0.028674718637 0.032545423652
v 0.271506859209 -0.029359641337 0.032364686037
v 0.271661452389 -0.029589281903 0.032201714711
v 0.271613926540 -0.029525113435 0.032275597431
v 0.270817972916 -0.029625828208 0.032287642878
v 0.270119068627 -0.029915164923 0.032156212587
v 0.269441273687 -0.030263528803 0.031680711842
v 0.270874204881 -0.029786539149 0.032213760159
v 0.270930019429 -0.029910092568 0.032089422221
v 0.270982852431 -0.029988266850 0.031929074656
v 0.270164984442 -0.030081468127 0.031993360523
v 0.270216505563 -0.030190777208 0.031785308216
v 0.275720440195 -0.019081950921 0.034923743574
v 0.277383874740 -0.018748673666 0.034923743574
v 0.278780669591 -0.018347776802 0.034923743574
v 0.280351676198 -0.017754985749 0.034923743574
v 0.281868627370 -0.017026534336 0.034923743574
v 0.283328481927 -0.016161403246 0.034923743574
v 0.283957170799 -0.015732545067 0.034923743574
v 0.285281842043 -0.014700208855 0.034923743574
v 0.286512892731 -0.013555054655 0.034923743574
v 0.287102940761 -0.012928758475 0.034923743574
v 0.287646685376 -0.012298400870 0.034923743574
v 0.288522574258 -0.011152945720 0.034923743574
v 0.290218925075 -0.008248030665 0.034923743574
v 0.289579532453 -0.009483821080 0.034923743574
v 0.289433078894 -0.009739102013 0.034923743574
v 0.290785180365 -0.006924641019 0.034923743574
v 0.290876713839 -0.006681525727 0.034923743574
v 0.291328298855 -0.005300175285 0.034923743574
v 0.291718881432 -0.003667659609 0.034923743574
v 0.291966200705 -0.002003897327 0.034923743574
v 0.292022223961 -0.001362744660 0.034923743574
v 0.292067632913 -0.000310230746 0.034923743574
v 0.292006898813 0.001557022223 0.034923743574
v 0.280739426306 0.016223011311 0.035077650999
v 0.280094040775 0.016524622680 0.035077650999
v 0.285646992029 0.012678427840 0.035077650999
v 0.284665079357 0.013605086867 0.035077650999
v 0.289120940803 0.007691793371 0.035077650999
v 0.288495650894 0.008900272821 0.035077650999
v 0.290554766460 0.003192639173 0.035077650999
v 0.290206223688 0.004742268325 0.035077650999
v 0.289727387338 0.006242224216 0.035077650999
v 0.283428333916 0.014595733606 0.035077650999
v 0.282118659850 0.015468558018 0.035077650999
v 0.275562060451 0.017860711384 0.035077650999
v 0.278396616601 -0.017178050933 0.035077650999
v 0.279867353803 -0.016623065888 0.035077650999
v 0.283243448224 -0.014729372106 0.035077650999
v 0.284483383921 -0.013763056649 0.035077650999
v 0.285635900677 -0.012691064007 0.035077650999
v 0.286697271560 -0.011514544870 0.035077650999
v 0.287517435340 -0.010442022072 0.035077650999
v 0.288369889268 -0.009118165162 0.035077650999
v 0.290144595124 -0.004961889032 0.035077650999
v 0.290510132711 -0.003433667383 0.035077650999
v 0.290741649788 -0.001876226928 0.035077650999
v 0.287651992528 0.010248997691 0.035077650999
v 0.286701177385 0.011508762534 0.035077650999
v 0.278614716719 0.017104348970 0.035077650999
v 0.277102923624 0.017549374583 0.035077650999
v 0.281288090472 -0.015940835898 0.035077650999
v 0.282654890967 -0.015130809375 0.035077650999
v 0.289105734916 -0.007721906523 0.035077650999
v 0.289721692584 -0.006255165059 0.035077650999
v 0.290836582225 -0.000290763170 0.035077650999
v 0.290779664504 0.001457737543 0.035077650999
v 0.277089029618 -0.017553377309 0.035077650999
v 0.265527338113 0.029481825108 0.030706403977
v 0.266098572586 0.029413424707 0.030895437745
v 0.266227643729 0.029344373956 0.031747081064
v 0.265265021662 0.029441807165 0.031513570078
v 0.265433180878 0.029468348518 0.031008857633
v 0.300087277124 0.004514955229 0.032619667884
v 0.299770040589 0.004462540109 0.032875421206
v 0.299639478672 0.006682658249 0.032619775965
v 0.298855212711 0.009284594150 0.032619775965
v 0.292863675983 0.019052847301 0.032619306372
v 0.285423704020 0.024633238099 0.032619775965
v 0.283424726245 0.025562286090 0.032619667884
v 0.281341489968 0.026334856936 0.032619548622
v 0.280847984410 0.026490616647 0.032619548622
v 0.278718951581 0.027049181410 0.032619667884
v 0.299955820744 0.004493249571 0.032782098804
v 0.299510109375 0.006650517179 0.032782218066
v 0.299510109375 0.007183080994 0.032619775965
v 0.299381366202 0.007148495988 0.032782218066
v 0.298729570346 0.009239930585 0.032782218066
v 0.298037076382 0.011324211335 0.032619667884
v 0.297056415960 0.013298471159 0.032619488991
v 0.296939479710 0.013234483446 0.032781919911
v 0.295912336980 0.015203140759 0.032619366002
v 0.295800886776 0.015129968952 0.032781800650
v 0.295624289783 0.015632959554 0.032619306372
v 0.294310829153 0.017399168003 0.032619246741
v 0.292766835356 0.018961136798 0.032781737292
v 0.291284887540 0.020591205975 0.032619488991
v 0.289574732163 0.022009771706 0.032619667884
v 0.289493902440 0.021903803820 0.032782098804
v 0.289160953155 0.022319846940 0.032619667884
v 0.289082001807 0.022212399462 0.032782098804
v 0.287336753629 0.023551710099 0.032619775965
v 0.285362791028 0.024514684361 0.032782218066
v 0.281300195551 0.026208141215 0.032781979542
v 0.278690239289 0.026919005232 0.032782098804
v 0.276555809862 0.027436482423 0.032619775965
v 0.299402266842 0.006296369099 0.032875540468
v 0.299327430027 0.006605079343 0.032875540468
v 0.299199581318 0.007099658258 0.032875600099
v 0.298552287598 0.009176841995 0.032875600099
v 0.297915399474 0.011269706803 0.032782098804
v 0.297743543140 0.011192723275 0.032875480837
v 0.296774421302 0.013144082960 0.032875301944
v 0.295643520757 0.015026633213 0.032875119325
v 0.295514360168 0.015557707187 0.032781737292
v 0.295358872524 0.015451440215 0.032875119325
v 0.294207071339 0.017315442454 0.032781677661
v 0.294060617780 0.017197140283 0.032875059694
v 0.292630280532 0.018831620286 0.032875119325
v 0.291195739303 0.020492101237 0.032781919911
v 0.291069798783 0.020352089682 0.032875238586
v 0.289379649583 0.021754187959 0.032875421206
v 0.288970581418 0.022060692791 0.032875480837
v 0.287266627658 0.023438349842 0.032782218066
v 0.287167580687 0.023278240801 0.032875600099
v 0.285276743599 0.024347240716 0.032875600099
v 0.283373294570 0.025439261896 0.032782098804
v 0.283300872808 0.025265495509 0.032875480837
v 0.281241846688 0.026029132897 0.032875361575
v 0.280809075230 0.026363129450 0.032781979542
v 0.280754035883 0.026183040321 0.032875361575
v 0.278649720074 0.026735163081 0.032875421206
v 0.276537592613 0.027304405508 0.032782218066
v 0.276511772421 0.027117872512 0.032875540468
v 0.274354325455 0.027518359413 0.032782218066
v 0.274343323549 0.027330395275 0.032875600099
v 0.266803797753 0.028776452727 0.032364686037
v 0.266882838547 0.028957013313 0.032275597431
v 0.266919451937 0.029027914486 0.032201714711
v 0.266110677664 0.029096074500 0.032213760159
v 0.266146008989 0.029227022154 0.032089422221
v 0.266185514478 0.029312650302 0.031929074656
v 0.265396686750 0.029389333812 0.031785308216
v 0.277399080626 0.018744441733 0.034923743574
v 0.275753147759 0.019076938196 0.034923743574
v 0.274310019676 0.019248144180 0.034923743574
v 0.279013289841 0.018269242870 0.034923743574
v 0.280593181456 0.017650029726 0.034923743574
v 0.284155234925 0.015589491403 0.034923743574
v 0.282756025021 0.016521872204 0.034923743574
v 0.281282574612 0.017327847550 0.034923743574
v 0.286524878548 0.013541638628 0.034923743574
v 0.285476238868 0.014531394631 0.034923743574
v 0.287650680648 0.012292547721 0.034923743574
v 0.287836371357 0.012064107227 0.034923743574
v 0.288666046270 0.010947154729 0.034923743574
v 0.289567129220 0.009506778987 0.034923743574
v 0.290234935979 0.008215948294 0.034923743574
v 0.290882796194 0.006667512925 0.034923743574
v 0.291394340108 0.005065050537 0.034923743574
v 0.291552719852 0.004441251402 0.034923743574
v 0.291766705436 0.003409755847 0.034923743574
v 0.280180803775 -0.027529924086 0.025091019141
v 0.283411130393 -0.026448397950 0.025091019141
v 0.283411130393 -0.026448397950 0.018288021022
v 0.283441929767 -0.026435992853 0.025091019141
v 0.287193669218 -0.024589288242 0.018288021022
v 0.286547508485 -0.024957330328 0.025091019141
v 0.287711712903 -0.024277770685 0.025091019141
v 0.289452488761 -0.023115448368 0.025091019141
v 0.291198243802 -0.021748345992 0.018288021022
v 0.291585516862 -0.021414118369 0.025091019141
v 0.292114562453 -0.020937128714 0.025091019141
v 0.294494909827 -0.018454154650 0.025091019141
v 0.294921897085 -0.017939126054 0.025091019141
v 0.294921897085 -0.017939126054 0.018288021022
v 0.296558915129 -0.015702610341 0.025091019141
v 0.297625682611 -0.013952139798 0.025091019141
v 0.297625682611 -0.013952139798 0.018288021022
v 0.298276673450 -0.012722547273 0.025091019141
v 0.299540729856 -0.009785554506 0.018288021022
v 0.299619561943 -0.009566827331 0.025091019141
v 0.299619561943 -0.009566827331 0.018288021022
v 0.299622960905 -0.009557286383 0.025091019141
v 0.300822496648 -0.005045790214 0.018288021022
v 0.300578397445 -0.006252958249 0.025091019141
v 0.300846796251 -0.004908459255 0.025091019141
v 0.301128939986 -0.002857632621 0.025091019141
v 0.301272084028 -0.000156466969 0.018288021022
v 0.301272292736 -0.000109964468 0.025091019141
v 0.301266597982 0.000579225308 0.025091019141
v 0.300876104852 0.004737498317 0.018288021022
v 0.300989463246 0.004007674461 0.025091019141
v 0.297732541234 0.013759895278 0.025091019141
v 0.297738832297 0.013748559811 0.025091019141
v 0.299212580861 0.010640599584 0.025091019141
v 0.299692580014 0.009359372265 0.025091019141
v 0.299692580014 0.009359372265 0.018288021022
v 0.300301471417 0.007377836070 0.025091019141
v 0.300883827057 0.004691641668 0.025091019141
v 0.295901424520 0.016656401440 0.025091019141
v 0.295059644528 0.017767681546 0.018288021022
v 0.295059644528 0.017767681546 0.025091019141
v 0.294855348970 0.018021112989 0.018288021022
v 0.293727370341 0.019321846143 0.025091019141
v 0.282359240828 0.026848044428 0.025091019141
v 0.283614799827 0.026365451329 0.025091019141
v 0.283614799827 0.026365451329 0.018288021022
v 0.285522333575 0.025496747974 0.025091019141
v 0.287898596230 0.024161669269 0.025091019141
v 0.288499765428 0.023774429751 0.025091019141
v 0.291248065442 0.021706067664 0.025091019141
v 0.291750098223 0.021268264846 0.025091019141
v 0.275661912439 0.028364462647 0.025091019141
v 0.279021190939 0.027816569956 0.025091019141
v 0.279056403001 0.027808637179 0.025091019141
v 0.278338983310 0.027961413480 0.018288021022
v 0.279021190939 0.027816569956 0.018288021022
v 0.283053464089 0.026589659891 0.018288021022
v 0.287462604702 0.024429417725 0.018288021022
v 0.287898596230 0.024161669269 0.018288021022
v 0.291435962495 0.021544706374 0.018288021022
v 0.291750098223 0.021268264846 0.018288021022
v 0.297619480995 0.013963114684 0.018288021022
v 0.297732541234 0.013759895278 0.018288021022
v 0.299646485306 0.009491037354 0.018288021022
v 0.300846796251 -0.004908459255 0.018288021022
v 0.297464708922 -0.014235094141 0.018288021022
v 0.294656181671 -0.018262498985 0.018288021022
v 0.291585516862 -0.021414118369 0.018288021022
v 0.287711712903 -0.024277770685 0.018288021022
v 0.282761034019 -0.026700998287 0.018288021022
v 0.280688024446 0.027388121740 -0.019728646469
v 0.286669066131 0.024889820664 -0.022930055814
v 0.286669066131 0.024889820664 -0.025231090327
v 0.288952960479 0.023468044181 -0.025231090327
v 0.301272501444 0.000004783318 -0.019728646469
v 0.290488933916 -0.022330401614 -0.022930055814
v 0.288960861577 -0.023462621493 -0.022930055814
v 0.284987414337 -0.025757633283 -0.025231090327
v 0.283572789838 -0.026382688394 -0.025231090327
v 0.280697207609 -0.027385499843 -0.019728646469
v 0.279394540177 -0.027729862860 -0.025231090327
v 0.276201542520 -0.028304054654 -0.025231090327
v 0.271607128614 0.028489206821 -0.025231090327
v 0.274850842375 0.028435773783 -0.025231090327
v 0.276191941940 0.028305245409 -0.019728646469
v 0.276191941940 0.028305245409 -0.025231090327
v 0.290201602291 0.022555512093 -0.025231090327
v 0.292507828422 0.020566645487 -0.025231090327
v 0.296222566881 0.016200880783 -0.025231090327
v 0.298431534969 0.012407048420 -0.025231090327
v 0.299803642616 0.009033548876 -0.019728646469
v 0.299803642616 0.009033548876 -0.025231090327
v 0.300902521353 0.004578403002 -0.025231090327
v 0.301269698791 0.000399313005 -0.025231090327
v 0.301014478420 -0.003827112943 -0.025231090327
v 0.300904012126 -0.004568980849 -0.019728646469
v 0.299806653978 -0.009024424412 -0.019728646469
v 0.299806653978 -0.009024424412 -0.025231090327
v 0.298008751691 -0.013246168313 -0.025231090327
v 0.296340516856 -0.016028664800 -0.025231090327
v 0.295556966466 -0.017124867599 -0.025231090327
v 0.293600416095 -0.019458635765 -0.025231090327
v 0.290488933916 -0.022330401614 -0.025231090327
v 0.299536525876 -0.009198308198 -0.025431159544
v 0.299900185089 -0.008062220694 -0.025431159544
v 0.293312190006 0.019473072039 -0.025431159544
v 0.296057985521 0.016087229825 -0.025431159544
v 0.298251360121 0.012319979812 -0.025431159544
v 0.299840464714 0.008260672421 -0.025431159544
v 0.279347938607 -0.027535287143 -0.025431159544
v 0.298340895959 -0.012133037785 -0.025431159544
v 0.296175041032 -0.015916204598 -0.025431159544
v 0.293454230876 -0.019322086530 -0.025431159544
v 0.290374979213 -0.022165348797 -0.025431159544
v 0.301069786105 0.000383143881 -0.025431159544
v 0.283148187817 0.026337778852 -0.025431159544
v 0.298008751691 -0.013246168313 -0.019728646469
v 0.284987414337 -0.025757633283 -0.019728646469
v 0.292514715794 -0.020559961233 -0.019728646469
v 0.295556966466 -0.017124867599 -0.019728646469
v 0.288952960479 0.023468044181 -0.019728646469
v 0.298004339003 0.013254642427 -0.019728646469
v 0.295551271712 0.017132502221 -0.019728646469
v 0.300902521353 0.004578403002 -0.019728646469
v 0.292507828422 0.020566645487 -0.019728646469
v 0.287360665631 -0.024490474204 -0.025231090327
v 0.287360665631 -0.024490474204 -0.022930055814
v 0.300763253321 0.004172435180 -0.025431159544
v 0.301269698791 0.000399313005 -0.022930055814
v 0.300963166007 0.004188595161 -0.022930055814
v 0.286583108148 0.024708609729 -0.025431159544
v 0.283234145800 0.026518999105 -0.022930055814
v 0.284978708222 0.025761684459 -0.022930055814
v 0.287246710928 -0.024325481018 -0.025431159544
v 0.283496849852 -0.026197586541 -0.025431159544
v 0.280697207609 -0.027385499843 -0.025231090327
v 0.275042913594 -0.028220267610 -0.025431159544
v 0.275059043760 -0.028419677159 -0.025231090327
v 0.292514715794 -0.020559961233 -0.025231090327
v 0.301272501444 0.000004783318 -0.025231090327
v 0.300816175770 -0.003800279026 -0.025431159544
v 0.300904012126 -0.004568980849 -0.025231090327
v 0.300092077414 -0.008119227861 -0.025231090327
v 0.298521667116 -0.012218785195 -0.025231090327
v 0.290079269443 0.022397251611 -0.025431159544
v 0.288389000980 0.023607755718 -0.025431159544
v 0.293457450946 0.019610644317 -0.025231090327
v 0.295551271712 0.017132502221 -0.025231090327
v 0.298004339003 0.013254642427 -0.025231090327
v 0.300963166007 0.004188595161 -0.025231090327
v 0.300373684470 0.006251229418 -0.025431159544
v 0.300031850177 0.008319051100 -0.025231090327
v 0.283234145800 0.026518999105 -0.025231090327
v 0.280688024446 0.027388121740 -0.025231090327
v 0.279146236994 0.027582816719 -0.025431159544
v 0.274836232798 0.028236194658 -0.025431159544
v 0.279191347791 0.027777753949 -0.025231090327
v 0.288003039800 -0.024095959713 -0.012925656735
v 0.294848968461 -0.018028926504 -0.019728646469
v 0.297454899634 -0.014252081502 -0.019728646469
v 0.299421378554 -0.010106184414 -0.019728646469
v 0.300697241884 -0.005698509883 -0.012925656735
v 0.301249573353 -0.001143302963 -0.019728646469
v 0.301249573353 -0.001143302963 -0.012925656735
v 0.301064001905 0.003441538898 -0.012925656735
v 0.300145387463 0.007937233338 -0.019728646469
v 0.300145387463 0.007937233338 -0.012925656735
v 0.293319971842 0.019754766679 -0.019728646469
v 0.293319971842 0.019754766679 -0.012925656735
v 0.289884783172 0.022797017351 -0.012925656735
v 0.286006149107 0.025248798849 -0.019728646469
v 0.281784398684 0.027046671321 -0.019728646469
v 0.277328924840 0.028144064875 -0.019728646469
v 0.277328924840 0.028144064875 -0.012925656735
v 0.291670848720 -0.021338744876 -0.019728646469
v 0.288003039800 -0.024095959713 -0.019728646469
v 0.289884783172 0.022797017351 -0.019728646469
v 0.300697241884 -0.005698509883 -0.019728646469
v 0.301064001905 0.003441538898 -0.019728646469
v 0.283940354877 -0.026229080988 -0.019728646469
v 0.298517582398 0.012227439134 -0.019728646469
v 0.283940354877 -0.026229080988 -0.012925656735
v 0.291670848720 -0.021338744876 -0.012925656735
v 0.294848968461 -0.018028926504 -0.012925656735
v 0.297454899634 -0.014252081502 -0.012925656735
v 0.299421378554 -0.010106184414 -0.012925656735
v 0.298517582398 0.012227439134 -0.012925656735
v 0.296222566881 0.016200880783 -0.012925656735
v 0.286006149107 0.025248798849 -0.012925656735
v 0.281784398684 0.027046671321 -0.012925656735
v 0.301071008539 0.003383875558 -0.008736586856
v 0.301055295790 0.003512619197 -0.008823945233
v 0.301056488409 0.003503138113 0.017887843456
v 0.288824992508 0.023555882401 -0.012925656735
v 0.284612932111 0.025932050019 -0.012925656735
v 0.286627831344 0.024912720804 -0.009554304836
v 0.286339694701 0.025070979423 -0.009095444847
v 0.288824992508 0.023555882401 0.017887843456
v 0.285954747247 0.025275761346 -0.012512715356
v 0.286339605255 0.025071040917 -0.012153967309
v 0.285954747247 0.025275761346 -0.008736586856
v 0.285299343720 0.025607186315 -0.008454889421
v 0.284978708222 0.025761744090 -0.008423702446
v 0.284612932111 0.025932050019 0.017887843456
v 0.282371047751 0.026843812495 0.017887843456
v 0.283984869365 0.026209991637 -0.008736586856
v 0.283277855270 0.026501650232 -0.009554304836
v 0.283091180650 0.026574992546 -0.010072319637
v 0.280059931884 0.027562188145 -0.012925656735
v 0.283027643897 0.026599623846 -0.010624672536
v 0.283091180650 0.026574992546 -0.011176976052
v 0.283277855270 0.026501650232 -0.011694994580
v 0.283984869365 0.026209991637 -0.012512715356
v 0.301015790300 0.003817213510 -0.009096280612
v 0.300970053379 0.004141963776 -0.009554304836
v 0.300929742872 0.004407678724 -0.010624672536
v 0.301056488409 0.003503138113 -0.012925656735
v 0.301179656090 0.002299070419 -0.012825593243
v 0.301128313861 0.002863536083 -0.012745567606
v 0.301268983220 0.000446399746 -0.009554304836
v 0.301246770699 0.001210864687 -0.012512715356
v 0.301268983220 0.000446399746 -0.011694994580
v 0.301271398272 0.000245743304 -0.010072789231
v 0.301271994581 0.000177705318 -0.010624672536
v 0.301251690251 0.001090827746 0.017887843456
v 0.290192806729 -0.022562375240 -0.012154206764
v 0.290579066063 -0.022258550073 -0.012925656735
v 0.288491059313 -0.023780212087 -0.012745507975
v 0.286561014890 -0.024949816831 -0.012925656735
v 0.289424462225 -0.023135657663 -0.012745447413
v 0.287401065584 -0.024466323679 -0.009554304836
v 0.286561014890 -0.024949816831 0.017887843456
v 0.287228493680 -0.024568829244 -0.010073029618
v 0.287682106147 -0.024295958118 -0.012153737171
v 0.287401065584 -0.024466323679 -0.011694994580
v 0.287169876478 -0.024603234425 -0.010624672536
v 0.288052056423 -0.024064886410 -0.008736586856
v 0.288960861577 -0.023462621493 -0.008423702446
v 0.290579066063 -0.022258550073 0.017887843456
v 0.289846052884 -0.022826120970 -0.008736586856
v 0.290368986305 -0.022425164476 -0.009377797290
v 0.292402579834 -0.020667179504 0.017887843456
v 0.277696191724 0.028081987215 0.017887843456
v 0.290764846219 0.022108574563 0.017887843456
v 0.292574943031 0.020502005561 0.017887843456
v 0.294242283402 0.018747723298 0.017887843456
v 0.295754762253 0.016858371393 -0.012925656735
v 0.295754762253 0.016858371393 0.017887843456
v 0.297101556572 0.014847564332 0.017887843456
v 0.298273065778 0.012729710438 0.017887843456
v 0.301026166082 -0.003739932527 0.017887843456
v 0.300607199183 -0.006123619233 -0.012925656735
v 0.299171763491 -0.010741734569 -0.012925656735
v 0.299171763491 -0.010741734569 0.017887843456
v 0.296976391254 -0.015050843369 -0.012925656735
v 0.296976391254 -0.015050843369 0.017887843456
v 0.284395458118 -0.026030383283 0.017887843456
v 0.282145970815 -0.026923356426 -0.012925656735
v 0.294084529782 -0.018926972003 -0.012925656735
v 0.301241463546 -0.001329351923 -0.012925656735
v 0.300057461660 0.008234911861 -0.012925656735
v 0.298273065778 0.012729710438 -0.012925656735
v 0.292574943031 0.020502005561 -0.012925656735
v 0.283582300971 0.026378806794 -0.009095921895
v 0.283582688572 0.026378626037 -0.012153737171
v 0.285488522839 0.025513685021 -0.012745507975
v 0.286627831344 0.024912720804 -0.011694994580
v 0.286802907748 0.024814566433 -0.010072729600
v 0.286862151075 0.024780942044 -0.010624672536
v 0.300940148469 0.004340296241 -0.010072199444
v 0.300940148469 0.004340296241 -0.011177036614
v 0.301009379976 0.003864620331 -0.012100003182
v 0.300970053379 0.004141963776 -0.011694994580
v 0.301219757889 0.001733291944 -0.012745447413
v 0.301261976586 0.000775248706 -0.012154026940
v 0.301271398272 0.000245748312 -0.011176496209
v 0.301261976586 0.000775226693 -0.009095266886
v 0.301219757889 0.001733291944 -0.008503847345
v 0.301246770699 0.001210864687 -0.008736586856
v 0.301128224415 0.002864132392 -0.008503906044
v 0.301179656090 0.002299070419 -0.008423702446
v 0.290662012684 -0.022191880832 -0.010624672536
v 0.290452022372 -0.022359624496 -0.011694994580
v 0.289846052884 -0.022826120970 -0.012512715356
v 0.288052056423 -0.024064886410 -0.012512715356
v 0.287682285040 -0.024295898487 -0.009095386148
v 0.288491357467 -0.023779912069 -0.008503668452
v 0.289423865916 -0.023136076942 -0.008503668452
v 0.282145970815 -0.026923356426 0.017887843456
v 0.288627226536 -0.023689571214 0.017887843456
v 0.294084529782 -0.018926972003 0.017887843456
v 0.295612781014 -0.017050325212 0.017887843456
v 0.300607199183 -0.006123619233 0.017887843456
v 0.298165521400 -0.012942884483 0.017887843456
v 0.299987514582 -0.008463178120 0.017887843456
v 0.301241463546 -0.001329351923 0.017887843456
v 0.300057461660 0.008234911861 0.017887843456
v 0.300657527686 0.005890223316 0.017887843456
v 0.299260703019 0.010520206604 0.017887843456
v 0.286769395167 0.024833415397 0.017887843456
v 0.280059931884 0.027562188145 0.017887843456
v 0.248428497551 -0.002972004973 -0.028494989158
v 0.248267225707 -0.000977681904 -0.028494989158
v -0.003754720997 -0.029777415617 -0.033264632272
v -0.003754720997 -0.029777415617 -0.036265976127
v -0.009598789508 -0.028436854593 -0.036265976127
v -0.015059847639 -0.025961392163 -0.036265976127
v -0.019919830677 -0.022449784595 -0.033264632272
v -0.019919830677 -0.022449784595 -0.036265976127
v -0.023984802074 -0.018042162707 -0.036265976127
v -0.029119024953 -0.007271454029 -0.033264632272
v -0.029983375251 -0.001338176834 -0.033264632272
v -0.029651059544 0.004648468876 -0.036265976127
v -0.028135360623 0.010449596132 -0.036265976127
v -0.025496747974 0.015833738751 -0.036265976127
v -0.017312760925 0.024516536647 -0.033264632272
v -0.012093980459 0.027468686850 -0.036265976127
v -0.006392494620 0.029324514994 -0.036265976127
v -0.000435943136 0.030010037729 -0.036265976127
v 0.005445734380 0.029006205101 -0.036766156622
v -0.029483615899 -0.001315874984 -0.036766156622
v -0.014808857337 -0.025528652384 -0.036766156622
v -0.009438860292 -0.027962904253 -0.036766156622
v -0.003692108290 -0.029281105542 -0.036766156622
v -0.023585045651 -0.017741449529 -0.036766156622
v -0.019587863439 -0.022075600523 -0.036766156622
v -0.000435943136 0.030010037729 -0.033264632272
v -0.012093980459 0.027468686850 -0.033264632272
v -0.021840596901 0.020585902550 -0.033264632272
v -0.025496747974 0.015833738751 -0.033264632272
v -0.029651059544 0.004648468876 -0.033264632272
v -0.015059847639 -0.025961392163 -0.033264632272
v -0.026641002119 -0.012699297733 -0.036766156622
v -0.027092531231 -0.012914502025 -0.036265976127
v -0.028972690656 -0.005621347462 -0.036766156622
v -0.029119024953 -0.007271454029 -0.036265976127
v -0.028633690696 -0.007150284450 -0.036766156622
v -0.011892372019 0.027010834997 -0.036766156622
v -0.017024203139 0.024107945530 -0.036766156622
v -0.017312760925 0.024516536647 -0.036265976127
v -0.021476546360 0.020242842095 -0.036766156622
v -0.021840596901 0.020585902550 -0.036265976127
v -0.025071819846 0.015569872828 -0.036766156622
v -0.027666424870 0.010275479413 -0.036766156622
v -0.029156830961 0.004571008767 -0.036766156622
v -0.029983375251 -0.001338176834 -0.036265976127
v -0.000428676956 0.029509846054 -0.036766156622
v -0.005590459108 0.028978663066 -0.036766156622
v -0.006285934618 0.028835779910 -0.036766156622
v -0.023716884042 -0.017564882351 0.036766156622
v -0.026640942488 -0.012699416995 0.036766156622
v -0.020024415871 0.021680366734 0.036766156622
v -0.021476665622 0.020242722834 0.036766156622
v -0.027666484501 0.010275298657 0.036766156622
v -0.009438681399 -0.027962965747 0.036766156622
v -0.025071881340 0.015569692072 0.036766156622
v -0.019587744177 -0.022075719785 0.036766156622
v -0.006286112579 0.028835720279 0.036766156622
v -0.029321893096 -0.003353165863 0.036766156622
v -0.029483615899 -0.001316054110 0.036766156622
v -0.029156890592 0.004570829874 0.036766156622
v -0.014808677513 -0.025528771645 0.036766156622
v -0.000436105229 0.030010037729 0.033264632272
v -0.000436105229 0.030010037729 0.036265976127
v -0.006392673513 0.029324514994 0.036265976127
v -0.012094100652 0.027468627220 0.033264632272
v -0.021840716162 0.020585783288 0.036265976127
v -0.025496807605 0.015833619490 0.033264632272
v -0.025496807605 0.015833619490 0.036265976127
v -0.028135420254 0.010449475938 0.033264632272
v -0.028135420254 0.010449475938 0.036265976127
v -0.029651059544 0.004648289983 0.036265976127
v -0.029118974639 -0.007271632922 0.033264632272
v -0.027092471600 -0.012914681849 0.033264632272
v -0.023984751760 -0.018042281969 0.033264632272
v -0.015059727446 -0.025961453657 0.033264632272
v -0.015059727446 -0.025961453657 0.036265976127
v -0.003754541871 -0.029777415617 0.036265976127
v -0.028787957769 -0.006501440791 0.036766156622
v -0.017564882351 0.023716884042 0.036766156622
v 0.026175526824 -0.003119233734 0.040767928553
v 0.026022279067 -0.002990908210 0.040767928553
v 0.025831035228 -0.002932767590 0.040767928553
v 0.022677274721 -0.012711582636 0.040767928553
v 0.023371201691 -0.012516166496 0.040767928553
v 0.020270574204 -0.011025219068 0.040767928553
v 0.020339384567 -0.011267676556 0.040767928553
v 0.025231871120 -0.008137533624 0.040767928553
v 0.026280063568 -0.003496757137 0.040767928553
v 0.022866489245 -0.012776161067 0.040767928553
v 0.023065837300 -0.012761494654 0.040767928553
v 0.023338887318 -0.002698299248 0.040767928553
v 0.023090107088 -0.002738669153 0.040767928553
v 0.022892549824 -0.002895260202 0.040767928553
v 0.022796476945 -0.003128297868 0.040767928553
v 0.020328770262 -0.010779951471 0.040767928553
v 0.020517742536 -0.011445854700 0.040767928553
v 0.026266286960 -0.003297351315 0.040767928553
v 0.023243535601 -0.012669954658 0.040767928553
v -0.009598671178 -0.028436914224 0.033264632272
v -0.021840716162 0.020585783288 0.033264632272
v -0.006392673513 0.029324514994 0.033264632272
v -0.018937045903 0.022870600052 0.036586074947
v -0.017312880187 0.024516415522 0.036265976127
v -0.029118974639 -0.007271632922 0.036265976127
v -0.029275082818 -0.004964632055 0.036586074947
v -0.029983315620 -0.001338355844 0.036265976127
v -0.027092471600 -0.012914681849 0.036265976127
v -0.023984751760 -0.018042281969 0.036265976127
v -0.019919709552 -0.022449844226 0.036265976127
v -0.022870600052 -0.018937045903 0.036586074947
v -0.023623682766 -0.017765480792 0.036720896748
v -0.017024324264 0.024107826268 0.036766156622
v -0.011892551844 0.027010775366 0.036766156622
v -0.012094100652 0.027468627220 0.036265976127
v -0.000428836021 0.029509846054 0.036766156622
v -0.028633690696 -0.007150403712 0.036766156622
v -0.003691929164 -0.029281165173 0.036766156622
v -0.009598671178 -0.028436914224 0.036265976127
v -0.021680366734 -0.020024415871 0.036766156622
f 1 35 25
f 458 73 514
f 514 73 2
f 2 35 514
f 74 73 458
f 34 35 2
f 2 25 34
f 34 25 35
f 31 73 3
f 17 15 16
f 684 708 753
f 686 702 685
f 681 699 700
f 52 699 698
f 698 702 52
f 745 747 732
f 758 24 28
f 28 759 758
f 513 514 42
f 458 514 513
f 46 514 39
f 39 514 37
f 3 73 220
f 220 225 16
f 16 7 220
f 54 55 681
f 2 73 32
f 73 31 32
f 30 31 3
f 16 12 10
f 10 17 16
f 688 687 781
f 781 783 688
f 721 697 689
f 689 697 722
f 689 720 721
f 52 702 72
f 72 697 721
f 721 720 72
f 72 40 52
f 737 747 748
f 688 783 748
f 748 747 707
f 748 707 688
f 682 699 681
f 729 770 728
f 729 732 770
f 770 732 730
f 737 772 730
f 730 747 737
f 730 732 747
f 746 744 690
f 690 689 746
f 720 689 690
f 741 792 740
f 790 741 791
f 790 769 28
f 762 772 737
f 15 17 21
f 17 10 21
f 26 55 1
f 681 55 26
f 479 490 515
f 515 489 478
f 515 490 489
f 510 490 479
f 56 679 58
f 50 513 42
f 42 514 44
f 514 46 44
f 48 46 39
f 33 514 35
f 35 37 33
f 33 37 514
f 457 74 458
f 457 512 74
f 74 512 377
f 224 12 16
f 16 225 224
f 224 225 222
f 73 74 76
f 74 77 76
f 3 220 5
f 5 220 7
f 53 54 681
f 681 700 53
f 53 699 52
f 53 700 699
f 215 214 11
f 11 218 215
f 347 349 350
f 360 792 28
f 350 792 360
f 252 758 757
f 768 759 28
f 28 769 768
f 750 686 751
f 751 686 685
f 793 781 784
f 784 727 793
f 763 762 793
f 793 727 763
f 40 72 51
f 51 57 489
f 489 490 51
f 490 510 51
f 51 50 40
f 711 712 722
f 722 697 711
f 697 72 711
f 753 795 731
f 754 795 680
f 680 29 754
f 770 730 771
f 771 730 772
f 778 739 695
f 791 741 704
f 28 792 734
f 734 790 28
f 792 741 734
f 741 790 734
f 784 785 726
f 726 727 784
f 786 785 684
f 786 684 753
f 753 733 786
f 20 21 754
f 754 29 20
f 15 21 20
f 20 13 15
f 29 30 20
f 30 13 20
f 474 481 519
f 387 515 618
f 495 478 618
f 618 515 495
f 495 515 478
f 494 633 454
f 633 494 382
f 380 633 382
f 382 494 454
f 605 382 454
f 608 382 605
f 454 510 502
f 502 510 479
f 502 605 454
f 511 510 454
f 511 51 510
f 70 696 532
f 696 723 532
f 555 470 526
f 58 679 69
f 517 481 678
f 65 678 64
f 489 57 59
f 39 37 38
f 38 48 39
f 1 48 38
f 222 225 223
f 223 225 77
f 558 633 380
f 454 633 556
f 633 558 556
f 77 377 378
f 75 77 74
f 74 377 75
f 75 377 77
f 665 378 377
f 8 10 12
f 12 224 8
f 8 224 219
f 225 220 78
f 77 225 78
f 78 76 77
f 78 220 73
f 73 76 78
f 4 30 3
f 3 5 4
f 52 40 41
f 41 53 52
f 41 50 42
f 40 50 41
f 42 44 43
f 43 41 42
f 43 44 46
f 46 45 43
f 53 41 43
f 54 53 43
f 43 45 54
f 46 48 47
f 47 45 46
f 55 54 47
f 54 45 47
f 694 778 695
f 693 778 694
f 28 260 359
f 359 360 28
f 24 758 259
f 737 748 736
f 736 748 783
f 736 762 737
f 783 781 782
f 682 752 683
f 683 698 699
f 699 682 683
f 685 702 683
f 702 698 683
f 776 752 682
f 776 682 681
f 23 733 738
f 738 731 23
f 738 733 753
f 753 731 738
f 23 731 22
f 754 21 22
f 22 21 10
f 794 795 754
f 794 731 795
f 754 22 794
f 794 22 731
f 27 23 11
f 11 19 27
f 760 773 27
f 27 773 763
f 763 727 27
f 727 726 27
f 27 733 23
f 745 732 743
f 732 729 743
f 743 706 745
f 743 729 728
f 770 769 756
f 728 770 756
f 791 780 789
f 789 790 791
f 780 756 789
f 769 790 789
f 789 756 769
f 785 786 787
f 535 635 478
f 629 520 537
f 537 520 474
f 488 60 61
f 488 59 60
f 489 59 488
f 487 62 678
f 61 62 487
f 487 488 61
f 594 470 555
f 555 595 594
f 554 519 518
f 518 517 471
f 518 519 481
f 481 517 518
f 216 217 222
f 479 515 551
f 515 387 551
f 651 470 597
f 381 382 608
f 453 502 479
f 455 511 454
f 512 511 455
f 454 556 455
f 455 634 512
f 455 558 380
f 455 556 558
f 512 457 486
f 486 511 512
f 458 513 486
f 486 457 458
f 513 50 486
f 50 51 486
f 51 511 486
f 70 532 531
f 460 723 695
f 460 532 723
f 593 555 648
f 555 526 648
f 679 678 68
f 68 69 679
f 68 678 67
f 64 678 63
f 678 62 63
f 504 526 470
f 471 517 516
f 516 600 451
f 470 600 516
f 67 678 66
f 678 65 66
f 1 38 36
f 36 38 37
f 36 35 1
f 36 37 35
f 456 377 512
f 456 665 377
f 446 665 634
f 378 665 446
f 634 455 446
f 10 8 9
f 9 22 10
f 11 23 9
f 23 22 9
f 221 8 219
f 222 217 221
f 221 224 222
f 219 224 221
f 221 215 218
f 217 215 221
f 30 4 6
f 6 5 7
f 6 4 5
f 55 47 49
f 49 47 48
f 1 55 49
f 49 48 1
f 693 714 715
f 693 694 725
f 725 714 693
f 350 360 348
f 360 359 348
f 348 347 350
f 758 252 258
f 258 259 758
f 28 24 250
f 781 793 755
f 755 782 781
f 755 793 762
f 735 736 783
f 783 782 735
f 782 755 735
f 762 736 735
f 735 755 762
f 712 711 713
f 713 709 712
f 713 711 72
f 72 709 713
f 712 709 710
f 710 749 712
f 710 709 686
f 750 749 710
f 710 686 750
f 702 686 701
f 686 709 701
f 701 72 702
f 701 709 72
f 766 19 767
f 766 27 19
f 760 27 766
f 733 27 796
f 796 27 726
f 796 786 733
f 796 787 786
f 691 690 744
f 780 743 779
f 779 743 728
f 728 756 779
f 779 756 780
f 788 726 785
f 785 787 788
f 788 796 726
f 787 796 788
f 474 520 480
f 520 487 480
f 480 481 474
f 678 481 480
f 480 487 678
f 597 470 650
f 470 594 650
f 82 223 77
f 77 378 82
f 226 19 11
f 226 227 19
f 227 226 188
f 214 215 188
f 188 215 217
f 278 764 761
f 278 279 764
f 270 765 764
f 767 19 775
f 479 551 658
f 615 658 385
f 385 658 551
f 632 391 631
f 628 519 554
f 628 400 519
f 414 592 500
f 567 656 595
f 567 595 555
f 555 541 567
f 405 600 599
f 405 651 653
f 607 381 503
f 605 502 612
f 608 605 612
f 612 381 608
f 609 502 503
f 503 381 609
f 609 612 502
f 381 612 609
f 453 614 666
f 502 453 552
f 445 662 552
f 138 137 420
f 626 498 409
f 676 423 424
f 421 423 580
f 421 433 420
f 695 703 283
f 283 703 740
f 573 423 676
f 425 620 574
f 527 504 679
f 491 504 470
f 470 516 491
f 491 516 517
f 491 517 678
f 491 678 679
f 679 504 491
f 378 446 379
f 379 446 455
f 380 378 379
f 379 455 380
f 18 221 218
f 8 221 18
f 18 218 11
f 11 9 18
f 18 9 8
f 14 7 16
f 14 6 7
f 16 15 14
f 15 13 14
f 14 13 30
f 30 6 14
f 714 725 71
f 71 715 714
f 71 696 70
f 71 723 696
f 70 531 71
f 695 723 724
f 724 694 695
f 724 725 694
f 723 71 724
f 724 71 725
f 757 774 253
f 253 254 757
f 24 259 249
f 249 250 24
f 28 250 274
f 720 690 719
f 690 691 719
f 719 71 72
f 719 72 720
f 718 691 777
f 718 719 691
f 476 536 631
f 631 391 476
f 536 476 475
f 475 476 488
f 475 487 520
f 488 487 475
f 405 653 601
f 601 653 651
f 597 655 601
f 601 651 597
f 81 378 380
f 384 666 614
f 84 384 83
f 180 178 231
f 181 178 180
f 227 188 186
f 761 775 266
f 764 279 269
f 269 270 764
f 281 774 765
f 277 775 19
f 19 227 282
f 479 658 603
f 603 658 615
f 444 385 551
f 536 475 393
f 668 389 496
f 391 389 668
f 668 476 391
f 618 478 667
f 478 635 667
f 667 387 618
f 395 562 537
f 671 473 474
f 474 519 671
f 519 400 671
f 398 671 400
f 473 671 398
f 474 473 398
f 636 672 402
f 471 636 402
f 402 627 471
f 405 601 407
f 539 636 471
f 471 516 539
f 405 599 596
f 652 600 470
f 652 599 600
f 662 607 611
f 617 602 479
f 615 602 617
f 502 552 610
f 610 552 662
f 610 611 502
f 662 611 610
f 453 666 604
f 604 552 453
f 626 409 410
f 439 438 408
f 408 409 439
f 408 438 625
f 625 415 408
f 128 127 426
f 426 620 425
f 676 424 434
f 459 460 695
f 695 283 459
f 459 283 460
f 740 792 355
f 676 448 572
f 572 573 676
f 573 572 576
f 435 434 424
f 435 424 425
f 546 574 620
f 526 504 469
f 504 527 469
f 500 592 469
f 592 526 469
f 469 542 674
f 469 414 500
f 415 623 624
f 564 415 625
f 757 254 272
f 272 273 757
f 251 252 757
f 757 273 251
f 257 774 256
f 257 253 774
f 259 258 363
f 275 260 28
f 28 274 275
f 715 718 716
f 693 715 716
f 716 742 693
f 717 718 715
f 719 718 717
f 715 71 717
f 71 719 717
f 477 535 478
f 478 489 477
f 489 488 477
f 488 476 477
f 477 390 535
f 477 668 496
f 476 668 477
f 657 594 595
f 595 656 657
f 179 178 181
f 231 178 232
f 178 233 232
f 177 233 178
f 178 179 177
f 80 82 378
f 378 81 80
f 80 81 82
f 380 382 79
f 79 81 380
f 385 444 386
f 615 385 386
f 386 384 615
f 606 614 453
f 382 381 383
f 666 384 383
f 381 607 383
f 383 613 666
f 383 662 445
f 383 607 662
f 92 93 387
f 11 214 210
f 214 188 189
f 189 210 214
f 213 210 189
f 189 188 226
f 189 226 11
f 11 213 189
f 187 186 188
f 217 216 187
f 187 216 222
f 268 278 761
f 265 775 264
f 265 266 775
f 264 233 265
f 162 196 159
f 280 281 765
f 256 774 255
f 774 281 255
f 230 180 231
f 261 262 19
f 19 282 261
f 261 229 262
f 442 632 561
f 561 536 442
f 536 393 442
f 394 475 520
f 387 667 388
f 388 92 387
f 635 535 388
f 388 667 635
f 472 518 471
f 471 627 472
f 399 538 554
f 554 518 399
f 518 441 399
f 403 672 540
f 540 539 403
f 403 539 516
f 396 395 397
f 474 398 397
f 397 398 396
f 397 537 474
f 397 395 537
f 107 394 396
f 404 402 672
f 672 403 404
f 404 600 405
f 451 600 404
f 404 516 451
f 404 403 516
f 400 399 401
f 401 399 441
f 627 402 401
f 401 472 627
f 411 410 118
f 656 567 569
f 569 567 541
f 569 657 656
f 569 407 601
f 601 657 569
f 592 414 646
f 414 407 646
f 673 467 411
f 505 596 599
f 505 652 470
f 599 652 505
f 470 651 598
f 598 651 405
f 405 596 598
f 659 617 479
f 615 617 659
f 663 604 666
f 666 613 663
f 663 613 604
f 552 604 661
f 604 613 661
f 433 421 583
f 583 508 433
f 418 622 417
f 416 418 417
f 415 624 417
f 131 130 425
f 425 424 131
f 349 347 352
f 350 349 352
f 320 355 347
f 430 138 420
f 139 138 430
f 430 429 139
f 643 576 572
f 434 435 645
f 676 434 645
f 574 546 497
f 620 426 436
f 440 410 411
f 406 674 414
f 414 469 406
f 406 469 674
f 576 643 449
f 449 645 435
f 449 448 676
f 499 417 624
f 273 272 369
f 253 257 373
f 373 257 256
f 364 249 259
f 259 363 364
f 364 363 339
f 367 258 252
f 367 363 258
f 252 251 367
f 297 320 319
f 319 320 347
f 311 121 127
f 131 293 316
f 692 780 791
f 692 743 780
f 654 657 601
f 654 601 655
f 264 775 263
f 775 277 263
f 263 233 264
f 263 232 233
f 263 277 231
f 231 232 263
f 85 84 83
f 384 84 85
f 85 383 384
f 382 383 85
f 559 551 387
f 387 386 559
f 384 606 660
f 479 602 660
f 660 453 479
f 660 606 453
f 664 384 614
f 614 606 664
f 664 606 384
f 613 383 534
f 92 388 91
f 212 213 11
f 212 210 213
f 206 188 217
f 217 187 206
f 206 187 188
f 82 81 208
f 81 79 208
f 184 186 185
f 186 187 185
f 187 208 185
f 185 208 205
f 761 266 267
f 267 268 761
f 266 265 235
f 246 280 271
f 765 270 271
f 271 280 765
f 231 277 276
f 276 230 231
f 19 262 276
f 276 277 19
f 262 229 276
f 229 230 276
f 229 261 228
f 227 186 228
f 228 282 227
f 228 261 282
f 228 186 184
f 184 229 228
f 493 475 670
f 475 394 670
f 630 520 629
f 630 394 520
f 562 395 630
f 630 395 396
f 396 394 630
f 560 389 443
f 389 388 443
f 443 535 560
f 443 388 535
f 669 399 400
f 538 399 669
f 400 628 669
f 396 398 106
f 106 107 396
f 196 107 106
f 101 401 402
f 115 410 409
f 405 407 110
f 413 673 411
f 413 108 414
f 414 674 413
f 543 673 413
f 413 542 543
f 674 542 413
f 648 407 590
f 407 569 590
f 590 569 568
f 590 568 593
f 593 648 590
f 506 646 591
f 591 646 407
f 647 526 592
f 592 646 647
f 528 673 637
f 528 468 467
f 467 673 528
f 528 637 542
f 542 469 528
f 528 469 527
f 452 659 479
f 615 659 452
f 420 548 566
f 420 433 581
f 433 586 581
f 581 548 420
f 581 586 548
f 587 586 433
f 419 121 122
f 419 417 622
f 419 545 621
f 357 286 740
f 287 283 740
f 740 286 287
f 347 355 353
f 353 352 347
f 355 352 353
f 351 792 350
f 350 352 351
f 351 352 792
f 354 355 792
f 792 352 354
f 354 352 355
f 677 430 420
f 420 566 677
f 677 566 447
f 533 430 677
f 533 549 431
f 580 423 579
f 576 449 547
f 547 449 509
f 425 574 570
f 570 435 425
f 675 557 410
f 468 557 675
f 410 440 675
f 675 440 468
f 626 410 563
f 410 557 563
f 412 440 411
f 468 440 412
f 56 482 483
f 483 484 56
f 485 484 468
f 485 528 527
f 468 528 485
f 56 484 485
f 679 56 485
f 485 527 679
f 620 436 463
f 463 546 620
f 553 546 463
f 509 449 529
f 548 586 529
f 449 507 529
f 529 589 509
f 586 587 529
f 644 449 676
f 676 645 644
f 645 449 644
f 371 272 254
f 254 253 371
f 374 373 256
f 250 249 362
f 366 367 251
f 363 367 336
f 347 348 346
f 346 319 347
f 346 348 359
f 420 137 136
f 132 293 131
f 132 424 423
f 132 131 424
f 129 311 127
f 129 127 128
f 128 426 129
f 425 130 129
f 129 426 425
f 311 129 312
f 743 692 705
f 168 179 181
f 94 386 387
f 387 93 94
f 93 169 94
f 202 177 179
f 179 168 202
f 202 168 169
f 616 660 602
f 384 660 616
f 616 602 615
f 615 384 616
f 11 210 211
f 211 212 11
f 210 212 211
f 82 208 209
f 209 208 187
f 223 82 209
f 222 223 209
f 209 187 222
f 236 267 266
f 266 235 236
f 173 235 234
f 233 177 234
f 234 265 233
f 234 235 265
f 392 670 394
f 392 442 393
f 493 670 392
f 391 632 392
f 632 442 392
f 196 106 195
f 402 404 112
f 244 271 270
f 270 269 244
f 269 243 244
f 117 118 410
f 409 408 114
f 114 115 409
f 109 407 414
f 109 110 407
f 414 108 109
f 649 648 526
f 649 407 648
f 649 591 407
f 433 508 584
f 584 587 433
f 427 426 127
f 127 121 427
f 121 419 427
f 427 419 621
f 621 501 427
f 437 436 427
f 427 436 426
f 740 355 356
f 356 357 740
f 355 320 356
f 533 677 585
f 533 431 432
f 432 431 429
f 432 430 533
f 429 430 432
f 462 549 533
f 460 283 462
f 283 428 462
f 533 531 462
f 462 531 532
f 532 460 462
f 429 431 619
f 619 428 429
f 619 550 428
f 619 431 549
f 549 550 619
f 509 589 571
f 580 579 571
f 571 579 509
f 582 421 580
f 578 579 423
f 509 579 578
f 423 573 577
f 524 483 482
f 524 622 418
f 524 418 416
f 56 71 492
f 492 507 56
f 492 71 531
f 492 529 507
f 464 463 436
f 464 639 544
f 464 436 437
f 553 463 450
f 450 449 435
f 435 570 450
f 521 482 56
f 521 464 482
f 463 464 521
f 521 450 463
f 422 589 641
f 589 529 641
f 641 529 588
f 370 369 272
f 272 371 370
f 256 255 375
f 375 374 256
f 249 364 365
f 365 362 249
f 361 274 250
f 250 362 361
f 368 251 273
f 368 366 251
f 273 369 368
f 333 366 368
f 333 334 335
f 334 336 335
f 335 336 367
f 335 366 333
f 367 366 335
f 297 319 344
f 343 318 344
f 342 318 343
f 343 361 342
f 342 361 362
f 423 135 133
f 133 132 423
f 293 132 133
f 133 294 293
f 130 131 314
f 131 316 314
f 314 129 130
f 314 312 129
f 386 94 95
f 83 384 95
f 384 386 95
f 95 168 83
f 169 168 95
f 95 94 169
f 177 202 176
f 176 202 169
f 181 180 182
f 182 204 181
f 180 230 182
f 205 204 182
f 203 168 181
f 203 85 83
f 83 168 203
f 142 204 205
f 85 203 142
f 181 204 142
f 142 203 181
f 89 389 391
f 391 88 89
f 199 89 88
f 268 267 240
f 172 235 173
f 172 236 235
f 96 88 391
f 391 392 96
f 96 392 394
f 159 196 157
f 196 195 157
f 100 101 402
f 402 112 100
f 194 195 106
f 194 157 195
f 193 157 194
f 147 100 112
f 154 193 192
f 193 194 192
f 246 271 245
f 271 244 245
f 245 150 246
f 245 244 154
f 118 117 116
f 410 115 116
f 116 117 410
f 113 408 415
f 113 114 408
f 118 300 119
f 411 118 119
f 119 413 411
f 373 374 324
f 290 109 108
f 286 357 285
f 357 356 285
f 285 287 286
f 283 287 285
f 429 428 285
f 461 462 428
f 428 550 461
f 642 547 509
f 509 578 642
f 642 578 423
f 565 577 573
f 573 576 565
f 576 547 565
f 465 564 625
f 465 524 623
f 483 524 465
f 465 623 415
f 415 564 465
f 530 531 533
f 530 492 531
f 529 492 530
f 533 585 530
f 548 529 530
f 523 464 544
f 622 524 523
f 523 524 482
f 482 464 523
f 523 419 622
f 544 545 523
f 545 419 523
f 56 507 522
f 522 521 56
f 450 521 522
f 522 507 449
f 449 450 522
f 640 583 421
f 421 422 640
f 422 641 640
f 640 588 583
f 640 641 588
f 333 368 332
f 332 368 369
f 376 375 255
f 321 375 376
f 358 359 260
f 260 275 358
f 358 346 359
f 358 275 274
f 274 361 358
f 319 346 345
f 345 344 319
f 343 344 345
f 346 358 345
f 345 361 343
f 345 358 361
f 338 314 316
f 362 365 340
f 340 342 362
f 340 364 339
f 340 365 364
f 339 338 340
f 318 294 295
f 295 294 136
f 295 136 137
f 134 133 135
f 294 133 134
f 134 135 423
f 423 421 134
f 136 294 134
f 134 421 420
f 420 136 134
f 312 314 313
f 313 336 334
f 334 311 313
f 311 312 313
f 177 176 175
f 173 234 175
f 175 234 177
f 205 182 183
f 184 185 183
f 183 185 205
f 183 229 184
f 183 230 229
f 183 182 230
f 207 208 79
f 205 208 207
f 207 142 205
f 85 142 86
f 382 85 86
f 389 89 90
f 90 388 389
f 90 91 388
f 92 91 90
f 267 236 237
f 237 240 267
f 278 268 239
f 268 240 239
f 163 239 240
f 174 172 173
f 173 175 174
f 174 175 176
f 165 199 88
f 88 96 165
f 158 160 159
f 159 157 158
f 401 101 102
f 102 103 400
f 400 401 102
f 111 147 112
f 111 112 404
f 111 404 405
f 405 110 111
f 101 100 191
f 100 147 191
f 191 102 101
f 153 192 191
f 191 151 153
f 147 151 191
f 154 192 152
f 152 192 153
f 152 245 154
f 150 245 152
f 153 151 152
f 152 151 150
f 118 116 291
f 291 300 118
f 301 300 291
f 303 116 115
f 115 114 303
f 325 291 303
f 303 291 116
f 415 417 123
f 123 419 122
f 417 419 123
f 325 303 305
f 120 119 300
f 120 290 108
f 300 290 120
f 108 413 120
f 413 119 120
f 323 324 374
f 301 324 323
f 373 324 326
f 326 324 325
f 149 144 145
f 145 151 149
f 150 151 145
f 284 428 283
f 283 285 284
f 284 285 428
f 429 285 141
f 297 139 141
f 141 320 297
f 141 356 320
f 141 285 356
f 547 642 575
f 423 577 575
f 575 642 423
f 484 483 525
f 483 465 525
f 525 465 625
f 625 438 525
f 525 438 439
f 439 409 525
f 525 409 498
f 369 370 330
f 330 332 369
f 281 280 248
f 248 255 281
f 248 376 255
f 248 145 144
f 342 340 317
f 293 294 317
f 317 340 338
f 317 316 293
f 317 338 316
f 296 344 318
f 318 295 296
f 297 344 296
f 296 139 297
f 296 138 139
f 137 138 296
f 296 295 137
f 314 338 315
f 315 313 314
f 87 79 382
f 382 86 87
f 87 207 79
f 142 207 87
f 87 86 142
f 89 199 171
f 171 90 89
f 279 278 241
f 160 158 241
f 239 163 161
f 159 160 161
f 161 162 159
f 240 237 164
f 164 163 240
f 201 169 93
f 201 176 169
f 394 107 99
f 99 98 394
f 99 107 196
f 97 96 394
f 394 98 97
f 97 98 96
f 96 98 197
f 197 165 96
f 197 99 196
f 98 99 197
f 196 162 197
f 162 165 197
f 155 157 193
f 155 193 154
f 155 244 243
f 154 244 155
f 103 102 104
f 400 103 104
f 147 111 190
f 149 151 190
f 190 151 147
f 148 191 192
f 102 191 148
f 148 192 194
f 194 104 148
f 148 104 102
f 325 324 302
f 302 291 325
f 302 324 301
f 301 291 302
f 309 123 122
f 309 125 123
f 114 113 304
f 304 303 114
f 304 305 303
f 322 375 321
f 374 375 322
f 322 323 374
f 373 326 372
f 253 373 372
f 372 371 253
f 325 305 327
f 327 326 325
f 371 372 327
f 327 372 326
f 299 298 290
f 299 300 301
f 299 290 300
f 321 298 299
f 299 322 321
f 301 323 299
f 323 322 299
f 289 298 321
f 144 298 289
f 321 376 289
f 289 248 144
f 376 248 289
f 109 290 288
f 290 298 288
f 139 429 140
f 140 141 139
f 429 141 140
f 466 525 638
f 466 638 626
f 466 563 557
f 626 563 466
f 466 557 468
f 468 484 466
f 484 525 466
f 328 370 371
f 328 330 370
f 371 327 328
f 247 280 246
f 247 248 280
f 145 248 247
f 246 150 247
f 150 145 247
f 342 317 341
f 341 317 294
f 318 342 341
f 341 294 318
f 336 313 337
f 313 315 337
f 339 363 337
f 363 336 337
f 337 338 339
f 337 315 338
f 278 239 238
f 238 241 278
f 239 161 238
f 160 241 238
f 238 161 160
f 279 241 242
f 242 269 279
f 242 243 269
f 242 241 158
f 166 164 237
f 236 172 166
f 166 237 236
f 163 164 198
f 198 165 162
f 162 161 198
f 198 161 163
f 170 174 176
f 176 201 170
f 92 90 170
f 90 171 170
f 93 92 170
f 170 201 93
f 156 158 157
f 157 155 156
f 156 155 243
f 243 242 156
f 156 242 158
f 105 194 106
f 105 104 194
f 105 106 398
f 105 398 400
f 400 104 105
f 415 123 124
f 124 125 415
f 123 125 124
f 310 334 333
f 332 330 329
f 110 109 146
f 109 288 146
f 146 111 110
f 146 190 111
f 146 288 298
f 167 166 172
f 172 174 167
f 174 170 167
f 167 170 171
f 199 165 200
f 165 198 200
f 200 198 164
f 200 171 199
f 200 167 171
f 164 166 200
f 166 167 200
f 292 311 334
f 334 310 292
f 121 311 292
f 122 121 292
f 292 309 122
f 332 329 331
f 331 329 309
f 333 332 331
f 331 310 333
f 309 292 331
f 331 292 310
f 307 327 305
f 307 328 327
f 330 328 307
f 307 329 330
f 126 113 415
f 415 125 126
f 149 190 143
f 190 146 143
f 143 144 149
f 143 298 144
f 143 146 298
f 305 304 306
f 306 307 305
f 306 304 113
f 113 126 306
f 329 307 306
f 308 126 125
f 308 306 126
f 125 309 308
f 309 329 308
f 329 306 308
f 744 747 745
f 746 747 744
f 32 31 25
f 32 25 2
f 25 31 30
f 1 25 30
f 688 707 689
f 689 722 688
f 689 747 746
f 707 747 689
f 688 722 712
f 712 687 688
f 739 703 695
f 740 703 739
f 1 30 26
f 26 30 29
f 751 785 784
f 784 750 751
f 685 684 751
f 684 785 751
f 749 750 784
f 784 781 749
f 687 712 749
f 749 781 687
f 680 26 29
f 681 26 680
f 740 739 778
f 778 741 740
f 704 742 791
f 693 742 704
f 741 778 704
f 704 778 693
f 683 752 753
f 753 708 683
f 683 684 685
f 708 684 683
f 753 752 776
f 776 795 753
f 681 680 776
f 776 680 795
f 634 665 456
f 512 634 456
f 691 744 745
f 745 706 691
f 691 743 777
f 706 743 691
f 763 773 775
f 757 758 775
f 775 762 763
f 760 766 775
f 761 764 775
f 770 771 775
f 775 758 759
f 759 768 775
f 775 769 770
f 764 765 775
f 775 774 757
f 772 762 775
f 775 773 760
f 775 768 769
f 775 771 772
f 765 774 775
f 775 766 767
f 632 536 561
f 631 536 632
f 58 69 71
f 71 56 58
f 57 51 71
f 71 65 64
f 67 66 71
f 71 68 67
f 61 60 71
f 71 51 72
f 71 59 57
f 71 62 61
f 64 63 71
f 60 59 71
f 69 68 71
f 71 63 62
f 71 66 65
f 390 389 560
f 560 535 390
f 540 672 539
f 539 672 636
f 611 607 503
f 503 502 611
f 389 390 477
f 496 389 477
f 518 472 401
f 401 441 518
f 593 568 569
f 569 541 555
f 569 555 593
f 542 637 673
f 543 542 673
f 596 505 598
f 598 505 470
f 639 545 544
f 621 545 639
f 449 643 572
f 449 572 448
f 791 742 692
f 742 716 692
f 594 657 654
f 654 650 594
f 654 655 597
f 597 650 654
f 559 386 444
f 559 444 551
f 534 661 613
f 552 661 534
f 445 552 534
f 534 383 445
f 537 562 630
f 629 537 630
f 554 538 669
f 669 628 554
f 647 646 506
f 647 506 526
f 452 603 615
f 479 603 452
f 467 468 412
f 411 467 412
f 583 588 529
f 508 583 529
f 777 743 705
f 705 718 777
f 705 692 716
f 705 716 718
f 392 393 475
f 392 475 493
f 526 506 649
f 506 591 649
f 508 529 584
f 584 529 587
f 582 571 589
f 580 571 582
f 582 422 421
f 582 589 422
f 524 499 624
f 524 624 623
f 416 417 524
f 417 499 524
f 621 639 464
f 464 501 621
f 437 427 464
f 464 427 501
f 450 497 546
f 450 546 553
f 574 497 450
f 450 570 574
f 461 550 549
f 549 462 461
f 530 585 677
f 530 677 447
f 447 566 530
f 530 566 548
f 577 565 575
f 575 565 547
f 626 638 525
f 525 498 626

