# https://github.com/mikedh/trimesh
v 0.005377880650 0.010424706708 -0.032675195619
v 0.004545969212 0.010424706708 -0.032722332018
v 0.000381299646 0.010424706708 -0.032716530624
v 0.008691754392 0.010424706708 -0.032326134057
v 0.011154037222 0.010424706708 -0.031896837247
v 0.012779941072 0.010424706708 -0.031531634236
v 0.016772355140 0.018260668813 -0.030346244867
v 0.016772355140 0.010424706708 -0.030346244867
v 0.109631326444 0.018260668813 0.021932722081
v 0.109631326444 -0.005900218238 0.021932722081
v 0.109598579933 0.018260668813 -0.001575142001
v -0.104584120748 0.018260668813 -0.001276784992
v -0.104551374238 0.018260668813 0.022231079091
v -0.104551374238 -0.005900218238 0.022231079091
v -0.104564598478 -0.005900218238 -0.001503596929
v -0.104505978116 -0.005900218238 -0.001723571392
v -0.104584120748 -0.005900218238 -0.001276784992
v -0.104083459529 -0.005900218238 0.023230872398
v -0.103932700258 -0.005900218238 -0.002408717716
v -0.104375508012 -0.005900218238 0.022883818929
v -0.104471987164 -0.005900218238 0.022677644806
v 0.109598579933 -0.005900218238 -0.001575142001
v 0.109534089190 -0.005900218238 -0.001978626765
v 0.109611804156 -0.005900218238 0.022159521252
v 0.109348063657 -0.005900218238 -0.002342438447
v 0.109457259506 -0.005900218238 0.022585949378
v 0.109326941995 -0.005900218238 0.022772613664
v 0.109166208938 -0.005900218238 0.022933815104
v 0.108979905943 -0.005900218238 0.023064647177
v 0.108694436660 -0.005900218238 -0.002815957731
v 0.108773706937 -0.005900218238 0.023161146292
v -0.103923226148 0.018913665811 -0.001379858035
v 0.108905885404 0.018913665811 -0.001797516628
v 0.108935501896 0.018913665811 -0.001687611326
v 0.108978330435 0.018913665811 0.021933631706
v 0.108946637262 0.018913665811 0.022135450778
v -0.103898378229 0.018913665811 0.022230169466
v -0.103866132875 0.018913665811 0.022431899471
v -0.104535017837 0.018260668813 0.022435352108
v -0.104531220163 -0.005900218238 0.022457822993
v -0.104486903436 0.018260668813 0.022634554074
v -0.104471987164 0.018260668813 0.022677644806
v -0.104408203655 0.018260668813 0.022823774397
v -0.104375508012 0.018260668813 0.022883818929
v -0.104300877900 0.018260668813 0.022998367624
v -0.104244660997 0.018260668813 0.023070119413
v -0.104244660997 -0.005900218238 0.023070119413
v -0.104167562673 0.018260668813 0.023154013076
v -0.104011551398 0.018260668813 0.023286889183
v -0.103896802722 -0.005900218238 0.023361184937
v -0.103896802722 0.018260668813 0.023361184937
v -0.103836654860 0.018260668813 0.023393725606
v -0.103690355599 -0.005900218238 0.023457109234
v -0.103470369632 -0.005900218238 0.023515717125
v -0.103726521176 0.018260668813 -0.002505213533
v -0.103726521176 -0.005900218238 -0.002505213533
v -0.104047241504 0.018260668813 -0.002334104740
v -0.104118993286 0.018260668813 -0.002277883633
v -0.104118993286 -0.005900218238 -0.002277883633
v -0.104202881979 0.018260668813 -0.002200794035
v -0.104279746277 -0.005900218238 -0.002116686680
v -0.104279746277 0.018260668813 -0.002116686680
v -0.104410073755 -0.005900218238 -0.001930024715
v -0.104410073755 0.018260668813 -0.001930024715
v -0.104442601991 0.018260668813 -0.001869891972
v -0.104505978116 0.018260668813 -0.001723571392
v -0.104564598478 0.018260668813 -0.001503596929
v 0.108773706937 0.018260668813 0.023161146292
v 0.108919848973 0.018260668813 0.023097355292
v 0.108979905943 0.018260668813 0.023064647177
v 0.109166208938 0.018260668813 0.022933815104
v 0.109250087662 0.018260668813 0.022856721783
v 0.109457259506 0.018260668813 0.022585949378
v 0.109553183810 -0.005900218238 0.022379507236
v 0.109567960045 0.018260668813 0.022336375142
v 0.109582203595 -0.005900218238 -0.001779422463
v 0.109455399366 -0.005900218238 -0.002167852395
v 0.109422693763 0.018260668813 -0.002227894267
v 0.109214768356 -0.005900218238 -0.002498085327
v 0.109214768356 0.018260668813 -0.002498085327
v 0.109058747116 -0.005900218238 -0.002630961887
v 0.108737541360 0.018260668813 -0.002801176476
v 0.108883860545 -0.005900218238 -0.002737796768
v 0.108883860545 0.018260668813 -0.002737796768
v 0.108944008407 0.018260668813 -0.002705255476
v 0.108694436660 0.018260668813 -0.002815957731
v 0.108495091450 -0.005900218238 -0.002863521315
v 0.008687494733 0.010084531451 -0.032296679675
v 0.012772858350 0.010084531451 -0.031502736394
v 0.012751826964 0.009754692540 -0.031416890107
v 0.010375435057 0.011077703083 0.065168791003
v -0.005175417999 0.011077703083 0.065190453379
v -0.006309471783 0.011077703083 0.065092832055
v -0.006309471783 0.018260668813 0.065092832055
v -0.007409344997 0.011077703083 0.064799755158
v -0.007409344997 0.018260668813 0.064799755158
v 0.011396834980 0.011077703083 0.065086984043
v 0.011396834980 0.018260668813 0.065086984043
v 0.011509213089 0.011077703083 0.065068010585
v 0.012392858463 0.018260668813 0.064846377142
v 0.012392858463 0.011077703083 0.064846377142
v 0.012608264900 0.018260668813 0.064771870580
v 0.109094437222 0.018260668813 0.022990032036
v 0.109326941995 0.018260668813 0.022772613664
v 0.109382948816 0.018260668813 0.022700705547
v 0.109489797701 0.018260668813 0.022525813974
v 0.109553183810 0.018260668813 0.022379507236
v 0.109611804156 0.018260668813 0.022159521252
v 0.108970441794 0.018913665811 0.022035785614
v 0.109615519283 0.018260668813 0.022137039902
v 0.010375435057 0.018260668813 0.065168791003
v 0.011509213089 0.018260668813 0.065068010585
v 0.108945583925 0.018913665811 -0.001574232376
v -0.005175417999 0.018260668813 0.065190453379
v 0.109578425841 0.018260668813 -0.001801898669
v 0.109534089190 0.018260668813 -0.001978626765
v 0.109519192858 0.018260668813 -0.002021708962
v 0.109455399366 0.018260668813 -0.002167852395
v 0.109348063657 0.018260668813 -0.002342438447
v 0.109291856714 0.018260668813 -0.002414192429
v 0.109130675180 0.018260668813 -0.002574940927
v 0.109058747116 0.018260668813 -0.002630961887
v -0.007193731821 0.018260668813 0.064873661309
v -0.006197041872 0.018260668813 0.065111492355
v 0.011154037222 0.018260668813 -0.031896837247
v 0.005377880650 0.018260668813 -0.032675195619
v -0.000450477241 0.018260668813 -0.032667076702
v -0.103890195054 0.018913665811 0.022332300986
v -0.104531220163 0.018260668813 0.022457822993
v -0.104083459529 0.018260668813 0.023230872398
v -0.103690355599 0.018260668813 0.023457109234
v -0.103931124740 0.018913665811 -0.001277694617
v -0.103683427932 0.018260668813 -0.002520114862
v -0.103872643288 0.018260668813 -0.002441426454
v -0.103932700258 0.018260668813 -0.002408717716
v -0.104335763059 0.018260668813 -0.002044776370
v -0.103899441548 0.018913665811 -0.001479526752
v -0.104520774291 0.018260668813 -0.001680447833
v -0.104568333526 0.018260668813 -0.001481110258
v 0.012608264900 0.011077703083 0.064771870580
v -0.006196976211 0.010424706708 0.064449602165
v 0.000093948423 0.084866363836 0.047469386298
v -0.032060819165 0.084866363836 -0.003430917351
v -0.033275334483 0.084866363836 0.000138522483
v -0.034122507771 0.084866363836 0.003812520281
v -0.034593645691 0.084866363836 0.007553373823
v -0.034392378851 0.084866363836 0.015081813094
v -0.033722027160 0.084866363836 0.018792149641
v -0.032679760074 0.084866363836 0.022415641711
v -0.031276255968 0.084866363836 0.025915085100
v -0.029525920407 0.084866363836 0.029254582332
v -0.025059956635 0.084866363836 0.035318677153
v -0.022390164581 0.084866363836 0.037981041500
v -0.019464727977 0.084866363836 0.040359647661
v -0.016313664823 0.084866363836 0.042430093395
v -0.014755449797 0.084866363836 -0.022639039451
v -0.011331580739 0.084866363836 -0.024217988093
v -0.021037950525 0.084866363836 -0.018485948278
v -0.023832123769 0.084866363836 -0.015954434123
v -0.026355843533 0.084866363836 -0.013153217680
v -0.028583223694 0.084866363836 -0.010111062940
v -0.030491415548 0.084866363836 -0.006859172694
v -0.007765538004 0.084866363836 -0.025442440665
v 0.014513153629 0.084866363836 -0.024908947551
v 0.018016492369 0.084866363836 -0.023515185883
v 0.021360854320 0.084866363836 -0.021774160953
v 0.003414672654 0.084866363836 -0.026882176713
v 0.007174586495 0.084866363836 -0.026601115192
v 0.032493907023 0.084866363836 -0.011743948765
v 0.030107157342 0.084866363836 -0.014662744727
v 0.038769230344 0.084866363836 0.001863772974
v 0.037726960779 0.084866363836 -0.001759710686
v 0.039439579545 0.084866363836 0.005574109991
v 0.039731117584 0.084866363836 0.009333225888
v 0.034573121103 0.084866363836 -0.008598658001
v 0.039640846397 0.084866363836 0.013102557981
v 0.039169708478 0.084866363836 0.016843412456
v 0.038322535180 0.084866363836 0.020517402081
v 0.035538616252 0.084866363836 0.027515103252
v 0.028879326967 0.084866363836 0.036610366546
v 0.026085151232 0.084866363836 0.039141880705
v 0.023049216891 0.084866363836 0.041377727658
v 0.019802650484 0.084866363836 0.043294956931
v 0.016378782671 0.084866363836 0.044873905572
v 0.012812738715 0.084866363836 0.046098375582
v 0.005056717647 0.084866363836 0.047462473148
v -0.002127387504 0.084866363836 0.047257045129
v 0.005401586238 0.084866363836 0.047437336957
v -0.027446706321 0.084866363836 0.032399877455
v -0.018002014940 0.084866363836 -0.020721796479
v 0.024511929928 0.084866363836 -0.019703716482
v 0.027437365289 0.084866363836 -0.017325109074
v 0.031403046730 0.084866363836 0.033809148858
v 0.010886778093 0.084866363836 -0.025941115555
v -0.000354387692 0.084866363836 -0.026781419474
v -0.004093914147 0.084866363836 -0.026299848912
v 0.033630426895 0.084866363836 0.030766997230
v 0.037108022361 0.084866363836 0.024086848528
v 0.036323456670 0.084866363836 -0.005259157033
v 0.009141112986 0.084866363836 0.046955781341
v -0.012969296644 0.084866363836 0.044171118316
v -0.009465951070 0.084866363836 0.045564867520
v -0.005839578029 0.084866363836 0.046597033036
v -0.034683914392 0.084866363836 0.011322702176
v 0.050639567672 -0.009818198979 -0.000840015227
v 0.080024388045 -0.009818198979 -0.000880948351
v 0.080055315289 -0.009818198979 0.021320911805
v 0.067009399577 -0.008512204983 0.035247926264
v 0.068796537862 -0.008512204983 0.034968710548
v 0.069903724403 -0.008512204983 0.034484210708
v 0.069362610883 -0.008512204983 0.034755004900
v 0.067613654261 -0.008512204983 0.035216485252
v 0.068211485582 -0.008512204983 0.035123097362
v -0.045592376923 -0.009818198979 0.021495951793
v -0.074977197296 -0.009818198979 0.021536884917
v -0.075008124556 -0.009818198979 -0.000664986838
v -0.061962198889 -0.008512204983 -0.014592007538
v -0.063749337172 -0.008512204983 -0.014312790577
v -0.062566453573 -0.008512204983 -0.014560566527
v -0.064856523715 -0.008512204983 -0.013828291983
v -0.064315425122 -0.008512204983 -0.014099072453
v -0.063164284875 -0.008512204983 -0.014467164936
v 0.019782864895 -0.005116620719 0.052642183742
v 0.016411398616 -0.005116620719 0.052884360932
v 0.018678954541 -0.005116620719 0.052919638149
v 0.017543623987 -0.005116620719 0.053001185330
v -0.014735662963 -0.002635233249 -0.031986266264
v -0.014735662963 -0.005116620719 -0.031986266264
v -0.013631753854 -0.005116620719 -0.032263720669
v -0.012496430773 -0.005116620719 -0.032345267839
v -0.011364195421 -0.005116620719 -0.032228431000
v -0.013631753854 -0.002635233249 -0.032263720669
v -0.014033956480 0.003241739732 -0.032186223778
v -0.014033956480 0.006506724721 -0.032186223778
v -0.015118312834 0.006506724721 -0.031840100172
v -0.012905986088 0.006506724721 -0.032338793688
v -0.012905986088 0.003241739732 -0.032338793688
f 53 93 95
f 31 69 68
f 184 102 68
f 68 69 184
f 140 101 31
f 18 215 50
f 215 53 50
f 201 96 202
f 95 93 123
f 123 96 95
f 202 96 123
f 160 159 62
f 156 135 190
f 62 159 60
f 96 201 131
f 52 201 155
f 52 155 51
f 52 131 201
f 52 50 53
f 51 50 52
f 53 131 52
f 202 123 203
f 101 225 223
f 226 91 92
f 225 91 226
f 92 93 226
f 93 224 226
f 226 212 225
f 226 224 215
f 97 91 225
f 141 224 93
f 49 50 51
f 18 50 49
f 155 154 49
f 51 155 49
f 150 43 151
f 151 43 44
f 44 45 151
f 151 45 189
f 152 48 153
f 174 113 173
f 35 113 174
f 9 35 109
f 197 73 179
f 73 197 105
f 73 105 26
f 26 105 27
f 27 207 26
f 28 27 72
f 28 207 27
f 134 135 156
f 134 19 135
f 111 188 186
f 208 226 215
f 212 226 208
f 215 214 208
f 208 214 207
f 208 207 212
f 99 225 101
f 99 97 225
f 224 141 54
f 54 53 215
f 215 224 54
f 93 53 54
f 54 141 93
f 30 206 87
f 87 231 30
f 206 231 87
f 30 231 90
f 83 206 30
f 83 81 206
f 25 206 79
f 206 81 79
f 230 219 229
f 230 231 206
f 157 134 156
f 55 134 157
f 14 39 13
f 64 162 161
f 229 228 233
f 19 134 56
f 56 134 55
f 130 48 18
f 18 49 130
f 153 48 130
f 130 154 153
f 130 49 154
f 48 152 46
f 46 152 189
f 189 45 46
f 178 198 36
f 36 109 178
f 178 109 177
f 107 75 36
f 36 198 107
f 35 174 176
f 176 109 35
f 177 109 176
f 9 109 110
f 110 10 9
f 184 69 183
f 76 11 22
f 22 206 76
f 206 23 76
f 72 27 104
f 27 105 104
f 180 72 104
f 10 110 24
f 24 207 10
f 103 181 182
f 29 69 31
f 28 103 29
f 207 28 29
f 80 192 170
f 113 11 115
f 115 76 23
f 11 76 115
f 119 169 175
f 175 78 119
f 119 78 25
f 25 78 77
f 77 206 25
f 77 23 206
f 30 6 8
f 125 126 168
f 137 144 143
f 143 66 137
f 159 158 58
f 58 60 159
f 124 114 142
f 142 187 124
f 92 114 124
f 124 93 92
f 200 188 98
f 188 111 98
f 89 90 231
f 89 6 30
f 30 90 89
f 30 86 82
f 84 83 82
f 82 83 30
f 82 165 84
f 121 192 80
f 121 79 81
f 80 79 121
f 81 122 121
f 192 121 191
f 191 121 122
f 85 83 84
f 85 122 81
f 81 83 85
f 220 216 19
f 217 230 206
f 219 230 217
f 206 205 217
f 217 205 216
f 217 216 219
f 237 230 229
f 163 196 234
f 44 43 20
f 20 45 44
f 139 17 12
f 136 64 161
f 161 160 136
f 136 160 62
f 136 63 64
f 227 235 234
f 106 198 179
f 106 107 198
f 179 73 106
f 73 26 106
f 108 110 109
f 36 75 108
f 108 109 36
f 75 24 108
f 108 24 110
f 180 104 193
f 193 105 197
f 193 104 105
f 74 26 207
f 207 24 74
f 74 106 26
f 107 106 74
f 75 107 74
f 74 24 75
f 71 28 72
f 71 103 28
f 181 103 71
f 180 181 71
f 71 72 180
f 70 103 182
f 182 183 70
f 70 183 69
f 69 29 70
f 70 29 103
f 211 29 31
f 34 171 173
f 173 113 34
f 113 115 34
f 120 170 169
f 169 119 120
f 80 170 120
f 120 79 80
f 25 79 120
f 120 119 25
f 175 199 118
f 118 78 175
f 118 77 78
f 164 82 86
f 165 82 164
f 168 126 167
f 196 195 236
f 234 196 236
f 236 232 234
f 145 144 32
f 144 137 32
f 32 146 145
f 32 137 67
f 67 139 32
f 57 158 190
f 57 58 158
f 57 190 135
f 135 19 57
f 94 123 93
f 93 124 94
f 94 203 123
f 94 187 203
f 94 124 187
f 184 185 100
f 100 102 184
f 166 191 122
f 122 85 166
f 84 165 166
f 166 85 84
f 218 56 228
f 15 216 17
f 17 139 15
f 15 139 67
f 216 63 61
f 62 60 61
f 61 136 62
f 63 136 61
f 64 63 65
f 162 64 65
f 143 162 65
f 65 66 143
f 4 1 126
f 126 125 4
f 157 163 133
f 55 157 133
f 133 163 234
f 234 235 133
f 235 227 133
f 228 56 133
f 133 56 55
f 133 227 228
f 40 14 215
f 41 129 40
f 39 14 40
f 40 129 39
f 47 215 18
f 47 20 215
f 18 48 47
f 48 46 47
f 47 46 45
f 45 20 47
f 42 43 150
f 37 147 204
f 13 39 37
f 31 101 209
f 209 211 31
f 101 223 209
f 207 211 209
f 207 29 210
f 210 211 207
f 29 211 210
f 172 171 33
f 171 34 33
f 33 199 172
f 194 125 168
f 7 164 86
f 7 194 164
f 125 194 7
f 7 8 6
f 6 125 7
f 127 236 195
f 195 167 127
f 127 167 126
f 204 146 132
f 146 32 132
f 132 139 12
f 132 32 139
f 112 100 185
f 112 185 200
f 200 98 112
f 216 220 221
f 221 218 216
f 56 218 221
f 19 56 221
f 221 220 19
f 229 219 222
f 222 228 229
f 222 218 228
f 219 216 222
f 216 218 222
f 16 63 216
f 216 15 16
f 66 65 16
f 16 65 63
f 59 57 19
f 58 57 59
f 19 216 59
f 216 61 59
f 60 58 59
f 59 61 60
f 5 125 6
f 5 4 125
f 6 89 5
f 215 20 21
f 21 40 215
f 21 20 43
f 43 42 21
f 41 40 21
f 21 42 41
f 39 129 128
f 128 37 39
f 148 147 128
f 147 37 128
f 225 212 213
f 213 223 225
f 213 209 223
f 212 207 213
f 207 209 213
f 117 118 199
f 199 33 117
f 23 77 117
f 77 118 117
f 116 34 115
f 116 33 34
f 116 117 33
f 116 115 23
f 23 117 116
f 237 236 3
f 236 127 3
f 230 237 3
f 138 15 67
f 138 16 15
f 66 16 138
f 138 137 66
f 67 137 138
f 4 5 88
f 1 4 88
f 88 89 231
f 88 5 89
f 231 230 88
f 230 1 88
f 38 129 41
f 38 128 129
f 41 42 38
f 150 149 38
f 38 42 150
f 38 149 148
f 148 128 38
f 2 1 230
f 230 3 2
f 126 1 2
f 140 68 102
f 31 68 140
f 131 53 95
f 95 96 131
f 22 10 207
f 207 206 22
f 11 113 35
f 11 35 9
f 11 10 22
f 9 10 11
f 111 114 92
f 92 91 111
f 111 186 142
f 142 114 111
f 14 216 215
f 17 216 14
f 14 13 12
f 12 17 14
f 98 111 91
f 91 97 98
f 206 207 205
f 205 214 215
f 207 214 205
f 215 216 205
f 232 233 234
f 229 233 232
f 234 233 227
f 227 233 228
f 229 232 236
f 236 237 229
f 100 140 102
f 101 140 100
f 202 203 194
f 161 162 194
f 180 193 194
f 194 201 202
f 194 157 156
f 194 170 192
f 179 198 194
f 156 190 194
f 194 174 173
f 194 199 175
f 194 181 180
f 194 185 184
f 142 186 194
f 153 154 194
f 194 160 161
f 155 201 194
f 150 151 194
f 194 152 153
f 177 176 194
f 200 185 194
f 194 197 179
f 194 154 155
f 194 188 200
f 143 144 194
f 194 162 143
f 159 160 194
f 194 146 204
f 194 158 159
f 194 187 142
f 194 151 189
f 189 152 194
f 204 147 194
f 194 178 177
f 184 183 194
f 194 149 150
f 186 188 194
f 175 169 194
f 173 171 194
f 194 166 165
f 194 144 145
f 145 146 194
f 190 158 194
f 203 187 194
f 192 191 194
f 196 163 194
f 198 178 194
f 194 176 174
f 194 183 182
f 182 181 194
f 169 170 194
f 194 171 172
f 172 199 194
f 194 195 196
f 168 167 194
f 194 163 157
f 194 147 148
f 148 149 194
f 194 193 197
f 165 164 194
f 194 167 195
f 191 166 194
f 30 8 7
f 7 86 30
f 132 37 204
f 12 13 132
f 13 37 132
f 112 98 97
f 97 99 112
f 101 100 112
f 112 99 101
f 2 3 127
f 2 127 126

