# https://github.com/mikedh/trimesh
v 0.028284465077 -0.023463967586 0.016158572860
v 0.028264547260 -0.020562081931 0.019712730228
v 0.021461942788 -0.020562081931 0.019674694632
v 0.028247560561 -0.017127532090 0.022755402745
v 0.021444946772 -0.017127532090 0.022717357832
v 0.028233844118 -0.013249474007 0.025207748353
v 0.021444946772 0.017128432109 0.022717357832
v 0.021481851288 0.023464867606 0.016120527947
v 0.028330673518 0.027386163880 0.007894767578
v 0.021528070910 0.027386163880 0.007856723596
v 0.021553170826 0.028303963630 0.003361085537
v 0.028355844243 -0.028303132557 0.003399127888
v 0.021553170826 -0.028303132557 0.003361085537
v 0.028330673518 -0.027385323489 0.007894767578
v 0.021528070910 -0.027385323489 0.007856723596
v 0.028306704683 -0.025758239628 0.012184926398
v 0.028247560561 0.017128432109 0.022755402745
v 0.028295319346 -0.024691191345 0.014218023289
v 0.028355844243 0.028303963630 0.003399127888
v 0.028381424914 0.028488756402 -0.001185475350
v 0.028306704683 0.025759070702 0.012184926398
v 0.028264547260 0.020562922321 0.019712730228
v 0.028284465077 0.023464867606 0.016158572860
v 0.021504040583 -0.025758239628 0.012146880553
v 0.021481851288 -0.023463967586 0.016120527947
v 0.021461942788 0.020562922321 0.019674694632
v 0.021504040583 0.025759070702 0.012146880553
v 0.033969100300 0.002546677361 0.019335048239
v 0.031565653874 -0.028447551173 0.001881102880
v 0.028375040927 -0.028510996008 -0.000037483660
v 0.033887766884 -0.028447551173 -0.001907399444
v 0.033902733664 -0.028141777553 -0.004580191420
v 0.034009644024 0.015870566702 -0.023692650737
v 0.034000640105 0.018032345848 -0.022091436373
v 0.031565653874 0.028448440012 0.001881102880
v 0.031438160465 0.014256118514 0.024671623845
v 0.033734044342 0.012578294437 0.025579948238
v 0.033728081482 0.010110742603 0.026651539475
v 0.028243798369 -0.016195898503 0.023426582315
v 0.033725223036 0.008650381251 0.027160464023
v 0.033720929776 0.005703415905 0.027928061182
v 0.033719610493 0.004377275745 0.028166337085
v 0.033717709831 0.000000444243 0.028504254249
v 0.033725223036 -0.008649486822 0.027160464023
v 0.033733082831 -0.012222191481 0.025751557497
v 0.033734044342 -0.012577454046 0.025579948238
v 0.033744717862 -0.015869666682 0.023679224984
v 0.033745910434 -0.016195898503 0.023457356265
v 0.033762185317 -0.019750126680 0.020555468746
v 0.028279223350 -0.022792788017 0.017090267939
v 0.033781382000 -0.022792788017 0.017121040025
v 0.033797429548 -0.024691191345 0.014248785127
v 0.028324531772 -0.027043657177 0.008991038536
v 0.033826640111 -0.027043657177 0.009021806895
v 0.033866539101 -0.028447551173 0.001893983008
v 0.033927650967 -0.027043657177 -0.009035223331
v 0.033934754224 -0.026586902068 -0.010302799816
v 0.033956872710 -0.024691191345 -0.014262200632
v 0.033972909077 -0.022792788017 -0.017134454598
v 0.033977153889 -0.022210045121 -0.017883626519
v 0.033992180297 -0.019750126680 -0.020568885182
v 0.034030275521 -0.007931916198 -0.027392005620
v 0.034033376209 0.005703415905 -0.027941477618
v 0.033995038743 0.019203326788 -0.021081270052
v 0.033982874508 0.021341545182 -0.018912998841
v 0.033977153889 0.022210933960 -0.017883626519
v 0.033962354814 0.024098002262 -0.015244825992
v 0.033956872710 0.024692082047 -0.014262200632
v 0.033939647496 0.026230378917 -0.011182022654
v 0.033934754224 0.026587792771 -0.010302799816
v 0.033911197199 0.027853292503 -0.006099349837
v 0.033889965689 0.028419408335 -0.002300888487
v 0.033866539101 0.028448440012 0.001893983008
v 0.028362226367 0.028419408335 0.002256643830
v 0.033843108786 0.027853292503 0.006085933401
v 0.028336876756 0.027683414336 0.006785615444
v 0.033838986959 0.027683414336 0.006816383803
v 0.033819548034 0.026587792771 0.010289384311
v 0.028312546423 0.026230378917 0.011137845312
v 0.033814658488 0.026230378917 0.011168608082
v 0.033797429548 0.024692082047 0.014248785127
v 0.033791936263 0.024098002262 0.015231410487
v 0.033777152096 0.022210933960 0.017870210083
v 0.028269319411 0.021341545182 0.018868812182
v 0.033771431477 0.021341545182 0.018899584268
v 0.033759263515 0.019203326788 0.021067855479
v 0.033753662153 0.018032345848 0.022078021801
v 0.033744717862 0.015870566702 0.023679224984
v 0.034134387064 -0.026400318575 -0.010229400731
v 0.034111076007 -0.027656933645 -0.006055463184
v 0.034013877655 0.025947146773 0.011321259172
v 0.034020079030 0.026401218595 0.010218245523
v 0.033945718434 -0.015769376960 0.023506665394
v 0.033952702434 -0.017480593056 0.022263886024
v 0.034099619861 0.028027231005 -0.004009664934
v 0.034201771114 0.017481494938 -0.022275030982
v 0.034194257910 0.019068562416 -0.020932260033
v 0.034176481132 0.022055062925 -0.017757034992
v 0.034156393746 0.024518801323 -0.014161009959
v 0.034142917682 0.022980974028 -0.011747599966
v 0.034014716182 0.022422559603 0.011178031264
v 0.033926342864 -0.008588783971 0.026970968045
v 0.033935115723 -0.012477163393 0.025407388647
v 0.033926342864 0.008589678400 0.026970968045
v 0.033935115723 0.012478054095 0.025407388647
v 0.033945718434 0.015770265799 0.023506665394
v 0.034007325962 0.023185386474 0.012499222249
v 0.034087876753 0.028247910879 -0.001906326013
v 0.034043397541 0.027657833665 0.006044252541
v 0.034066589341 0.028247910879 0.001895115486
v 0.034233676144 0.004346566548 -0.027980893989
v 0.034228123230 0.008589678400 -0.026982181950
v 0.034200343754 0.014901837601 -0.022013745892
v 0.034208743934 0.015770265799 -0.023517869981
v 0.034233676144 -0.004345672119 -0.027980893989
v 0.034235576806 0.000000444017 -0.028316487501
v 0.034228123230 -0.008588783971 -0.026982122321
v 0.034169031284 -0.020417303680 -0.016416826209
v 0.034200343754 -0.014900947831 -0.022013745892
v 0.034194257910 -0.019067671714 -0.020932260033
v 0.034208743934 -0.015769376960 -0.023517869981
v 0.034156393746 -0.024517901304 -0.014161009959
v 0.034142917682 -0.022980083326 -0.011747599966
v 0.034176481132 -0.022054231851 -0.017757034992
v 0.034054842506 -0.028026330985 0.003998455688
v 0.034014716182 -0.022421659584 0.011178031264
v 0.034043397541 -0.027656933645 0.006044252541
v 0.033977981235 -0.022054231851 0.017745880716
v 0.033960215638 -0.019067671714 0.020921046128
v 0.028289837241 0.024098002262 0.015200637469
v 0.028251551951 0.018032345848 0.022047259031
v 0.028300922572 -0.025245193253 0.013212198676
v 0.028349460255 -0.028141777553 0.004535947461
v 0.028260015486 -0.019750126680 0.020524696659
v 0.034082573534 -0.024864050942 -0.000955962115
v 0.034087876753 -0.028247020177 -0.001906326013
v 0.031576267766 -0.028510996008 -0.000019580869
v 0.031443825182 -0.015869666682 0.023666348933
v 0.031443825182 0.015870566702 0.023666348933
v 0.034082573534 0.024864941644 -0.000955962115
v 0.034219361552 -0.012477163393 -0.025418593235
v 0.034009644024 -0.015869666682 -0.023692650737
v 0.034007325962 -0.023184486455 0.012499222249
v 0.033759263515 -0.019202436086 0.021067855479
v 0.033777152096 -0.022210045121 0.017870210083
v 0.033998079802 -0.024517901304 0.014149865931
v 0.033803030911 -0.025245193253 0.013242970762
v 0.034020079030 -0.026400318575 0.010218245523
v 0.034066589341 -0.028247020177 0.001895115486
v 0.033851572321 -0.028141777553 0.004566715821
v 0.033843108786 -0.027852401800 0.006085933401
v 0.033819548034 -0.026586902068 0.010289384311
v 0.033920801131 0.004346566548 0.027969749030
v 0.033717829089 0.001148446453 0.028481123940
v 0.033918889289 0.000000443881 0.028305333225
v 0.033920801131 -0.004345672119 0.027969749030
v 0.033718898677 -0.003436216647 0.028296388934
v 0.033719610493 -0.004376381316 0.028166337085
v 0.033724019283 -0.007931916198 0.027378591047
v 0.033995038743 -0.019202436086 -0.021081270052
v 0.034008395550 -0.016195898503 -0.023470770837
v 0.033911197199 -0.027852401800 -0.006099349837
v 0.033951271348 -0.025245193253 -0.013256386266
v 0.033960215638 0.019068562416 0.020921046128
v 0.033864325389 0.028419408335 0.002287412190
v 0.033998079802 0.024518801323 0.014149865931
v 0.033977981235 0.022055062925 0.017745880716
v 0.034134387064 0.026401218595 -0.010229400731
v 0.034111076007 0.027657833665 -0.006055463184
v 0.033887766884 0.028448440012 -0.001907399444
v 0.033915319026 0.027683414336 -0.006829800239
v 0.034219361552 0.012478054095 -0.025418593235
v 0.034026220776 0.010110742603 -0.026664954048
v 0.034021211974 -0.012222191481 -0.025764983250
v 0.034035466937 -0.003436216647 -0.028309805370
v 0.034036476896 0.001148446453 -0.028494600005
v 0.017014187430 0.014744004413 0.024302824655
v 0.020667384182 0.015556621168 0.023813398661
v 0.021446556745 0.017512496222 0.022423629191
v 0.020209140222 0.015831390709 0.023629675478
v 0.017891799364 0.015743255905 0.023675352852
v 0.018068480782 0.015831331080 0.023617749757
v 0.018589148438 0.015998168188 0.023508456115
v 0.019139760833 0.016054161311 0.023473452261
v 0.021255679992 0.014744534548 0.024326204658
v 0.021255620364 -0.014743884224 0.024326085401
v 0.021446556745 -0.017511605520 0.022423629191
v 0.021334272356 -0.014255227812 0.024615161147
v 0.018068650351 -0.015830490689 0.023617749757
v 0.017608505729 -0.015555850655 0.023796281525
v -0.004363322186 -0.017511605520 0.022279272067
v 0.020667684189 -0.015555490088 0.023813568230
v 0.019690732863 -0.015997158228 0.023514718982
v 0.019139760833 -0.016053270609 0.023473452261
v 0.017248641512 -0.015188832869 0.024029244892
v 0.017014306687 -0.014743464028 0.024302584277
v 0.017733725798 0.028471039253 0.001428462029
v 0.018708226760 0.028437766492 0.001962436529
v 0.017377502652 0.028491018562 0.000991050230
v 0.017147630656 0.028506223856 0.000466830567
v 0.017070648264 0.028511886710 -0.000100703461
v 0.021472377794 0.028511886710 -0.000076086871
v 0.021559252943 0.028414516926 0.002278885765
v 0.021389015142 0.028506223856 0.000490559112
v 0.021153359171 0.028491018562 0.001012135696
v 0.020792315425 0.028471039253 0.001445575904
v 0.019811840422 0.028437766492 0.001968578043
v 0.019259679546 0.028432824771 0.002033334940
v 0.021464383834 0.020976979623 0.019234449193
v -0.004345494165 0.020976979623 0.019090090206
v 0.021485192353 0.023869261346 0.015518515695
v 0.021533253009 0.027639406562 0.006923476777
v 0.021464383834 -0.020976088920 0.019234449193
v -0.004324742945 -0.023868370644 0.015374157639
v 0.021485192353 -0.023868370644 0.015518515695
v -0.004301547418 -0.026109571364 0.011232833679
v 0.021508331979 -0.026109571364 0.011377191734
v -0.004276622196 -0.027638566172 0.006779115926
v 0.021559252943 -0.028413616907 0.002278885765
v 0.017070648264 -0.028510996008 -0.000100703461
v 0.017147630656 -0.028505333154 0.000466684523
v 0.020331378861 -0.028450651860 0.001771326736
v 0.017734195373 -0.028470150414 0.001428939174
v 0.018190888990 -0.028450651860 0.001759341969
v 0.019259679546 -0.028431924752 0.002033334940
v 0.021389194027 -0.028505333154 0.000490087906
v 0.021508331979 0.026110462067 0.011377191734
v 0.021533253009 -0.027638566172 0.006923476777
v 0.017377502652 -0.028490127860 0.000991050230
v 0.018707997563 -0.028436935418 0.001962376435
v 0.020792134676 -0.028470150414 0.001445694928
v 0.021153359171 -0.028490127860 0.001012135696
v 0.020331378861 0.028451542563 0.001771326736
v 0.018190888990 0.028451542563 0.001759341969
v 0.019690852120 0.015997987439 0.023514718982
v 0.021024507347 0.015189723571 0.024050353417
v 0.017248641512 0.015189723571 0.024029244892
v 0.021024507347 -0.015188832869 0.024050353417
v 0.020209140222 -0.015830490689 0.023629675478
v 0.018588499977 -0.015997158228 0.023508515744
v -0.004345494165 -0.020976088920 0.019090090206
v -0.004250683753 -0.028413616907 0.002134524681
v -0.004250683753 0.028414516926 0.002134524681
v -0.004276622196 0.027639406562 0.006779115926
v -0.004301547418 0.026110462067 0.011232833679
v -0.004324742945 0.023869261346 0.015374157639
v -0.004363322186 0.017512496222 0.022279272067
v -0.008632194527 -0.028426142640 0.001953253841
v -0.009018348436 -0.028503242426 0.000417851899
v -0.009627455561 -0.028465918646 -0.001852481383
v -0.009808726518 -0.028418389059 -0.002547154390
v -0.008614544460 -0.028420239409 0.002028385999
v -0.008122548846 -0.028090496954 0.004636958317
v -0.004662479360 -0.028163957531 0.004212581540
v -0.008010267252 -0.027873799152 0.005753205789
v -0.007978842978 -0.027691516372 0.006545789197
v -0.008552828854 -0.026256740350 0.010867546985
v -0.008284679021 -0.026733642473 0.009666749879
v -0.004686688107 -0.027130351578 0.008542453477
v -0.008001799991 -0.027442386200 0.007491797470
v -0.007987190983 -0.027525629595 0.007190017104
v -0.004722584527 -0.024131455773 0.014961591985
v -0.009504560076 -0.024656897444 0.014065782146
v -0.004709705214 -0.025435410364 0.012658606713
v -0.009010835232 -0.025499395584 0.012507455655
v -0.008559149486 -0.026246005338 0.010892706530
v -0.004730932997 -0.023120389432 0.016460824665
v -0.010069175876 -0.023543810288 0.015827809266
v -0.009785589688 -0.024132886859 0.014930999716
v -0.010747688832 -0.021394556875 0.018589569565
v -0.010721578025 -0.021537604033 0.018426064205
v -0.004743037604 -0.021392885411 0.018625054174
v -0.010664865633 -0.021806171267 0.018112188549
v -0.010417296053 -0.022668227589 0.017038396643
v -0.010854311299 -0.019874565987 0.020185650279
v -0.010858783444 -0.019026114303 0.020977639264
v -0.010863195029 -0.018103654205 0.021769326380
v -0.010868677134 -0.016844778838 0.022746400689
v -0.010871188057 -0.016214504491 0.023194990406
v -0.010877801242 -0.014348545646 0.024380876634
v -0.004766173037 0.016870478767 0.022762375565
v -0.010728250839 0.015983322529 0.023354554688
v -0.010780671836 0.014349495977 0.024381357390
v -0.004749954522 0.020242593732 0.019856317770
v -0.010621278055 0.018715270389 0.021254189277
v -0.004760867023 0.018104554224 0.021803491707
v -0.010647218361 0.018104554224 0.021770517088
v -0.010699158602 0.016789795675 0.022788136986
v -0.010264223836 0.022096148896 0.017765617784
v -0.010418126195 0.021396107219 0.018590639153
v -0.010479600491 0.021011443093 0.019018241464
v -0.010581571926 0.019604627295 0.020447056490
v -0.004699926589 0.026249877470 0.010907322991
v -0.008471555067 0.026249758213 0.010886564783
v -0.008481513044 0.026230078910 0.010932722913
v -0.004709705214 0.025436301067 0.012658606713
v -0.009208981084 0.024816461725 0.013790600796
v -0.009532525891 0.024134377574 0.014931469291
v -0.004730932997 0.023121220506 0.016460824665
v -0.009914030633 0.023207564588 0.016311574269
v -0.010068765929 0.022763866280 0.016915436871
v -0.004662479360 0.028164846370 0.004212581540
v -0.008023267220 0.027937486228 0.005453274375
v -0.007980810722 0.027732663836 0.006379306134
v -0.007978486138 0.027691756750 0.006548413322
v -0.008050695446 0.027228559889 0.008216463898
v -0.008274898998 0.026655590494 0.009877238852
v -0.009541590371 0.028419169821 -0.002546618199
v -0.009227884283 0.028496450355 -0.001186191592
v -0.008513234529 0.028421310860 0.002026477185
v -0.004650374753 0.028421070482 0.002051223288
v -0.008408228557 0.028372299874 0.002574583548
v -0.008103764904 0.028100510833 0.004584187002
v -0.011021388784 0.020397985875 0.019142621143
v -0.010905471709 0.005631801951 0.029330704841
v -0.010905471709 -0.005630907522 0.029330704841
v -0.004803142771 -0.005630907522 0.029364819856
v -0.004803142771 0.005631801951 0.029364819856
v -0.010159041773 -0.027399990263 0.003859579737
v -0.010256110619 -0.027710483859 0.002139473623
v -0.009875510554 -0.028018577403 0.002168215309
v -0.010379780344 -0.027939455836 0.000397093546
v -0.010514004332 -0.028069148050 -0.001365136568
v -0.010284732349 -0.028255183705 -0.001371218918
v -0.010840355410 -0.021520436585 0.018410568221
v -0.010950190367 -0.014702617503 0.024154405332
v -0.010104660486 -0.027025228212 0.005558995891
v -0.010173287419 -0.026130679890 0.008916800923
v -0.010283241634 -0.025595993922 0.010578290489
v -0.010682222215 -0.024694823099 0.012076872845
v -0.010422537780 -0.024981698178 0.012221590536
v -0.010771188092 -0.024063419535 0.013714160652
v -0.010992946872 -0.020280038632 0.019698965337
v -0.011037364592 -0.020231558714 0.019651016486
v -0.011021148407 -0.021383352288 0.018290709137
v -0.011044288032 -0.018941741692 0.020882470148
v -0.011062054561 -0.014644604461 0.024057516304
v -0.011006422936 -0.017618819614 0.022083682791
v -0.010949599672 -0.021466114927 0.018362798256
v -0.010991396528 -0.021427060055 0.018328754050
v -0.010854721245 -0.022523920777 0.016925931505
v -0.010934863953 -0.022445158844 0.016865406609
v -0.010724439267 -0.023457175516 0.015410652209
v -0.010858422877 -0.023319489342 0.015317984699
v -0.010575009053 -0.024273014079 0.013836929426
v -0.009743850596 -0.025381207963 0.012424862585
v -0.010102569758 -0.025214721173 0.012339718528
v -0.009454054648 -0.026098366777 0.010795457866
v -0.009892324889 -0.025889003294 0.010704460889
v -0.009227525580 -0.026717606106 0.009128066000
v -0.009727332541 -0.026473007707 0.009039456962
v -0.009098967241 -0.027240845245 0.007428888827
v -0.009632583621 -0.026974549488 0.007350894612
v -0.009100814796 -0.027670348218 0.005703356742
v -0.009631270860 -0.027401540606 0.005642594262
v -0.008549429092 -0.027825380726 0.005739789353
v -0.008544242335 -0.027394446666 0.007475279881
v -0.008998432482 -0.026219045755 0.010849118952
v -0.008707921922 -0.026858622164 0.009180478611
v -0.010645187261 -0.022633644862 0.017010784873
v -0.010374178050 -0.023648881478 0.015540644429
v -0.010062143427 -0.024564890507 0.014009199259
v -0.009370873676 -0.025477206289 0.012474892847
v -0.011017807341 -0.014679598067 0.024115890844
v -0.010944767891 -0.016206512395 0.023182995740
v -0.011012384865 -0.016181172101 0.023145970103
v -0.010938805031 -0.017646420204 0.022119048144
v -0.010932362346 -0.019016691120 0.020966784995
v -0.011050670156 -0.017576842940 0.022030141895
v -0.010999980252 -0.018986999802 0.020933210364
v -0.010925029892 -0.020311882171 0.019730678438
v -0.010953951628 -0.023165228279 0.015214413540
v -0.010991986292 -0.022356902919 0.016797789635
v -0.010489084234 -0.028205993833 -0.003152384724
v -0.010642686587 -0.028081964473 -0.003140458770
v -0.010660213670 -0.028032713109 -0.004929555878
v -0.010071927177 -0.028189476710 0.000404643581
v -0.010317055711 -0.028294659705 -0.003160493981
v -0.010559743198 -0.028083993709 -0.004937546111
v -0.010027919404 -0.028388157356 -0.001375035498
v -0.009727094027 -0.028368068107 0.000410737054
v -0.009761083263 -0.028464787566 -0.001376526097
v -0.009368726115 -0.028471100745 0.000415142816
v -0.009006065875 -0.028365677372 0.002203097343
v -0.009720356926 -0.027752641282 0.003914975177
v -0.009449166034 -0.028238726210 0.002189621745
v -0.009228838341 -0.028004572135 0.003955582256
v -0.008718000088 -0.028149821825 0.003980209335
v -0.010138293813 -0.028345759555 -0.003164727612
v -0.010700289682 -0.027840116444 -0.001357087288
v -0.010629871095 -0.027631652980 0.000388519110
v -0.010565165675 -0.027331121088 0.002105008755
v -0.011056633016 -0.016142586804 0.023089917352
v -0.010692056276 0.024352854917 0.012775843071
v -0.010913755427 0.023400703501 0.014270964173
v -0.010550559462 0.025503386973 0.009427102519
v -0.009483034149 0.028474861074 -0.000895580874
v -0.009142257608 0.028450471111 0.000935782025
v -0.008843160529 0.028309505364 0.002761161451
v -0.011007853091 0.020088871191 0.019550486386
v -0.011008393475 0.020637152480 0.018905126002
v -0.011028901988 0.019531047461 0.020062571249
v -0.011021328224 0.019398554566 0.020226967311
v -0.010535053229 0.027188964632 0.002632661809
v -0.010586933842 0.027489315775 0.000887725679
v -0.010646977983 0.027700220285 -0.000884522389
v -0.010416155656 0.027984235054 -0.000889672460
v -0.010300478959 0.027841726417 0.000903985247
v -0.010199647921 0.027599809442 0.002678218062
v -0.010127619362 0.027273939120 0.004430941489
v -0.010098397619 0.026879080366 0.006163688635
v -0.010636123714 0.027909524140 -0.004508220626
v -0.010532671812 0.028011844961 -0.002696881583
v -0.009813735320 0.028379813078 -0.000895273706
v -0.010132030947 0.028214997753 -0.000893315919
v -0.009552800548 0.028332523868 0.000928580124
v -0.009947839120 0.028128001482 0.000917863804
v -0.009324005593 0.028172009256 0.002743869621
v -0.009786723563 0.027933554467 0.002715963202
v -0.009157521599 0.027902361254 0.004544295000
v -0.009670149641 0.027640535779 0.004496413697
v -0.009083462872 0.027528020330 0.006324269398
v -0.009619763471 0.027257602746 0.006256710190
v -0.008624740951 0.028053402372 0.004573215805
v -0.008525995982 0.027684003168 0.006364637497
v -0.010076689080 0.028310105377 -0.002720316090
v -0.010311633234 0.028120128643 -0.004538511491
v -0.010979771745 0.015224847614 0.023737308835
v -0.010870767862 0.015263363034 0.023798603314
v -0.010960153935 0.016726060151 0.022699111479
v -0.010938865591 0.018156015573 0.021566406513
v -0.010796588015 0.018215938594 0.021639214902
v -0.010916386539 0.019509098544 0.020344323858
v -0.009276361407 0.026476889157 0.009803836040
v -0.009127171571 0.027052899611 0.008079197919
v -0.009653811404 0.026791905210 0.007995957319
v -0.009770921051 0.024201454164 0.014774537053
v -0.009404741792 0.025109899677 0.013188108719
v -0.009770921051 0.025016992721 0.013136358545
v -0.009501042920 0.025798606330 0.011491857540
v -0.009927028737 0.025597484638 0.011397939694
v -0.009763407847 0.026240754294 0.009711472264
v -0.010197917759 0.025910231077 0.009583568908
v -0.010123677352 0.026426618517 0.007880873181
v -0.010835163995 0.016774530752 0.022766378135
v -0.010595757944 0.020886701916 0.019139110508
v -0.010405481204 0.022086073526 0.017756675357
v -0.010549909137 0.022053872216 0.017729544342
v -0.010325578874 0.023143650178 0.016263634734
v -0.010525579735 0.023059154582 0.016202220999
v -0.010329820890 0.024011058167 0.014653188185
v -0.010574178911 0.023841960762 0.014546815413
v -0.010437143993 0.024630426070 0.012925743792
v -0.008579720423 0.027203400345 0.008128630032
v -0.008770054928 0.026613073435 0.009858337516
v -0.009058120715 0.025914582102 0.011547129530
v -0.010117535606 0.023192359294 0.016299588919
v -0.010055820932 0.024131806091 0.014729688889
v -0.010123087588 0.024855878096 0.013048163180
v -0.010307101461 0.025315972407 0.011267717344
v -0.011032002676 0.018064718590 0.021456151360
v -0.011041956926 0.016652180310 0.022597329179
v -0.011051080102 0.015166233628 0.023644580765
v -0.010885853899 0.020774717534 0.019033508250
v -0.010984594209 0.021715776166 0.017451442122
v -0.010756041495 0.019581728048 0.020421895082
v -0.010698678778 0.020864993377 0.019118411929
v -0.010797598906 0.020827369591 0.019082877008
v -0.010688785088 0.021997998350 0.017683276272
v -0.010812564754 0.021919827113 0.017618819614
v -0.010703981065 0.022940847704 0.016116836564
v -0.010951860900 0.022632154147 0.015895137413
v -0.004802308437 -0.006370242586 0.029223201921
v -0.010904751508 -0.006334882358 0.029202743719
v -0.010905171703 0.006201076702 0.029248001830
v -0.010903621359 0.006803920959 0.028951412879
v -0.010898259443 0.006371076921 0.029189148397
v -0.010905051514 0.006294096859 0.029217889385
v -0.004802308437 0.006371076921 0.029223201921
v -0.004766173037 -0.016869578747 0.022762375565
v -0.004760867023 -0.018103713834 0.021803491707
v -0.004749954522 -0.020241703030 0.019856317770
v -0.004699926589 -0.026248986768 0.010907322991
v -0.004675597653 -0.027690925677 0.006566659675
v -0.004650374753 -0.028420179780 0.002051223288
v -0.004637614232 -0.028510996008 -0.000225332536
v -0.004802427694 0.006335776787 0.029236918363
v -0.004675597653 0.027691816379 0.006566659675
v -0.004637614232 0.028511886710 -0.000225332536
v -0.004722584527 0.024132346475 0.014961591985
v -0.004686688107 0.027131251597 0.008542453477
v -0.004743037604 0.021393785430 0.018625054174
v -0.011076250827 0.006745247344 0.028869300564
v -0.011078211117 0.005631801951 0.029229693985
v -0.011077621353 0.006260943820 0.029122481754
v -0.011004871661 0.006285152568 0.029192010570
v -0.011077801171 0.006172633392 0.029151043856
v -0.011004991850 0.006193443775 0.029221711206
v -0.011003441506 0.006788179474 0.028929054016
v -0.011005352417 0.005631801951 0.029303344628
v -0.010974639959 -0.005630907522 0.029317949909
v -0.011005352417 -0.005630907522 0.029303344628
v -0.011046608889 -0.005630907522 0.029271322204
v -0.011078211117 -0.005630907522 0.029229693985
v -0.011092467012 -0.005630907522 0.029198811958
v -0.010973919757 -0.006330529470 0.029190819862
v -0.011091806439 -0.006288850007 0.029079254743
v -0.011045958564 -0.006314310955 0.029147112095
v 0.016297088245 -0.014770064908 -0.035617890837
v -0.023204763907 0.016587304388 -0.035838751461
v -0.027905283055 -0.005830961955 -0.035865051402
v -0.024493582150 -0.014574536193 -0.035845973975
v -0.028487737125 -0.001158225427 -0.035868330975
v -0.028293168990 0.003546649055 -0.035867250207
v -0.021757402522 -0.018406865658 -0.035830709053
v -0.014595464901 -0.024472823942 -0.035790631177
v -0.010365054874 -0.026540984316 -0.035766962348
v -0.005852010386 -0.027884593793 -0.035741743175
v -0.001179333837 -0.028467047863 -0.035715622119
v 0.002250919484 -0.028402352691 -0.035696421709
v 0.024491370301 0.014614552576 -0.035572032714
v 0.026559471047 0.010384142549 -0.035560468491
v 0.027903082387 0.005870971817 -0.035552955287
v 0.028485536457 0.001198236454 -0.035549675714
v 0.028290906829 -0.003506638029 -0.035550804930
v 0.025612861364 -0.012502083491 -0.035565771710
v 0.020159169588 -0.020140632546 -0.035596241927
v 0.016565955485 -0.023183955388 -0.035616340493
v 0.012520810599 -0.025594383950 -0.035638999363
v 0.008134056235 -0.027306142293 -0.035663510446
v 0.006775299229 -0.027159152193 -0.035671131727
v -0.012523012199 0.025634391017 -0.035779066954
v -0.008136322122 0.027346147496 -0.035754496243
v -0.003527687392 0.028312486794 -0.035728736686
v 0.011168137575 0.025707968988 -0.035646572196
v 0.014593203673 0.024512840326 -0.035627364332
v 0.018425473509 0.021776599206 -0.035605965116
v -0.020161441065 0.020180639613 -0.035821764762
v 0.016297088245 0.014810071043 -0.035617890837
v -0.028336226432 -0.003289053485 -0.032866205909
v -0.028504554255 -0.001158225427 -0.032867167420
v 0.010362854206 0.026581000700 -0.035651044341
v -0.003504253117 -0.028277251879 -0.033034421928
v 0.003525481599 -0.028272479727 -0.035689258823
v -0.000079690718 -0.028491378197 -0.033121479690
v 0.023202503610 -0.016547288005 -0.035579247775
v 0.027324569395 -0.008115332853 -0.035556175232
v 0.021755131045 0.018446941670 -0.035587360992
v 0.005849744499 0.027924610177 -0.035676263514
v 0.001177067950 0.028507054930 -0.035702444198
v -0.001920636761 0.028467709368 -0.033100371165
v 0.000048506891 0.028531383400 -0.033120756694
v -0.017049360853 0.022885275709 -0.032803118845
v -0.016568158016 0.023223962454 -0.035801666195
v -0.019587990915 0.020754030135 -0.032817317907
v -0.020178198567 0.020180639613 -0.032820586300
v -0.021862104761 0.018342589749 -0.032830011346
v -0.023221521408 0.016587304388 -0.032837584179
v -0.023840999251 0.015683452141 -0.032841105993
v -0.025615132841 0.012542099874 -0.035852227525
v -0.025497904868 0.012812628330 -0.032850348427
v -0.027326829692 0.008155343647 -0.035861831457
v -0.026810382624 0.009768894610 -0.032857682745
v -0.025631888479 0.012542099874 -0.032851119872
v -0.027760804811 0.006593372358 -0.032862985964
v -0.027343587193 0.008155343647 -0.032860664175
v -0.028528882726 0.000020007639 -0.032867286677
v -0.028336226432 0.003329064744 -0.032866205909
v -0.028309924627 0.003546649055 -0.032866086652
v -0.027922100185 -0.005830961955 -0.032863884120
v -0.027760804811 -0.006553362030 -0.032862985964
v -0.026561673579 -0.010344126165 -0.035857538198
v -0.026810382624 -0.009728882885 -0.032857682745
v -0.025497904868 -0.012772622195 -0.032850348427
v -0.026578488845 -0.010344126165 -0.032856370916
v -0.021774160023 -0.018406865658 -0.032829541771
v -0.021862104761 -0.018302573365 -0.032830011346
v -0.023840999251 -0.015643435758 -0.032841105993
v -0.024510388099 -0.014574536193 -0.032844799240
v -0.019587990915 -0.020714013751 -0.032817317907
v -0.018427733806 -0.021736584686 -0.035812041573
v -0.018444491307 -0.021736584686 -0.032810874291
v -0.016118796854 -0.023510066088 -0.032744205784
v -0.017049360853 -0.022845259325 -0.032803118845
v 0.006775299229 0.027199168577 -0.035671131727
v 0.011168137575 -0.025667963784 -0.035646572196
v -0.026671567233 0.009716778278 -0.032091212939
v -0.027616866950 0.006558251110 -0.032096527338
v -0.028189236332 0.003311354583 -0.032099676474
v -0.028380884530 0.000020007639 -0.032100757242
v -0.028189236332 -0.003271344488 -0.032099676474
v -0.027616866950 -0.006518241248 -0.032096527338
v -0.026671567233 -0.009676768416 -0.032091212939
f 317 43 318
f 116 525 524
f 525 523 524
f 65 64 548
f 521 522 548
f 548 523 525
f 548 522 523
f 515 518 516
f 590 507 505
f 505 494 590
f 394 395 452
f 309 489 552
f 498 478 496
f 552 202 20
f 20 202 73
f 552 489 201
f 201 202 552
f 111 524 523
f 523 63 111
f 521 548 34
f 34 548 64
f 97 64 65
f 97 99 114
f 97 34 64
f 67 536 68
f 68 99 67
f 536 67 537
f 537 67 66
f 537 66 65
f 65 548 537
f 73 110 108
f 110 109 108
f 68 536 69
f 69 99 68
f 542 69 536
f 70 69 542
f 516 518 517
f 518 515 519
f 31 519 520
f 541 590 567
f 514 515 513
f 567 514 513
f 513 541 567
f 572 515 512
f 511 513 572
f 572 513 515
f 116 117 115
f 112 117 116
f 116 111 112
f 112 111 63
f 112 63 523
f 523 522 112
f 522 173 112
f 525 117 547
f 122 59 124
f 122 121 118
f 510 562 560
f 514 562 538
f 538 562 510
f 538 556 555
f 552 550 551
f 551 309 552
f 317 474 473
f 473 158 317
f 280 473 474
f 297 298 81
f 81 296 297
f 21 296 81
f 81 80 21
f 404 396 410
f 410 411 423
f 489 309 398
f 398 414 416
f 475 315 318
f 478 498 475
f 504 494 505
f 504 503 494
f 505 507 504
f 494 503 500
f 500 498 494
f 315 475 500
f 500 475 498
f 508 504 507
f 503 504 508
f 316 474 317
f 72 550 170
f 170 20 73
f 170 550 552
f 552 20 170
f 73 108 170
f 170 108 72
f 73 208 165
f 312 19 165
f 165 110 73
f 165 109 110
f 165 208 311
f 200 201 489
f 489 199 200
f 116 524 176
f 176 111 116
f 524 111 176
f 172 173 522
f 521 114 172
f 172 522 521
f 114 112 172
f 172 112 173
f 33 114 521
f 96 97 114
f 34 97 96
f 114 33 96
f 521 34 96
f 96 33 521
f 99 97 98
f 98 67 99
f 66 67 98
f 65 66 98
f 98 97 65
f 99 69 168
f 168 69 70
f 536 537 535
f 535 542 536
f 585 542 535
f 535 537 548
f 535 550 585
f 585 550 549
f 549 542 585
f 549 550 72
f 72 71 549
f 520 519 531
f 531 530 520
f 531 529 530
f 337 508 507
f 581 515 516
f 581 374 582
f 515 581 580
f 580 581 582
f 175 525 116
f 116 115 175
f 175 115 525
f 62 117 525
f 525 115 62
f 62 115 117
f 117 112 113
f 113 112 114
f 114 100 113
f 113 108 140
f 113 100 108
f 120 124 61
f 120 161 121
f 120 121 122
f 122 124 120
f 528 529 527
f 121 161 142
f 157 43 317
f 317 158 157
f 31 32 136
f 55 31 136
f 479 37 36
f 36 37 88
f 38 37 479
f 42 41 318
f 510 560 559
f 559 558 510
f 559 394 396
f 559 396 404
f 404 558 559
f 556 538 557
f 510 558 557
f 557 538 510
f 159 473 44
f 158 473 159
f 44 102 159
f 44 473 45
f 45 102 44
f 262 263 52
f 298 297 437
f 453 394 452
f 81 82 166
f 166 82 167
f 80 78 293
f 296 21 27
f 27 245 296
f 227 21 80
f 227 27 21
f 245 27 227
f 491 78 9
f 9 306 491
f 307 78 491
f 491 306 307
f 312 313 302
f 19 302 75
f 75 302 313
f 109 165 75
f 75 165 19
f 421 410 423
f 423 422 421
f 415 414 426
f 416 414 415
f 397 398 309
f 414 398 397
f 426 414 397
f 397 308 426
f 312 243 310
f 310 243 311
f 489 398 310
f 310 199 489
f 310 197 199
f 311 208 310
f 452 395 472
f 395 564 472
f 83 289 85
f 83 82 23
f 85 167 83
f 167 82 83
f 478 475 487
f 487 475 318
f 318 41 487
f 487 41 40
f 487 38 479
f 40 38 487
f 88 182 180
f 501 316 315
f 315 500 501
f 203 243 312
f 312 165 203
f 311 243 74
f 74 165 311
f 243 203 74
f 74 203 165
f 199 197 206
f 202 201 204
f 201 200 204
f 73 202 204
f 204 200 199
f 70 542 171
f 171 168 70
f 542 549 171
f 171 549 71
f 72 108 95
f 95 71 72
f 516 517 379
f 546 527 529
f 546 142 161
f 586 531 519
f 529 531 586
f 586 519 515
f 515 509 586
f 586 509 525
f 586 546 529
f 530 529 57
f 57 56 530
f 529 163 57
f 544 31 520
f 544 32 31
f 520 530 544
f 530 56 162
f 162 544 530
f 32 544 162
f 578 579 512
f 512 515 578
f 515 577 578
f 584 581 516
f 374 581 584
f 576 577 515
f 515 580 576
f 174 547 117
f 60 124 59
f 60 59 528
f 528 527 60
f 61 124 60
f 60 527 61
f 156 157 158
f 158 159 156
f 156 159 102
f 122 118 90
f 90 162 56
f 90 136 32
f 32 162 90
f 149 125 55
f 55 136 149
f 149 136 125
f 154 318 43
f 154 42 318
f 131 87 286
f 86 87 164
f 85 86 164
f 164 167 85
f 81 298 490
f 490 82 81
f 23 82 211
f 394 559 561
f 561 564 395
f 395 394 561
f 561 560 564
f 561 559 560
f 554 538 555
f 177 283 476
f 185 177 476
f 479 36 476
f 476 36 185
f 184 288 282
f 430 432 431
f 587 472 564
f 465 472 587
f 401 465 587
f 462 588 463
f 461 588 462
f 463 430 462
f 431 461 462
f 462 430 431
f 6 473 47
f 46 6 47
f 46 45 473
f 473 6 46
f 102 45 103
f 103 156 102
f 45 46 103
f 47 93 103
f 103 46 47
f 47 473 188
f 188 186 47
f 473 186 188
f 265 264 263
f 128 129 49
f 128 156 129
f 145 128 49
f 215 262 52
f 52 1 215
f 1 268 215
f 49 129 144
f 438 297 296
f 438 437 297
f 458 437 438
f 439 451 458
f 458 438 439
f 439 456 440
f 439 438 456
f 91 80 81
f 81 166 91
f 37 38 105
f 88 37 105
f 101 113 140
f 101 107 167
f 79 227 80
f 245 227 79
f 296 245 295
f 245 79 295
f 295 438 296
f 456 438 295
f 10 306 9
f 10 244 306
f 306 244 305
f 304 75 303
f 303 75 313
f 307 306 455
f 440 456 455
f 399 398 416
f 312 310 399
f 399 310 398
f 399 313 312
f 11 19 312
f 312 302 11
f 11 302 19
f 553 554 555
f 426 412 413
f 413 415 426
f 555 556 413
f 413 553 555
f 412 554 413
f 554 553 413
f 197 310 234
f 452 472 471
f 471 472 465
f 471 451 452
f 470 465 401
f 470 471 465
f 298 437 457
f 457 300 298
f 23 300 299
f 433 461 431
f 22 86 85
f 22 284 86
f 86 284 292
f 474 316 506
f 316 501 506
f 503 508 502
f 502 500 503
f 502 501 500
f 508 506 502
f 502 506 501
f 73 204 205
f 205 204 199
f 205 206 73
f 199 206 205
f 550 535 532
f 532 509 515
f 532 515 514
f 514 538 532
f 538 554 532
f 426 533 532
f 169 171 71
f 71 95 169
f 168 171 169
f 169 95 108
f 99 168 169
f 108 100 169
f 114 99 169
f 169 100 114
f 376 374 516
f 516 379 376
f 518 519 543
f 543 382 518
f 519 382 543
f 381 380 383
f 383 380 382
f 249 383 382
f 545 249 519
f 486 249 545
f 519 31 545
f 161 120 160
f 160 546 161
f 160 120 61
f 61 527 160
f 527 546 160
f 526 586 525
f 546 586 526
f 525 547 526
f 142 546 526
f 121 142 526
f 52 263 18
f 15 14 259
f 55 125 150
f 125 127 150
f 58 529 528
f 58 163 529
f 528 59 58
f 58 59 122
f 122 163 58
f 332 579 330
f 579 578 330
f 578 392 330
f 330 331 332
f 329 331 330
f 330 392 329
f 516 374 583
f 583 584 516
f 374 584 583
f 375 576 580
f 582 374 375
f 375 580 582
f 483 217 266
f 483 152 217
f 123 90 118
f 136 90 123
f 122 90 89
f 89 163 122
f 89 57 163
f 56 57 89
f 89 90 56
f 106 87 88
f 106 164 87
f 88 105 106
f 106 105 164
f 130 211 82
f 130 490 298
f 82 490 130
f 298 300 246
f 246 130 298
f 211 130 246
f 479 476 477
f 477 487 479
f 478 487 477
f 496 478 477
f 496 477 499
f 499 477 476
f 88 87 17
f 17 184 88
f 17 288 184
f 237 283 177
f 237 282 283
f 237 178 282
f 139 182 88
f 88 282 139
f 139 282 182
f 183 282 88
f 184 282 183
f 283 282 429
f 429 476 283
f 429 499 476
f 445 282 288
f 432 430 445
f 445 429 282
f 563 587 564
f 563 560 562
f 564 560 563
f 403 588 461
f 403 402 588
f 461 433 403
f 568 514 567
f 568 569 514
f 567 590 568
f 129 156 94
f 156 103 94
f 94 103 93
f 94 144 129
f 47 186 238
f 186 195 238
f 280 195 196
f 196 195 186
f 473 280 196
f 196 186 473
f 269 362 263
f 263 262 269
f 361 343 362
f 361 268 360
f 362 269 361
f 361 269 268
f 362 343 345
f 332 331 345
f 362 345 347
f 347 345 331
f 266 265 363
f 263 362 363
f 363 265 263
f 540 513 511
f 541 513 540
f 337 592 393
f 393 592 369
f 49 144 134
f 213 3 241
f 241 3 482
f 117 113 119
f 121 117 119
f 119 118 121
f 119 123 118
f 136 123 119
f 213 145 2
f 2 145 49
f 2 3 213
f 49 482 2
f 482 3 2
f 25 268 1
f 274 145 273
f 360 268 274
f 274 273 360
f 187 144 4
f 481 144 187
f 434 441 440
f 440 455 434
f 459 441 453
f 451 439 459
f 459 439 440
f 440 441 459
f 452 451 459
f 459 453 452
f 92 78 80
f 80 91 92
f 92 91 166
f 92 108 109
f 140 108 92
f 92 166 167
f 167 107 92
f 92 101 140
f 107 101 92
f 155 154 43
f 43 157 155
f 157 156 155
f 28 101 167
f 156 128 28
f 113 101 28
f 28 119 113
f 294 295 79
f 80 293 294
f 294 79 80
f 294 78 307
f 294 293 78
f 307 455 294
f 456 295 294
f 294 455 456
f 306 305 454
f 454 455 306
f 454 434 455
f 77 75 304
f 9 78 77
f 78 92 77
f 109 75 77
f 77 92 109
f 420 421 422
f 420 419 421
f 415 413 407
f 556 557 407
f 407 413 556
f 233 206 197
f 197 234 233
f 73 206 233
f 198 310 208
f 198 234 310
f 300 457 301
f 301 299 300
f 289 83 301
f 301 83 23
f 23 299 301
f 471 470 450
f 451 471 450
f 458 451 450
f 85 289 492
f 209 22 85
f 284 22 26
f 22 209 26
f 26 209 210
f 86 292 285
f 286 87 285
f 285 87 86
f 431 432 466
f 466 433 431
f 432 285 466
f 466 285 292
f 466 468 433
f 539 532 535
f 509 532 539
f 539 535 548
f 539 548 525
f 525 509 539
f 550 532 534
f 534 532 533
f 534 551 550
f 309 551 534
f 534 397 309
f 534 533 426
f 308 397 534
f 426 308 534
f 426 532 427
f 427 532 554
f 427 412 426
f 427 554 412
f 518 382 251
f 251 389 518
f 382 389 251
f 374 380 324
f 324 375 374
f 324 380 381
f 378 389 382
f 382 380 378
f 378 380 374
f 374 376 378
f 378 376 379
f 378 379 517
f 378 517 518
f 518 389 378
f 250 382 519
f 519 249 250
f 250 249 382
f 221 249 486
f 486 545 137
f 137 545 31
f 137 31 55
f 137 221 30
f 121 526 141
f 547 174 141
f 141 526 547
f 141 117 121
f 141 174 117
f 263 264 132
f 132 18 263
f 217 152 16
f 16 24 217
f 264 265 16
f 265 24 16
f 216 265 266
f 216 24 265
f 266 217 216
f 217 24 216
f 54 259 14
f 54 53 259
f 391 392 578
f 391 390 322
f 391 578 577
f 577 390 391
f 576 375 323
f 577 576 323
f 323 390 577
f 375 324 323
f 322 390 323
f 257 483 266
f 152 483 257
f 14 228 151
f 151 54 14
f 151 150 127
f 127 54 151
f 23 211 8
f 211 246 8
f 8 300 23
f 8 246 300
f 179 17 87
f 179 131 247
f 87 131 179
f 247 288 281
f 288 17 281
f 182 282 181
f 282 178 181
f 181 180 182
f 88 180 181
f 181 178 88
f 236 177 185
f 236 237 177
f 236 36 88
f 185 36 236
f 88 178 236
f 178 237 236
f 88 184 235
f 235 183 88
f 184 183 235
f 499 429 428
f 493 499 428
f 463 493 428
f 428 430 463
f 428 445 430
f 429 445 428
f 587 563 566
f 401 587 566
f 566 563 562
f 566 314 401
f 588 314 566
f 400 403 433
f 401 314 400
f 402 403 400
f 588 402 400
f 400 314 588
f 589 568 590
f 569 568 589
f 588 569 589
f 463 588 589
f 589 493 463
f 144 94 48
f 48 4 144
f 48 93 47
f 48 94 93
f 214 215 268
f 268 269 214
f 262 215 214
f 214 269 262
f 348 359 358
f 266 363 358
f 358 257 266
f 15 259 260
f 260 14 15
f 348 347 349
f 349 331 329
f 349 347 331
f 346 347 348
f 348 358 346
f 346 358 363
f 362 347 346
f 346 363 362
f 326 506 508
f 326 280 474
f 474 506 326
f 570 540 511
f 591 337 507
f 591 592 337
f 541 540 591
f 591 570 592
f 540 570 591
f 507 590 591
f 590 541 591
f 574 572 512
f 512 579 574
f 574 579 332
f 369 592 336
f 592 334 336
f 275 134 144
f 275 482 49
f 49 134 275
f 365 326 364
f 508 337 364
f 364 326 508
f 365 364 366
f 337 393 366
f 366 364 337
f 145 274 51
f 51 1 52
f 128 145 51
f 52 146 51
f 51 146 128
f 144 481 276
f 368 275 276
f 276 275 144
f 441 434 442
f 423 411 444
f 411 410 444
f 444 410 396
f 396 443 444
f 453 441 460
f 394 453 460
f 441 442 460
f 460 442 443
f 396 394 460
f 460 443 396
f 40 41 104
f 104 38 40
f 104 105 38
f 153 155 156
f 105 104 153
f 156 28 153
f 164 105 153
f 42 154 153
f 154 155 153
f 41 42 153
f 153 104 41
f 153 28 167
f 167 164 153
f 425 305 304
f 425 454 305
f 304 303 425
f 425 420 422
f 434 454 435
f 435 442 434
f 435 425 422
f 454 425 435
f 76 305 244
f 9 77 212
f 212 10 9
f 244 10 212
f 212 76 244
f 77 76 212
f 304 305 488
f 488 77 304
f 305 76 488
f 488 76 77
f 416 415 417
f 408 419 417
f 415 407 417
f 417 407 408
f 409 419 408
f 404 410 409
f 410 421 409
f 421 419 409
f 419 420 418
f 416 417 418
f 418 417 419
f 418 399 416
f 405 558 404
f 404 409 405
f 405 409 408
f 207 208 73
f 73 198 207
f 207 198 208
f 35 198 73
f 234 198 35
f 73 233 35
f 35 233 234
f 458 450 449
f 449 437 458
f 449 457 437
f 448 457 449
f 469 468 448
f 469 450 470
f 448 449 469
f 469 449 450
f 464 470 401
f 401 400 464
f 464 469 470
f 468 469 464
f 433 468 464
f 464 400 433
f 289 301 447
f 447 457 448
f 447 301 457
f 291 292 284
f 284 26 291
f 291 26 210
f 291 209 85
f 210 209 291
f 287 285 432
f 432 445 287
f 287 445 288
f 286 285 287
f 287 288 247
f 287 131 286
f 247 131 287
f 381 383 384
f 384 386 381
f 219 225 55
f 242 219 13
f 220 221 486
f 30 221 220
f 232 137 55
f 147 132 264
f 264 16 147
f 52 18 147
f 18 132 147
f 147 16 152
f 147 146 52
f 228 218 484
f 484 151 228
f 247 281 7
f 7 281 17
f 7 179 247
f 17 179 7
f 565 569 588
f 588 566 565
f 514 569 565
f 565 562 514
f 565 566 562
f 497 590 494
f 497 589 590
f 497 498 496
f 494 498 497
f 258 260 259
f 359 260 258
f 152 257 258
f 258 358 359
f 257 358 258
f 259 53 258
f 258 54 152
f 53 54 258
f 261 228 14
f 14 260 261
f 261 218 228
f 329 319 328
f 320 391 322
f 392 391 320
f 329 392 320
f 320 319 329
f 279 326 365
f 279 195 280
f 280 326 279
f 365 278 279
f 279 278 48
f 369 336 338
f 338 336 370
f 338 393 369
f 338 366 393
f 191 481 187
f 4 48 480
f 48 278 480
f 239 189 47
f 592 570 571
f 571 570 511
f 511 572 571
f 572 573 571
f 575 573 572
f 572 574 575
f 333 336 334
f 370 336 333
f 368 370 333
f 273 145 271
f 213 241 272
f 241 270 272
f 270 271 272
f 272 145 213
f 272 271 145
f 125 136 148
f 128 146 148
f 148 143 128
f 148 127 125
f 148 54 127
f 152 54 148
f 148 147 152
f 146 147 148
f 268 25 267
f 267 274 268
f 267 25 1
f 1 51 267
f 367 278 365
f 365 366 367
f 366 338 367
f 367 370 368
f 367 338 370
f 443 442 436
f 436 444 443
f 423 444 436
f 442 435 436
f 436 422 423
f 436 435 422
f 420 425 424
f 399 418 424
f 424 418 420
f 313 399 424
f 424 303 313
f 424 425 303
f 408 407 406
f 406 405 408
f 406 407 557
f 406 557 558
f 558 405 406
f 289 447 290
f 290 492 289
f 468 466 467
f 448 468 467
f 467 447 448
f 255 356 253
f 253 151 255
f 150 151 253
f 225 219 485
f 383 249 248
f 248 384 383
f 249 223 248
f 225 485 248
f 357 260 359
f 357 261 260
f 386 384 388
f 388 253 356
f 55 150 12
f 12 219 55
f 12 13 219
f 229 223 249
f 249 232 229
f 229 232 223
f 231 232 55
f 223 232 231
f 55 222 231
f 231 222 223
f 221 137 226
f 137 232 226
f 249 221 226
f 226 232 249
f 493 589 495
f 589 497 495
f 495 497 496
f 496 499 495
f 495 499 493
f 256 484 218
f 218 261 256
f 255 151 256
f 151 484 256
f 256 356 255
f 256 357 356
f 261 357 256
f 381 386 377
f 377 324 381
f 322 323 377
f 377 323 324
f 348 349 350
f 350 359 348
f 350 357 359
f 319 320 385
f 385 355 319
f 327 355 328
f 327 328 319
f 319 355 327
f 195 279 190
f 190 279 189
f 190 238 195
f 278 191 5
f 4 480 5
f 5 480 278
f 187 4 5
f 5 191 187
f 573 575 593
f 592 571 593
f 593 571 573
f 593 334 592
f 593 335 334
f 371 270 241
f 371 275 368
f 368 333 371
f 371 241 482
f 482 275 371
f 325 271 270
f 270 371 325
f 273 271 325
f 333 339 325
f 325 371 333
f 360 273 325
f 325 339 360
f 136 119 135
f 135 148 136
f 50 51 274
f 274 267 50
f 50 267 51
f 277 191 278
f 278 367 277
f 481 191 277
f 277 276 481
f 368 276 277
f 277 367 368
f 84 291 85
f 84 290 291
f 85 492 84
f 492 290 84
f 446 290 447
f 447 467 446
f 291 290 446
f 292 291 446
f 446 466 292
f 446 467 466
f 254 12 150
f 13 12 254
f 223 222 224
f 224 248 223
f 253 388 252
f 252 254 253
f 384 248 252
f 252 388 384
f 252 248 485
f 242 13 252
f 13 254 252
f 252 219 242
f 252 485 219
f 351 350 349
f 351 349 329
f 329 328 351
f 355 385 354
f 356 357 354
f 321 385 320
f 321 320 322
f 322 377 321
f 321 377 386
f 189 239 192
f 192 190 189
f 192 239 47
f 47 238 192
f 238 190 192
f 39 279 48
f 48 194 39
f 39 194 279
f 47 189 138
f 189 279 240
f 344 574 332
f 343 342 344
f 332 345 344
f 344 345 343
f 335 342 340
f 334 335 340
f 340 333 334
f 340 339 333
f 373 593 575
f 373 575 574
f 335 593 373
f 373 342 335
f 373 344 342
f 341 342 343
f 341 361 360
f 343 361 341
f 360 339 341
f 339 340 341
f 341 340 342
f 143 148 126
f 148 135 126
f 126 135 119
f 126 28 128
f 128 143 126
f 119 28 126
f 150 253 133
f 133 254 150
f 253 254 133
f 248 224 230
f 225 248 230
f 55 225 230
f 355 354 352
f 350 351 352
f 357 350 352
f 352 354 357
f 387 388 356
f 356 354 387
f 386 388 387
f 387 354 385
f 387 321 386
f 385 321 387
f 279 194 193
f 193 240 279
f 193 48 47
f 193 194 48
f 47 138 193
f 193 138 189
f 189 240 193
f 574 344 372
f 372 373 574
f 344 373 372
f 55 230 29
f 29 230 224
f 29 222 55
f 29 224 222
f 355 352 353
f 353 352 351
f 328 355 353
f 353 351 328
f 318 315 316
f 317 318 316
f 220 137 30
f 486 137 220

